{"glyphs":{"0":{"ha":829,"x_min":65,"x_max":764,"o":"m 414 -28 q 210 33 288 -28 q 99 204 132 94 q 65 458 65 314 q 99 713 65 604 q 210 883 132 822 q 414 944 288 944 q 620 883 543 944 q 731 713 697 822 q 764 458 764 604 q 731 204 764 314 q 620 33 697 94 q 414 -28 543 -28 m 414 32 q 553 135 513 32 q 593 458 593 239 q 553 781 593 678 q 414 885 513 885 q 276 781 317 885 q 236 458 236 678 q 276 135 236 239 q 414 32 317 32 z "},"1":{"ha":439,"x_min":14,"x_max":329,"o":"m 171 0 l 171 763 l 44 682 l 14 719 l 229 917 l 329 917 l 329 0 l 171 0 z "},"2":{"ha":743,"x_min":57,"x_max":675,"o":"m 57 0 l 57 82 q 175 195 114 138 q 293 312 236 253 q 396 431 350 371 q 469 553 442 492 q 496 678 496 615 q 472 794 496 749 q 411 863 449 840 q 331 885 374 885 q 185 826 246 885 q 103 644 124 767 l 63 644 q 67 749 63 697 q 96 833 71 801 q 206 912 133 879 q 364 944 279 944 q 462 934 410 944 q 561 896 514 924 q 638 815 608 868 q 667 678 667 763 q 641 556 667 615 q 573 441 615 497 q 477 333 531 385 q 367 233 424 281 q 259 141 311 185 q 168 60 207 97 l 465 60 q 594 98 549 60 q 639 210 639 136 l 675 210 l 675 111 q 665 58 675 83 q 631 16 656 32 q 557 0 606 0 l 57 0 z "},"3":{"ha":747,"x_min":44,"x_max":699,"o":"m 378 -28 q 237 -9 297 -28 q 130 43 176 10 q 44 122 83 76 l 76 156 q 197 63 133 93 q 328 32 261 32 q 428 56 383 32 q 501 128 474 79 q 528 257 528 178 q 502 379 528 332 q 435 449 476 426 q 349 472 394 472 q 293 469 315 472 q 249 462 271 467 q 194 449 228 457 l 160 503 l 538 857 l 286 857 q 158 819 203 857 q 113 707 113 781 l 76 707 l 76 806 q 86 859 76 833 q 122 901 96 885 q 194 917 147 917 l 653 917 l 653 857 l 296 522 q 345 530 311 528 q 399 532 379 532 q 492 519 440 532 q 590 474 543 506 q 668 390 638 443 q 699 257 699 338 q 665 112 699 168 q 578 25 631 56 q 472 -17 526 -6 q 378 -28 418 -28 z "},"4":{"ha":779,"x_min":18,"x_max":744,"o":"m 463 0 l 463 236 l 18 236 l 18 292 l 489 917 l 619 917 l 619 296 l 744 296 l 744 236 l 619 236 l 619 0 l 463 0 m 108 296 l 463 296 l 463 767 l 108 296 z "},"5":{"ha":749,"x_min":54,"x_max":707,"o":"m 364 -28 q 183 12 254 -28 q 54 121 113 51 l 89 151 q 206 60 142 89 q 336 32 269 32 q 435 56 390 32 q 508 129 481 79 q 535 261 535 179 q 476 422 535 369 q 314 475 418 475 q 228 467 272 475 q 140 451 183 460 l 85 506 l 100 917 l 632 917 l 632 858 l 242 858 l 229 529 l 272 532 q 313 535 290 533 q 358 536 336 536 q 472 524 411 536 q 586 482 533 513 q 673 397 639 451 q 707 261 707 343 q 672 117 707 174 q 582 28 636 60 q 469 -15 528 -3 q 364 -28 411 -28 z "},"6":{"ha":765,"x_min":65,"x_max":717,"o":"m 401 -28 q 148 94 231 -28 q 65 458 65 217 q 158 825 65 706 q 438 944 250 944 q 561 930 503 944 q 657 900 619 915 l 649 865 q 578 876 610 872 q 520 883 547 881 q 465 885 493 885 q 292 795 353 885 q 231 535 231 706 q 313 580 263 560 q 431 600 364 600 q 597 560 535 600 q 688 450 660 521 q 717 285 717 379 q 681 133 717 204 q 576 17 646 61 q 401 -28 507 -28 m 401 32 q 483 67 450 32 q 534 160 517 103 q 551 285 551 218 q 514 474 551 407 q 389 540 476 540 q 317 527 350 540 q 263 497 285 514 q 231 469 240 481 q 251 217 231 314 q 311 76 272 119 q 401 32 350 32 z "},"7":{"ha":657,"x_min":32,"x_max":646,"o":"m 147 0 l 494 857 l 242 857 q 113 819 158 857 q 68 707 68 781 l 32 707 l 32 806 q 42 859 32 833 q 77 901 51 885 q 150 917 103 917 l 646 917 l 646 857 l 299 0 l 147 0 z "},"8":{"ha":789,"x_min":58,"x_max":731,"o":"m 394 -28 q 227 -3 304 -28 q 104 74 150 21 q 58 210 58 126 q 91 326 58 278 q 176 407 124 374 q 286 465 229 440 q 191 528 235 496 q 120 603 147 560 q 93 707 93 646 q 135 849 93 797 q 245 923 176 901 q 394 944 314 944 q 545 924 476 944 q 655 854 614 903 q 696 721 696 806 q 671 624 696 667 q 605 550 646 582 q 514 496 564 518 q 619 428 569 465 q 699 343 668 392 q 731 224 731 294 q 685 78 731 133 q 564 -3 640 22 q 394 -28 488 -28 m 394 32 q 481 50 442 32 q 542 105 519 68 q 565 196 565 142 q 536 297 565 254 q 460 372 507 339 q 356 435 413 406 q 288 388 318 415 q 241 317 258 360 q 224 210 224 275 q 247 109 224 149 q 308 51 269 69 q 394 32 347 32 m 446 531 q 507 601 483 560 q 531 721 531 643 q 509 822 531 786 q 456 871 488 857 q 394 885 425 885 q 333 872 365 885 q 280 826 301 858 q 258 735 258 793 q 284 653 258 690 q 353 585 310 617 q 446 531 397 554 z "},"9":{"ha":764,"x_min":47,"x_max":699,"o":"m 326 -28 q 240 -21 282 -28 q 163 -3 197 -14 q 107 17 129 7 l 115 51 q 187 40 158 44 q 242 33 215 35 q 299 32 268 32 q 472 122 411 32 q 533 382 533 211 q 451 337 501 357 q 333 317 400 317 q 167 356 229 317 q 76 467 104 396 q 47 632 47 538 q 83 785 47 714 q 188 900 118 856 q 363 944 258 944 q 616 822 533 944 q 699 458 699 699 q 606 91 699 210 q 326 -28 514 -28 m 375 376 q 447 390 415 376 q 501 420 479 403 q 533 447 524 438 q 513 700 533 603 q 453 841 492 797 q 363 885 414 885 q 281 849 315 885 q 230 757 247 814 q 213 632 213 700 q 250 443 213 510 q 375 376 288 376 z "},"A":{"ha":892,"x_min":19,"x_max":931,"o":"m 869 -6 q 781 6 829 -6 q 688 56 733 18 q 611 175 643 94 l 578 257 l 200 257 l 88 0 l 19 0 l 421 917 l 474 917 l 783 175 q 845 73 811 107 q 931 33 879 39 l 931 1 q 902 -3 919 -1 q 869 -6 885 -6 m 226 317 l 550 317 l 392 696 l 226 317 z "},"Á":{"ha":892,"x_min":19,"x_max":931,"o":"m 869 -6 q 781 6 829 -6 q 688 56 733 18 q 611 175 643 94 l 578 257 l 200 257 l 88 0 l 19 0 l 421 917 l 474 917 l 783 175 q 845 73 811 107 q 931 33 879 39 l 931 1 q 902 -3 919 -1 q 869 -6 885 -6 m 226 317 l 550 317 l 392 696 l 226 317 m 418 972 l 475 1161 l 626 1161 l 486 972 l 418 972 z "},"Â":{"ha":892,"x_min":19,"x_max":931,"o":"m 869 -6 q 781 6 829 -6 q 688 56 733 18 q 611 175 643 94 l 578 257 l 200 257 l 88 0 l 19 0 l 421 917 l 474 917 l 783 175 q 845 73 811 107 q 931 33 879 39 l 931 1 q 902 -3 919 -1 q 869 -6 885 -6 m 226 317 l 550 317 l 392 696 l 226 317 m 250 951 l 361 1119 l 531 1119 l 642 951 l 564 951 l 446 1063 l 328 951 l 250 951 z "},"Ä":{"ha":892,"x_min":19,"x_max":931,"o":"m 869 -6 q 781 6 829 -6 q 688 56 733 18 q 611 175 643 94 l 578 257 l 200 257 l 88 0 l 19 0 l 421 917 l 474 917 l 783 175 q 845 73 811 107 q 931 33 879 39 l 931 1 q 902 -3 919 -1 q 869 -6 885 -6 m 226 317 l 550 317 l 392 696 l 226 317 m 564 958 q 509 980 529 958 q 489 1033 489 1001 q 509 1086 489 1065 q 564 1107 529 1107 q 618 1086 599 1107 q 638 1033 638 1065 q 617 980 638 1001 q 564 958 597 958 m 328 958 q 273 980 293 958 q 253 1033 253 1001 q 273 1086 253 1065 q 328 1107 293 1107 q 382 1086 363 1107 q 401 1033 401 1065 q 381 980 401 1001 q 328 958 361 958 z "},"À":{"ha":892,"x_min":19,"x_max":931,"o":"m 869 -6 q 781 6 829 -6 q 688 56 733 18 q 611 175 643 94 l 578 257 l 200 257 l 88 0 l 19 0 l 421 917 l 474 917 l 783 175 q 845 73 811 107 q 931 33 879 39 l 931 1 q 902 -3 919 -1 q 869 -6 885 -6 m 226 317 l 550 317 l 392 696 l 226 317 m 411 974 l 271 1163 l 422 1163 l 479 974 l 411 974 z "},"Å":{"ha":892,"x_min":19,"x_max":931,"o":"m 869 -6 q 781 6 829 -6 q 688 56 733 18 q 611 175 643 94 l 578 257 l 200 257 l 88 0 l 19 0 l 396 863 q 346 904 371 875 q 321 979 321 933 q 357 1069 321 1033 q 447 1106 393 1106 q 537 1069 500 1106 q 574 979 574 1033 q 548 903 574 933 q 497 863 522 874 l 783 175 q 845 73 811 107 q 931 33 879 39 l 931 1 q 902 -3 919 -1 q 869 -6 885 -6 m 226 317 l 550 317 l 392 696 l 226 317 m 418 917 l 476 917 q 501 943 492 928 q 510 979 510 958 q 492 1030 510 1011 q 447 1049 474 1049 q 403 1030 421 1049 q 385 979 385 1011 q 394 943 385 958 q 418 917 403 928 z "},"Ã":{"ha":892,"x_min":19,"x_max":931,"o":"m 869 -6 q 781 6 829 -6 q 688 56 733 18 q 611 175 643 94 l 578 257 l 200 257 l 88 0 l 19 0 l 421 917 l 474 917 l 783 175 q 845 73 811 107 q 931 33 879 39 l 931 1 q 902 -3 919 -1 q 869 -6 885 -6 m 226 317 l 550 317 l 392 696 l 226 317 m 292 972 q 316 1080 292 1051 q 382 1108 340 1108 q 435 1094 413 1108 q 476 1067 457 1081 q 517 1053 496 1053 q 550 1072 538 1053 q 563 1108 563 1090 l 613 1108 q 589 1001 613 1029 q 524 972 565 972 q 471 986 493 972 q 429 1014 449 1000 q 388 1028 410 1028 q 354 1009 367 1028 q 342 972 342 990 l 292 972 z "},"Æ":{"ha":1204,"x_min":-26,"x_max":1172,"o":"m -26 0 l 488 917 l 1001 917 q 1075 901 1050 917 q 1110 859 1100 885 q 1119 806 1119 833 l 1119 693 l 1083 693 q 1038 818 1083 779 q 910 857 993 857 l 672 857 l 672 504 l 1039 504 l 1039 444 l 672 444 l 672 60 l 913 60 q 1050 94 996 60 q 1139 215 1104 128 l 1172 204 l 1128 86 q 1090 23 1114 46 q 1014 0 1065 0 l 514 0 l 514 264 l 199 264 l 51 0 l -26 0 m 233 324 l 514 324 l 514 825 l 233 324 z "},"B":{"ha":882,"x_min":21,"x_max":831,"o":"m 139 0 l 139 742 q 122 842 139 804 q 42 881 104 881 l 21 881 l 21 917 l 390 917 q 520 909 451 917 q 649 877 589 901 q 748 804 710 853 q 786 674 786 756 q 740 557 786 613 q 599 474 694 501 q 740 431 689 463 q 810 353 790 399 q 831 253 831 308 q 796 124 831 174 q 703 48 761 75 q 574 10 644 21 q 432 0 503 0 l 139 0 m 411 53 q 596 103 532 53 q 660 246 660 153 q 597 390 660 340 q 411 439 535 439 l 296 439 l 296 69 q 349 58 318 63 q 411 53 379 53 m 296 499 l 411 499 q 515 517 468 499 q 590 576 561 536 q 618 681 618 617 q 583 789 618 749 q 496 847 549 829 q 388 864 443 864 q 345 861 368 864 q 296 853 322 858 l 296 499 z "},"C":{"ha":935,"x_min":56,"x_max":894,"o":"m 503 -28 q 262 35 363 -28 q 108 205 161 97 q 56 444 56 313 q 89 641 56 550 q 184 800 122 732 q 327 906 246 868 q 503 944 408 944 q 708 911 626 944 q 828 832 789 878 q 858 742 854 799 q 863 622 863 685 l 826 622 q 730 819 800 753 q 544 885 660 885 q 385 844 457 885 q 269 708 313 804 q 226 444 226 613 q 244 292 226 365 q 301 159 263 218 q 399 66 339 100 q 544 32 458 32 q 722 83 643 32 q 854 229 801 133 l 894 199 q 734 24 829 76 q 503 -28 639 -28 z "},"Ç":{"ha":935,"x_min":56,"x_max":894,"o":"m 503 -28 q 262 35 363 -28 q 108 205 161 97 q 56 444 56 313 q 89 641 56 550 q 184 800 122 732 q 327 906 246 868 q 503 944 408 944 q 708 911 626 944 q 828 832 789 878 q 858 742 854 799 q 863 622 863 685 l 826 622 q 730 819 800 753 q 544 885 660 885 q 385 844 457 885 q 269 708 313 804 q 226 444 226 613 q 244 292 226 365 q 301 159 263 218 q 399 66 339 100 q 544 32 458 32 q 722 83 643 32 q 854 229 801 133 l 894 199 q 734 24 829 76 q 503 -28 639 -28 m 444 -281 l 444 -219 l 514 -219 q 555 -207 540 -219 q 569 -175 569 -194 q 555 -142 569 -154 q 514 -129 540 -129 l 451 -129 l 451 0 l 531 0 l 531 -69 q 623 -97 590 -69 q 656 -175 656 -125 q 623 -252 656 -224 q 536 -281 590 -281 l 444 -281 z "},"D":{"ha":1010,"x_min":21,"x_max":956,"o":"m 139 0 l 139 742 q 122 842 139 804 q 42 881 104 881 l 21 881 l 21 917 l 393 917 q 815 795 675 917 q 956 464 956 674 q 896 223 956 328 q 719 59 836 118 q 429 0 601 0 l 139 0 m 425 53 q 603 102 525 53 q 726 242 681 151 q 771 458 771 333 q 726 672 771 581 q 603 813 682 763 q 422 864 525 864 q 365 861 392 864 q 297 849 338 858 l 297 65 q 348 57 328 60 q 386 53 368 54 q 425 53 404 53 z "},"Ð":{"ha":1010,"x_min":21,"x_max":956,"o":"m 139 0 l 139 426 l 38 426 l 38 490 l 139 490 l 139 742 q 122 842 139 804 q 42 881 104 881 l 21 881 l 21 917 l 393 917 q 815 795 675 917 q 956 464 956 674 q 896 223 956 328 q 719 59 836 118 q 429 0 601 0 l 139 0 m 425 53 q 603 102 525 53 q 726 242 681 151 q 771 458 771 333 q 726 672 771 581 q 603 813 682 763 q 422 864 525 864 q 365 861 392 864 q 297 849 338 858 l 297 490 l 408 490 l 408 426 l 297 426 l 297 65 q 348 57 328 60 q 386 53 368 54 q 425 53 404 53 z "},"E":{"ha":828,"x_min":21,"x_max":796,"o":"m 139 0 l 139 742 q 122 842 139 804 q 42 881 104 881 l 21 881 l 21 917 l 625 917 q 699 901 674 917 q 733 859 724 885 q 743 806 743 833 l 743 693 l 707 693 q 662 818 707 779 q 533 857 617 857 l 296 857 l 296 504 l 663 504 l 663 444 l 296 444 l 296 60 l 536 60 q 674 94 619 60 q 763 215 728 128 l 796 204 l 751 86 q 714 23 739 46 q 638 0 689 0 l 139 0 z "},"É":{"ha":828,"x_min":21,"x_max":796,"o":"m 139 0 l 139 742 q 122 842 139 804 q 42 881 104 881 l 21 881 l 21 917 l 625 917 q 699 901 674 917 q 733 859 724 885 q 743 806 743 833 l 743 693 l 707 693 q 662 818 707 779 q 533 857 617 857 l 296 857 l 296 504 l 663 504 l 663 444 l 296 444 l 296 60 l 536 60 q 674 94 619 60 q 763 215 728 128 l 796 204 l 751 86 q 714 23 739 46 q 638 0 689 0 l 139 0 m 386 972 l 443 1161 l 594 1161 l 454 972 l 386 972 z "},"Ê":{"ha":828,"x_min":21,"x_max":796,"o":"m 139 0 l 139 742 q 122 842 139 804 q 42 881 104 881 l 21 881 l 21 917 l 625 917 q 699 901 674 917 q 733 859 724 885 q 743 806 743 833 l 743 693 l 707 693 q 662 818 707 779 q 533 857 617 857 l 296 857 l 296 504 l 663 504 l 663 444 l 296 444 l 296 60 l 536 60 q 674 94 619 60 q 763 215 728 128 l 796 204 l 751 86 q 714 23 739 46 q 638 0 689 0 l 139 0 m 225 1003 l 336 1171 l 506 1171 l 617 1003 l 539 1003 l 421 1114 l 303 1003 l 225 1003 z "},"Ë":{"ha":828,"x_min":21,"x_max":796,"o":"m 139 0 l 139 742 q 122 842 139 804 q 42 881 104 881 l 21 881 l 21 917 l 625 917 q 699 901 674 917 q 733 859 724 885 q 743 806 743 833 l 743 693 l 707 693 q 662 818 707 779 q 533 857 617 857 l 296 857 l 296 504 l 663 504 l 663 444 l 296 444 l 296 60 l 536 60 q 674 94 619 60 q 763 215 728 128 l 796 204 l 751 86 q 714 23 739 46 q 638 0 689 0 l 139 0 m 546 1014 q 494 1035 514 1014 q 475 1085 475 1056 q 494 1136 475 1115 q 546 1157 514 1157 q 598 1136 578 1157 q 618 1085 618 1115 q 598 1035 618 1056 q 546 1014 578 1014 m 301 1014 q 250 1035 269 1014 q 231 1085 231 1056 q 250 1136 231 1115 q 301 1157 269 1157 q 353 1136 333 1157 q 374 1085 374 1115 q 353 1035 374 1056 q 301 1014 333 1014 z "},"È":{"ha":828,"x_min":21,"x_max":796,"o":"m 139 0 l 139 742 q 122 842 139 804 q 42 881 104 881 l 21 881 l 21 917 l 625 917 q 699 901 674 917 q 733 859 724 885 q 743 806 743 833 l 743 693 l 707 693 q 662 818 707 779 q 533 857 617 857 l 296 857 l 296 504 l 663 504 l 663 444 l 296 444 l 296 60 l 536 60 q 674 94 619 60 q 763 215 728 128 l 796 204 l 751 86 q 714 23 739 46 q 638 0 689 0 l 139 0 m 410 974 l 269 1163 l 421 1163 l 478 974 l 410 974 z "},"F":{"ha":742,"x_min":21,"x_max":710,"o":"m 139 0 l 139 742 q 122 842 139 804 q 42 881 104 881 l 21 881 l 21 917 l 592 917 q 665 901 640 917 q 700 859 690 885 q 710 806 710 833 l 710 693 l 674 693 q 628 819 674 781 q 500 857 583 857 l 296 857 l 296 497 l 606 497 l 606 438 l 296 438 l 296 0 l 139 0 z "},"G":{"ha":1011,"x_min":54,"x_max":994,"o":"m 542 -28 q 347 10 436 -28 q 192 117 257 49 q 90 276 126 185 q 54 472 54 367 q 109 713 54 606 q 265 882 164 819 q 500 944 365 944 q 713 911 629 944 q 836 832 797 878 q 867 744 863 799 q 871 642 871 689 l 835 642 q 737 826 808 767 q 542 885 665 885 q 397 851 457 885 q 299 758 338 817 q 243 625 261 699 q 225 472 225 551 q 268 207 225 304 q 383 69 311 110 q 542 28 456 28 q 656 39 610 28 q 742 69 703 50 l 742 314 q 749 372 742 343 q 783 426 757 401 q 860 465 810 450 q 994 481 910 481 l 994 449 q 919 414 939 449 q 899 317 899 379 l 899 63 q 734 -6 821 15 q 542 -28 647 -28 z "},"Ğ":{"ha":1011,"x_min":54,"x_max":994,"o":"m 542 -28 q 347 10 436 -28 q 192 117 257 49 q 90 276 126 185 q 54 472 54 367 q 109 713 54 606 q 265 882 164 819 q 500 944 365 944 q 713 911 629 944 q 836 832 797 878 q 867 744 863 799 q 871 642 871 689 l 835 642 q 737 826 808 767 q 542 885 665 885 q 397 851 457 885 q 299 758 338 817 q 243 625 261 699 q 225 472 225 551 q 268 207 225 304 q 383 69 311 110 q 542 28 456 28 q 656 39 610 28 q 742 69 703 50 l 742 314 q 749 372 742 343 q 783 426 757 401 q 860 465 810 450 q 994 481 910 481 l 994 449 q 919 414 939 449 q 899 317 899 379 l 899 63 q 734 -6 821 15 q 542 -28 647 -28 m 504 1014 q 389 1049 436 1014 q 315 1142 342 1083 l 350 1168 q 408 1122 371 1142 q 504 1101 446 1101 q 601 1122 563 1101 q 660 1168 639 1142 l 694 1142 q 620 1049 668 1083 q 504 1014 572 1014 z "},"H":{"ha":985,"x_min":21,"x_max":963,"o":"m 139 0 l 139 742 q 122 842 139 804 q 42 881 104 881 l 21 881 l 21 917 l 171 917 q 247 901 219 917 q 285 849 274 886 q 296 742 296 811 l 296 504 l 688 504 l 688 917 l 846 917 l 846 175 q 863 74 846 113 q 943 36 881 36 l 963 36 l 963 0 l 813 0 q 737 15 764 0 q 699 67 710 29 q 688 175 688 106 l 688 444 l 296 444 l 296 0 l 139 0 z "},"I":{"ha":411,"x_min":115,"x_max":390,"o":"m 240 0 q 165 15 192 0 q 126 67 138 29 q 115 175 115 106 l 115 917 l 274 917 l 274 175 q 291 74 274 113 q 371 36 308 36 l 390 36 l 390 0 l 240 0 z "},"Í":{"ha":411,"x_min":115,"x_max":390,"o":"m 240 0 q 165 15 192 0 q 126 67 138 29 q 115 175 115 106 l 115 917 l 274 917 l 274 175 q 291 74 274 113 q 371 36 308 36 l 390 36 l 390 0 l 240 0 m 153 972 l 210 1161 l 361 1161 l 221 972 l 153 972 z "},"Î":{"ha":411,"x_min":-1,"x_max":390,"o":"m 240 0 q 165 15 192 0 q 126 67 138 29 q 115 175 115 106 l 115 917 l 274 917 l 274 175 q 291 74 274 113 q 371 36 308 36 l 390 36 l 390 0 l 240 0 m -1 965 l 110 1133 l 279 1133 l 390 965 l 313 965 l 194 1076 l 76 965 l -1 965 z "},"Ï":{"ha":411,"x_min":8,"x_max":390,"o":"m 240 0 q 165 15 192 0 q 126 67 138 29 q 115 175 115 106 l 115 917 l 274 917 l 274 175 q 291 74 274 113 q 371 36 308 36 l 390 36 l 390 0 l 240 0 m 82 993 q 28 1015 49 993 q 8 1068 8 1036 q 28 1121 8 1100 q 82 1142 49 1142 q 137 1121 117 1142 q 157 1068 157 1100 q 137 1015 157 1036 q 82 993 117 993 m 306 993 q 252 1015 272 993 q 232 1068 232 1036 q 252 1121 232 1100 q 307 1142 272 1142 q 360 1121 340 1142 q 381 1068 381 1100 q 360 1015 381 1036 q 306 993 340 993 z "},"İ":{"ha":411,"x_min":107,"x_max":390,"o":"m 240 0 q 165 15 192 0 q 126 67 138 29 q 115 175 115 106 l 115 917 l 274 917 l 274 175 q 291 74 274 113 q 371 36 308 36 l 390 36 l 390 0 l 240 0 m 200 989 q 131 1019 156 989 q 107 1088 107 1049 q 127 1140 107 1121 q 178 1160 147 1160 q 247 1130 222 1160 q 271 1061 271 1100 q 251 1008 271 1028 q 200 989 231 989 z "},"Ì":{"ha":411,"x_min":35,"x_max":390,"o":"m 240 0 q 165 15 192 0 q 126 67 138 29 q 115 175 115 106 l 115 917 l 274 917 l 274 175 q 291 74 274 113 q 371 36 308 36 l 390 36 l 390 0 l 240 0 m 175 974 l 35 1163 l 186 1163 l 243 974 l 175 974 z "},"J":{"ha":376,"x_min":-21,"x_max":268,"o":"m -21 -190 l -21 -154 q 51 -124 22 -151 q 95 -38 81 -96 q 110 113 110 19 l 110 917 l 268 917 l 268 113 q 244 -67 268 -1 q 157 -162 219 -133 q -21 -190 94 -190 z "},"K":{"ha":953,"x_min":21,"x_max":968,"o":"m 871 -14 q 776 -1 825 -14 q 671 47 726 11 q 549 153 615 83 l 297 415 l 297 0 l 139 0 l 139 742 q 122 842 139 804 q 42 881 104 881 l 21 881 l 21 917 l 171 917 q 247 901 219 917 q 285 849 274 886 q 297 742 297 811 l 297 475 l 558 771 q 625 842 590 808 q 703 896 660 875 q 800 917 746 917 l 886 917 l 886 874 q 760 853 815 874 q 653 776 704 833 l 421 514 l 740 181 q 817 110 776 143 q 898 56 858 76 q 968 31 938 35 l 968 0 q 928 -10 953 -6 q 871 -14 903 -14 z "},"L":{"ha":785,"x_min":21,"x_max":781,"o":"m 139 0 l 139 742 q 122 842 139 804 q 42 881 104 881 l 21 881 l 21 917 l 171 917 q 247 901 219 917 q 285 849 274 886 q 296 742 296 811 l 296 60 l 781 60 l 781 0 l 139 0 z "},"M":{"ha":1197,"x_min":110,"x_max":1174,"o":"m 1174 -62 q 1013 -31 1074 -62 q 927 66 953 0 q 901 236 901 132 l 901 746 l 579 0 l 542 0 l 174 768 l 174 0 l 110 0 l 110 917 l 264 917 l 599 218 l 900 917 l 1060 917 l 1060 236 q 1085 43 1060 110 q 1174 -31 1111 -24 l 1174 -62 z "},"N":{"ha":957,"x_min":8,"x_max":849,"o":"m 799 -8 l 207 704 l 207 0 l 143 0 l 143 750 q 117 844 143 807 q 18 881 92 881 l 8 881 l 8 917 l 103 917 q 224 895 178 917 q 303 833 271 874 l 785 258 l 785 917 l 849 917 l 849 -8 l 799 -8 z "},"Ñ":{"ha":957,"x_min":8,"x_max":849,"o":"m 799 -8 l 207 704 l 207 0 l 143 0 l 143 750 q 117 844 143 807 q 18 881 92 881 l 8 881 l 8 917 l 103 917 q 224 895 178 917 q 303 833 271 874 l 785 258 l 785 917 l 849 917 l 849 -8 l 799 -8 m 328 964 q 352 1072 328 1043 q 418 1100 376 1100 q 471 1086 449 1100 q 513 1058 493 1072 q 553 1044 532 1044 q 586 1063 574 1044 q 599 1100 599 1082 l 649 1100 q 625 992 649 1021 q 560 964 601 964 q 507 978 529 964 q 465 1006 485 992 q 424 1019 446 1019 q 390 1001 403 1019 q 378 964 378 982 l 328 964 z "},"O":{"ha":1006,"x_min":57,"x_max":950,"o":"m 503 -28 q 267 37 368 -28 q 112 211 167 101 q 57 458 57 321 q 112 706 57 596 q 267 880 167 815 q 503 944 368 944 q 739 880 639 944 q 894 706 839 815 q 950 458 950 596 q 894 211 950 321 q 739 37 839 101 q 503 -28 639 -28 m 503 32 q 653 83 592 32 q 747 229 714 133 q 779 458 779 325 q 747 688 779 593 q 653 834 714 783 q 503 885 592 885 q 355 834 417 885 q 260 688 293 783 q 228 458 228 593 q 260 229 228 325 q 355 83 293 133 q 503 32 417 32 z "},"Ó":{"ha":1006,"x_min":57,"x_max":950,"o":"m 503 -28 q 267 37 368 -28 q 112 211 167 101 q 57 458 57 321 q 112 706 57 596 q 267 880 167 815 q 503 944 368 944 q 739 880 639 944 q 894 706 839 815 q 950 458 950 596 q 894 211 950 321 q 739 37 839 101 q 503 -28 639 -28 m 503 32 q 653 83 592 32 q 747 229 714 133 q 779 458 779 325 q 747 688 779 593 q 653 834 714 783 q 503 885 592 885 q 355 834 417 885 q 260 688 293 783 q 228 458 228 593 q 260 229 228 325 q 355 83 293 133 q 503 32 417 32 m 468 1003 l 525 1192 l 676 1192 l 536 1003 l 468 1003 z "},"Ô":{"ha":1006,"x_min":57,"x_max":950,"o":"m 503 -28 q 267 37 368 -28 q 112 211 167 101 q 57 458 57 321 q 112 706 57 596 q 267 880 167 815 q 503 944 368 944 q 739 880 639 944 q 894 706 839 815 q 950 458 950 596 q 894 211 950 321 q 739 37 839 101 q 503 -28 639 -28 m 503 32 q 653 83 592 32 q 747 229 714 133 q 779 458 779 325 q 747 688 779 593 q 653 834 714 783 q 503 885 592 885 q 355 834 417 885 q 260 688 293 783 q 228 458 228 593 q 260 229 228 325 q 355 83 293 133 q 503 32 417 32 m 301 1008 l 413 1176 l 582 1176 l 693 1008 l 615 1008 l 497 1119 l 379 1008 l 301 1008 z "},"Ö":{"ha":1006,"x_min":57,"x_max":950,"o":"m 503 -28 q 267 37 368 -28 q 112 211 167 101 q 57 458 57 321 q 112 706 57 596 q 267 880 167 815 q 503 944 368 944 q 739 880 639 944 q 894 706 839 815 q 950 458 950 596 q 894 211 950 321 q 739 37 839 101 q 503 -28 639 -28 m 503 32 q 653 83 592 32 q 747 229 714 133 q 779 458 779 325 q 747 688 779 593 q 653 834 714 783 q 503 885 592 885 q 355 834 417 885 q 260 688 293 783 q 228 458 228 593 q 260 229 228 325 q 355 83 293 133 q 503 32 417 32 m 635 1021 q 583 1042 603 1021 q 564 1092 564 1063 q 583 1143 564 1122 q 635 1164 603 1164 q 687 1143 667 1164 q 707 1092 707 1122 q 687 1042 707 1063 q 635 1021 667 1021 m 390 1021 q 339 1042 358 1021 q 319 1092 319 1063 q 339 1143 319 1122 q 390 1164 358 1164 q 442 1143 422 1164 q 463 1092 463 1122 q 442 1042 463 1063 q 390 1021 422 1021 z "},"Ò":{"ha":1006,"x_min":57,"x_max":950,"o":"m 503 -28 q 267 37 368 -28 q 112 211 167 101 q 57 458 57 321 q 112 706 57 596 q 267 880 167 815 q 503 944 368 944 q 739 880 639 944 q 894 706 839 815 q 950 458 950 596 q 894 211 950 321 q 739 37 839 101 q 503 -28 639 -28 m 503 32 q 653 83 592 32 q 747 229 714 133 q 779 458 779 325 q 747 688 779 593 q 653 834 714 783 q 503 885 592 885 q 355 834 417 885 q 260 688 293 783 q 228 458 228 593 q 260 229 228 325 q 355 83 293 133 q 503 32 417 32 m 475 1004 l 335 1193 l 486 1193 l 543 1004 l 475 1004 z "},"Ø":{"ha":1006,"x_min":57,"x_max":950,"o":"m 160 -28 l 218 74 q 99 240 140 140 q 57 458 57 339 q 112 706 57 596 q 267 880 167 815 q 503 944 368 944 q 606 934 557 944 q 697 901 654 924 l 721 944 l 839 944 l 782 847 q 906 681 861 781 q 950 458 950 581 q 894 211 950 321 q 739 37 839 101 q 503 -28 639 -28 q 397 -16 447 -28 q 303 18 346 -4 l 276 -28 l 160 -28 m 503 32 q 653 83 592 32 q 747 229 714 133 q 779 458 779 325 q 764 618 779 547 q 721 743 749 689 l 344 90 q 503 32 411 32 m 281 182 l 654 831 q 503 885 590 885 q 355 834 417 885 q 260 688 293 783 q 228 458 228 593 q 281 182 228 292 z "},"Õ":{"ha":1006,"x_min":57,"x_max":950,"o":"m 503 -28 q 267 37 368 -28 q 112 211 167 101 q 57 458 57 321 q 112 706 57 596 q 267 880 167 815 q 503 944 368 944 q 739 880 639 944 q 894 706 839 815 q 950 458 950 596 q 894 211 950 321 q 739 37 839 101 q 503 -28 639 -28 m 503 32 q 653 83 592 32 q 747 229 714 133 q 779 458 779 325 q 747 688 779 593 q 653 834 714 783 q 503 885 592 885 q 355 834 417 885 q 260 688 293 783 q 228 458 228 593 q 260 229 228 325 q 355 83 293 133 q 503 32 417 32 m 342 1025 q 366 1133 342 1104 q 432 1161 390 1161 q 485 1147 463 1161 q 526 1119 507 1133 q 567 1106 546 1106 q 600 1124 588 1106 q 613 1161 613 1143 l 663 1161 q 639 1053 663 1082 q 574 1025 615 1025 q 521 1039 543 1025 q 479 1067 499 1053 q 438 1081 460 1081 q 404 1062 417 1081 q 392 1025 392 1043 l 342 1025 z "},"Œ":{"ha":1322,"x_min":57,"x_max":1290,"o":"m 503 -28 q 267 37 368 -28 q 112 211 167 101 q 57 458 57 321 q 112 706 57 596 q 267 880 167 815 q 503 944 368 944 q 591 937 556 944 q 660 917 626 929 l 1119 917 q 1193 901 1168 917 q 1228 859 1218 885 q 1238 806 1238 833 l 1238 693 l 1203 693 q 1158 818 1203 779 q 1029 857 1113 857 l 790 857 l 790 504 l 1157 504 l 1157 444 l 790 444 l 790 60 l 1031 60 q 1168 94 1114 60 q 1257 215 1222 128 l 1290 204 l 1247 86 q 1208 23 1233 46 q 1132 0 1183 0 l 660 0 q 586 -22 624 -15 q 503 -28 549 -28 m 503 32 q 633 69 576 32 l 633 849 q 503 885 576 885 q 355 834 417 885 q 260 688 293 783 q 228 458 228 593 q 260 229 228 325 q 355 83 293 133 q 503 32 417 32 z "},"P":{"ha":788,"x_min":21,"x_max":758,"o":"m 139 0 l 139 742 q 122 842 139 804 q 42 881 104 881 l 21 881 l 21 917 l 394 917 q 479 912 432 917 q 575 892 526 907 q 665 846 624 876 q 733 765 707 815 q 758 638 758 714 q 733 519 758 567 q 668 442 708 471 q 584 397 628 413 q 501 377 540 382 q 436 372 461 372 l 296 372 l 296 0 l 139 0 m 296 425 l 388 425 q 456 435 421 425 q 520 472 490 446 q 568 540 550 497 q 586 644 586 582 q 568 751 586 708 q 520 818 550 793 q 457 853 490 843 q 392 864 424 864 q 348 861 372 864 q 296 853 324 858 l 296 425 z "},"Þ":{"ha":760,"x_min":25,"x_max":731,"o":"m 142 -42 l 142 800 q 122 891 142 860 q 44 922 103 922 l 25 922 l 25 958 l 175 958 q 274 924 247 958 q 300 800 300 890 l 300 764 q 622 679 513 761 q 731 438 731 597 q 622 195 731 276 q 300 111 513 114 l 300 -42 l 142 -42 m 300 171 q 447 208 390 174 q 531 302 504 243 q 558 438 558 361 q 531 574 558 515 q 446 667 503 632 q 300 703 389 701 l 300 171 z "},"Q":{"ha":1008,"x_min":58,"x_max":953,"o":"m 953 -285 q 747 -259 850 -285 q 549 -172 644 -233 q 368 -7 454 -111 q 203 89 274 22 q 96 251 133 156 q 58 458 58 346 q 113 706 58 596 q 269 880 168 815 q 504 944 369 944 q 740 880 640 944 q 896 706 840 815 q 951 458 951 596 q 913 247 951 343 q 801 83 874 150 q 629 -11 729 17 q 683 -106 647 -61 q 765 -183 719 -150 q 860 -233 811 -215 q 953 -251 910 -251 l 953 -285 m 504 32 q 654 83 593 32 q 748 229 715 133 q 781 458 781 325 q 748 688 781 593 q 654 834 715 783 q 504 885 593 885 q 356 834 418 885 q 262 688 294 783 q 229 458 229 593 q 262 229 229 325 q 356 83 294 133 q 504 32 418 32 z "},"R":{"ha":843,"x_min":21,"x_max":860,"o":"m 768 -14 q 678 6 721 -14 q 595 69 636 25 q 508 188 554 113 l 369 421 l 297 421 l 297 0 l 139 0 l 139 742 q 122 842 139 804 q 42 881 104 881 l 21 881 l 21 917 l 396 917 q 480 912 432 917 q 576 892 528 907 q 667 850 625 878 q 734 778 708 822 q 760 667 760 733 q 726 543 760 590 q 642 470 693 496 q 535 431 590 444 l 681 188 q 777 68 733 99 q 860 32 821 38 l 860 0 q 822 -10 849 -6 q 768 -14 796 -14 m 297 474 l 388 474 q 454 484 419 474 q 519 517 489 494 q 569 576 550 539 q 588 668 588 614 q 569 760 588 722 q 520 820 550 797 q 456 853 490 843 q 389 864 421 864 q 349 861 374 864 q 297 853 324 858 l 297 474 z "},"S":{"ha":764,"x_min":69,"x_max":708,"o":"m 385 -24 q 272 -12 328 -24 q 170 21 217 -1 q 97 74 124 43 q 69 144 69 106 l 69 301 l 103 301 q 193 97 125 158 q 378 36 261 36 q 469 51 429 36 q 533 98 510 67 q 556 174 556 129 q 517 274 556 233 q 410 358 479 315 l 239 460 q 108 571 146 514 q 69 704 69 628 q 150 878 69 814 q 364 942 231 942 q 474 931 419 942 q 573 898 528 919 q 645 846 618 876 q 672 775 672 815 l 672 618 l 639 618 q 549 822 615 761 q 374 882 483 882 q 290 865 328 882 q 232 818 253 849 q 211 744 211 788 q 251 649 211 686 q 360 571 290 611 l 531 469 q 665 363 622 415 q 708 235 708 311 q 623 46 708 115 q 385 -24 538 -24 z "},"Š":{"ha":764,"x_min":69,"x_max":708,"o":"m 385 -24 q 272 -12 328 -24 q 170 21 217 -1 q 97 74 124 43 q 69 144 69 106 l 69 301 l 103 301 q 193 97 125 158 q 378 36 261 36 q 469 51 429 36 q 533 98 510 67 q 556 174 556 129 q 517 274 556 233 q 410 358 479 315 l 239 460 q 108 571 146 514 q 69 704 69 628 q 150 878 69 814 q 364 942 231 942 q 474 931 419 942 q 573 898 528 919 q 645 846 618 876 q 672 775 672 815 l 672 618 l 639 618 q 549 822 615 761 q 374 882 483 882 q 290 865 328 882 q 232 818 253 849 q 211 744 211 788 q 251 649 211 686 q 360 571 290 611 l 531 469 q 665 363 622 415 q 708 235 708 311 q 623 46 708 115 q 385 -24 538 -24 m 279 1001 l 168 1169 l 254 1169 l 364 1058 l 474 1169 l 560 1169 l 449 1001 l 279 1001 z "},"Ş":{"ha":764,"x_min":69,"x_max":708,"o":"m 385 -24 q 272 -12 328 -24 q 170 21 217 -1 q 97 74 124 43 q 69 144 69 106 l 69 301 l 103 301 q 193 97 125 158 q 378 36 261 36 q 469 51 429 36 q 533 98 510 67 q 556 174 556 129 q 517 274 556 233 q 410 358 479 315 l 239 460 q 108 571 146 514 q 69 704 69 628 q 150 878 69 814 q 364 942 231 942 q 474 931 419 942 q 573 898 528 919 q 645 846 618 876 q 672 775 672 815 l 672 618 l 639 618 q 549 822 615 761 q 374 882 483 882 q 290 865 328 882 q 232 818 253 849 q 211 744 211 788 q 251 649 211 686 q 360 571 290 611 l 531 469 q 665 363 622 415 q 708 235 708 311 q 623 46 708 115 q 385 -24 538 -24 m 325 -275 l 325 -214 l 394 -214 q 435 -201 421 -214 q 450 -169 450 -189 q 435 -136 450 -149 q 394 -124 421 -124 l 332 -124 l 332 6 l 411 6 l 411 -64 q 503 -92 471 -64 q 536 -169 536 -119 q 503 -247 536 -218 q 417 -275 471 -275 l 325 -275 z "},"T":{"ha":803,"x_min":25,"x_max":793,"o":"m 336 0 l 336 857 l 226 857 q 105 819 149 857 q 61 693 61 782 l 25 693 l 25 806 q 35 859 25 833 q 70 901 44 885 q 143 917 96 917 l 793 917 l 793 857 l 493 857 l 493 0 l 336 0 z "},"U":{"ha":960,"x_min":24,"x_max":861,"o":"m 499 -14 q 288 32 369 -14 q 169 169 207 78 q 132 399 132 261 l 132 742 q 116 840 132 803 q 42 881 100 878 l 24 881 l 24 917 l 164 917 q 240 901 213 917 q 278 849 267 886 q 289 742 289 811 l 290 357 q 346 128 292 211 q 521 46 400 46 q 681 83 621 46 q 769 199 742 121 q 797 399 797 276 l 797 917 l 861 917 l 861 399 q 828 174 861 265 q 716 34 794 82 q 499 -14 638 -14 z "},"Ú":{"ha":960,"x_min":24,"x_max":861,"o":"m 499 -14 q 288 32 369 -14 q 169 169 207 78 q 132 399 132 261 l 132 742 q 116 840 132 803 q 42 881 100 878 l 24 881 l 24 917 l 164 917 q 240 901 213 917 q 278 849 267 886 q 289 742 289 811 l 290 357 q 346 128 292 211 q 521 46 400 46 q 681 83 621 46 q 769 199 742 121 q 797 399 797 276 l 797 917 l 861 917 l 861 399 q 828 174 861 265 q 716 34 794 82 q 499 -14 638 -14 m 464 944 l 521 1133 l 672 1133 l 532 944 l 464 944 z "},"Û":{"ha":960,"x_min":24,"x_max":861,"o":"m 499 -14 q 288 32 369 -14 q 169 169 207 78 q 132 399 132 261 l 132 742 q 116 840 132 803 q 42 881 100 878 l 24 881 l 24 917 l 164 917 q 240 901 213 917 q 278 849 267 886 q 289 742 289 811 l 290 357 q 346 128 292 211 q 521 46 400 46 q 681 83 621 46 q 769 199 742 121 q 797 399 797 276 l 797 917 l 861 917 l 861 399 q 828 174 861 265 q 716 34 794 82 q 499 -14 638 -14 m 335 940 l 446 1108 l 615 1108 l 726 940 l 649 940 l 531 1051 l 413 940 l 335 940 z "},"Ü":{"ha":960,"x_min":24,"x_max":861,"o":"m 499 -14 q 288 32 369 -14 q 169 169 207 78 q 132 399 132 261 l 132 742 q 116 840 132 803 q 42 881 100 878 l 24 881 l 24 917 l 164 917 q 240 901 213 917 q 278 849 267 886 q 289 742 289 811 l 290 357 q 346 128 292 211 q 521 46 400 46 q 681 83 621 46 q 769 199 742 121 q 797 399 797 276 l 797 917 l 861 917 l 861 399 q 828 174 861 265 q 716 34 794 82 q 499 -14 638 -14 m 647 944 q 596 965 615 944 q 576 1015 576 986 q 596 1067 576 1046 q 647 1088 615 1088 q 699 1067 679 1088 q 719 1015 719 1046 q 699 965 719 986 q 647 944 679 944 m 403 944 q 351 965 371 944 q 332 1015 332 986 q 351 1067 332 1046 q 403 1088 371 1088 q 455 1067 435 1088 q 475 1015 475 1046 q 455 965 475 986 q 403 944 435 944 z "},"Ù":{"ha":960,"x_min":24,"x_max":861,"o":"m 499 -14 q 288 32 369 -14 q 169 169 207 78 q 132 399 132 261 l 132 742 q 116 840 132 803 q 42 881 100 878 l 24 881 l 24 917 l 164 917 q 240 901 213 917 q 278 849 267 886 q 289 742 289 811 l 290 357 q 346 128 292 211 q 521 46 400 46 q 681 83 621 46 q 769 199 742 121 q 797 399 797 276 l 797 917 l 861 917 l 861 399 q 828 174 861 265 q 716 34 794 82 q 499 -14 638 -14 m 510 944 l 369 1133 l 521 1133 l 578 944 l 510 944 z "},"V":{"ha":885,"x_min":-43,"x_max":865,"o":"m 424 -14 l 100 754 q 36 863 67 832 q -43 900 6 894 l -43 928 q -19 929 -37 928 q 10 931 0 931 q 101 919 53 931 q 194 871 149 908 q 272 754 239 833 l 499 218 l 797 917 l 865 917 l 467 -14 l 424 -14 z "},"W":{"ha":1236,"x_min":-50,"x_max":1200,"o":"m 382 -12 l 94 754 q 33 864 64 833 q -50 900 1 894 l -50 928 q -25 929 -44 928 q 4 931 -6 931 q 97 920 49 931 q 190 872 146 910 q 264 754 233 835 l 451 251 l 586 642 l 543 754 q 478 864 513 833 q 394 900 444 894 l 394 928 q 417 929 400 928 q 444 931 435 931 q 539 919 490 931 q 631 872 588 908 q 704 754 675 835 l 899 236 l 1136 917 l 1200 917 l 875 -12 l 831 -12 l 621 547 l 426 -12 l 382 -12 z "},"X":{"ha":910,"x_min":-15,"x_max":935,"o":"m 38 0 l 381 440 l 185 736 q 132 806 163 772 q 65 863 101 840 q -15 889 29 886 l -15 917 l 143 917 q 232 893 193 917 q 302 835 271 869 q 356 764 333 800 l 485 568 l 757 917 l 838 917 l 522 513 l 742 181 q 796 110 765 144 q 863 54 826 76 q 935 28 899 32 l 935 0 l 785 0 q 696 24 736 0 q 624 83 656 47 q 571 153 593 118 l 419 383 l 119 0 l 38 0 z "},"Y":{"ha":881,"x_min":-40,"x_max":871,"o":"m 394 0 l 394 372 l 151 736 q 97 808 126 775 q 33 863 67 840 q -40 889 0 886 l -40 917 l 101 917 q 194 894 153 917 q 266 836 235 871 q 319 764 297 801 l 514 468 l 792 917 l 871 917 l 551 397 l 551 0 l 394 0 z "},"Ý":{"ha":881,"x_min":-40,"x_max":871,"o":"m 394 0 l 394 372 l 151 736 q 97 808 126 775 q 33 863 67 840 q -40 889 0 886 l -40 917 l 101 917 q 194 894 153 917 q 266 836 235 871 q 319 764 297 801 l 514 468 l 792 917 l 871 917 l 551 397 l 551 0 l 394 0 m 440 929 l 497 1118 l 649 1118 l 508 929 l 440 929 z "},"Ÿ":{"ha":881,"x_min":-40,"x_max":871,"o":"m 394 0 l 394 372 l 151 736 q 97 808 126 775 q 33 863 67 840 q -40 889 0 886 l -40 917 l 101 917 q 194 894 153 917 q 266 836 235 871 q 319 764 297 801 l 514 468 l 792 917 l 871 917 l 551 397 l 551 0 l 394 0 m 610 958 q 555 980 575 958 q 535 1033 535 1001 q 555 1086 535 1065 q 610 1107 575 1107 q 664 1086 644 1107 q 683 1033 683 1065 q 663 980 683 1001 q 610 958 643 958 m 374 958 q 319 980 339 958 q 299 1033 299 1001 q 319 1086 299 1065 q 374 1107 339 1107 q 428 1086 408 1107 q 447 1033 447 1065 q 427 980 447 1001 q 374 958 407 958 z "},"Z":{"ha":828,"x_min":39,"x_max":803,"o":"m 39 0 l 39 38 l 581 858 l 265 858 q 144 820 188 858 q 100 693 100 782 l 64 693 l 64 806 q 74 859 64 833 q 109 901 83 885 q 182 917 135 917 l 803 917 l 240 60 l 790 60 l 790 0 l 39 0 z "},"Ž":{"ha":828,"x_min":39,"x_max":803,"o":"m 39 0 l 39 38 l 581 858 l 265 858 q 144 820 188 858 q 100 693 100 782 l 64 693 l 64 806 q 74 859 64 833 q 109 901 83 885 q 182 917 135 917 l 803 917 l 240 60 l 790 60 l 790 0 l 39 0 m 349 988 l 238 1156 l 324 1156 l 433 1044 l 543 1156 l 629 1156 l 518 988 l 349 988 z "},"a":{"ha":681,"x_min":46,"x_max":600,"o":"m 268 -14 q 181 -2 221 -14 q 111 33 142 10 q 63 93 81 57 q 46 176 46 129 q 85 292 46 247 q 205 358 124 336 q 413 379 286 379 l 442 379 q 425 517 442 468 q 377 587 408 567 q 304 607 346 607 q 214 583 253 607 q 160 485 175 558 l 89 485 q 94 556 89 521 q 124 618 99 590 q 208 656 149 646 q 332 667 267 667 q 441 651 392 667 q 526 603 490 636 q 581 513 561 569 q 600 375 600 457 l 600 0 l 501 0 l 453 63 l 446 63 q 382 10 426 35 q 268 -14 338 -14 m 318 53 q 397 81 367 53 q 442 140 426 110 l 442 319 l 413 319 q 261 283 311 319 q 211 176 211 246 q 242 83 211 114 q 318 53 272 53 z "},"á":{"ha":681,"x_min":46,"x_max":600,"o":"m 268 -14 q 181 -2 221 -14 q 111 33 142 10 q 63 93 81 57 q 46 176 46 129 q 85 292 46 247 q 205 358 124 336 q 413 379 286 379 l 442 379 q 425 517 442 468 q 377 587 408 567 q 304 607 346 607 q 214 583 253 607 q 160 485 175 558 l 89 485 q 94 556 89 521 q 124 618 99 590 q 208 656 149 646 q 332 667 267 667 q 441 651 392 667 q 526 603 490 636 q 581 513 561 569 q 600 375 600 457 l 600 0 l 501 0 l 453 63 l 446 63 q 382 10 426 35 q 268 -14 338 -14 m 318 53 q 397 81 367 53 q 442 140 426 110 l 442 319 l 413 319 q 261 283 311 319 q 211 176 211 246 q 242 83 211 114 q 318 53 272 53 m 279 729 l 336 918 l 488 918 l 347 729 l 279 729 z "},"â":{"ha":681,"x_min":46,"x_max":600,"o":"m 268 -14 q 181 -2 221 -14 q 111 33 142 10 q 63 93 81 57 q 46 176 46 129 q 85 292 46 247 q 205 358 124 336 q 413 379 286 379 l 442 379 q 425 517 442 468 q 377 587 408 567 q 304 607 346 607 q 214 583 253 607 q 160 485 175 558 l 89 485 q 94 556 89 521 q 124 618 99 590 q 208 656 149 646 q 332 667 267 667 q 441 651 392 667 q 526 603 490 636 q 581 513 561 569 q 600 375 600 457 l 600 0 l 501 0 l 453 63 l 446 63 q 382 10 426 35 q 268 -14 338 -14 m 318 53 q 397 81 367 53 q 442 140 426 110 l 442 319 l 413 319 q 261 283 311 319 q 211 176 211 246 q 242 83 211 114 q 318 53 272 53 m 146 736 l 257 904 l 426 904 l 538 736 l 460 736 l 342 847 l 224 736 l 146 736 z "},"ä":{"ha":681,"x_min":46,"x_max":600,"o":"m 268 -14 q 181 -2 221 -14 q 111 33 142 10 q 63 93 81 57 q 46 176 46 129 q 85 292 46 247 q 205 358 124 336 q 413 379 286 379 l 442 379 q 425 517 442 468 q 377 587 408 567 q 304 607 346 607 q 214 583 253 607 q 160 485 175 558 l 89 485 q 94 556 89 521 q 124 618 99 590 q 208 656 149 646 q 332 667 267 667 q 441 651 392 667 q 526 603 490 636 q 581 513 561 569 q 600 375 600 457 l 600 0 l 501 0 l 453 63 l 446 63 q 382 10 426 35 q 268 -14 338 -14 m 318 53 q 397 81 367 53 q 442 140 426 110 l 442 319 l 413 319 q 261 283 311 319 q 211 176 211 246 q 242 83 211 114 q 318 53 272 53 m 463 743 q 411 764 431 743 q 392 814 392 785 q 411 865 392 844 q 463 886 431 886 q 515 865 494 886 q 535 814 535 844 q 515 764 535 785 q 463 743 494 743 m 218 743 q 167 764 186 743 q 147 814 147 785 q 167 865 147 844 q 218 886 186 886 q 270 865 250 886 q 290 814 290 844 q 270 764 290 785 q 218 743 250 743 z "},"à":{"ha":681,"x_min":46,"x_max":600,"o":"m 268 -14 q 181 -2 221 -14 q 111 33 142 10 q 63 93 81 57 q 46 176 46 129 q 85 292 46 247 q 205 358 124 336 q 413 379 286 379 l 442 379 q 425 517 442 468 q 377 587 408 567 q 304 607 346 607 q 214 583 253 607 q 160 485 175 558 l 89 485 q 94 556 89 521 q 124 618 99 590 q 208 656 149 646 q 332 667 267 667 q 441 651 392 667 q 526 603 490 636 q 581 513 561 569 q 600 375 600 457 l 600 0 l 501 0 l 453 63 l 446 63 q 382 10 426 35 q 268 -14 338 -14 m 318 53 q 397 81 367 53 q 442 140 426 110 l 442 319 l 413 319 q 261 283 311 319 q 211 176 211 246 q 242 83 211 114 q 318 53 272 53 m 306 729 l 165 918 l 317 918 l 374 729 l 306 729 z "},"å":{"ha":681,"x_min":46,"x_max":600,"o":"m 268 -14 q 181 -2 221 -14 q 111 33 142 10 q 63 93 81 57 q 46 176 46 129 q 85 292 46 247 q 205 358 124 336 q 413 379 286 379 l 442 379 q 425 517 442 468 q 377 587 408 567 q 304 607 346 607 q 214 583 253 607 q 160 485 175 558 l 89 485 q 94 556 89 521 q 124 618 99 590 q 208 656 149 646 q 332 667 267 667 q 441 651 392 667 q 526 603 490 636 q 581 513 561 569 q 600 375 600 457 l 600 0 l 501 0 l 453 63 l 446 63 q 382 10 426 35 q 268 -14 338 -14 m 318 53 q 397 81 367 53 q 442 140 426 110 l 442 319 l 413 319 q 261 283 311 319 q 211 176 211 246 q 242 83 211 114 q 318 53 272 53 m 333 728 q 243 764 279 728 q 207 854 207 800 q 243 944 207 908 q 333 981 279 981 q 423 944 386 981 q 460 854 460 908 q 423 764 460 800 q 333 728 386 728 m 333 785 q 378 803 360 785 q 396 854 396 822 q 378 905 396 886 q 333 924 360 924 q 289 905 307 924 q 271 854 271 886 q 289 803 271 822 q 333 785 307 785 z "},"ã":{"ha":681,"x_min":46,"x_max":600,"o":"m 268 -14 q 181 -2 221 -14 q 111 33 142 10 q 63 93 81 57 q 46 176 46 129 q 85 292 46 247 q 205 358 124 336 q 413 379 286 379 l 442 379 q 425 517 442 468 q 377 587 408 567 q 304 607 346 607 q 214 583 253 607 q 160 485 175 558 l 89 485 q 94 556 89 521 q 124 618 99 590 q 208 656 149 646 q 332 667 267 667 q 441 651 392 667 q 526 603 490 636 q 581 513 561 569 q 600 375 600 457 l 600 0 l 501 0 l 453 63 l 446 63 q 382 10 426 35 q 268 -14 338 -14 m 318 53 q 397 81 367 53 q 442 140 426 110 l 442 319 l 413 319 q 261 283 311 319 q 211 176 211 246 q 242 83 211 114 q 318 53 272 53 m 175 743 q 199 851 175 822 q 265 879 224 879 q 318 865 296 879 q 360 838 340 851 q 400 824 379 824 q 433 842 421 824 q 446 879 446 861 l 496 879 q 472 772 496 800 q 407 743 449 743 q 354 757 376 743 q 313 785 332 771 q 271 799 293 799 q 238 780 250 799 q 225 743 225 761 l 175 743 z "},"æ":{"ha":1083,"x_min":46,"x_max":1032,"o":"m 283 -14 q 161 7 215 -14 q 76 69 107 28 q 46 169 46 110 q 85 277 46 235 q 207 341 125 319 q 415 363 289 363 l 444 363 q 427 509 444 456 q 378 585 410 563 q 303 607 347 607 q 213 583 251 607 q 158 485 175 558 l 88 485 q 110 600 88 561 q 184 653 133 639 q 315 667 235 667 q 454 632 397 667 q 538 540 511 597 q 625 633 571 600 q 746 667 679 667 q 897 632 832 667 q 997 532 961 597 q 1032 378 1032 467 l 1028 303 l 611 303 q 657 110 613 174 q 778 46 701 46 q 894 77 849 46 q 975 160 939 108 l 1011 132 q 953 59 988 92 q 869 6 918 26 q 754 -14 821 -14 q 518 108 597 -14 q 435 22 492 57 q 283 -14 379 -14 m 317 53 q 399 82 369 53 q 444 140 428 111 l 444 303 l 415 303 q 295 287 340 303 q 230 240 250 271 q 210 169 210 210 q 240 85 210 117 q 317 53 271 53 m 611 363 l 869 363 q 835 544 869 485 q 740 604 801 604 q 676 576 706 604 q 629 495 647 549 q 611 363 611 442 z "},"b":{"ha":746,"x_min":-26,"x_max":689,"o":"m 415 -14 q 305 10 347 -14 q 244 63 263 35 l 238 63 l 189 0 l 90 0 l 90 742 q 73 842 90 804 q -7 881 56 881 l -26 881 l -26 917 l 124 917 q 199 901 172 917 q 238 849 226 886 q 249 742 249 811 l 249 625 q 315 653 276 640 q 406 667 353 667 q 565 622 501 667 q 658 499 628 576 q 689 326 689 422 q 658 154 689 232 q 567 31 628 76 q 415 -14 507 -14 m 382 46 q 465 83 433 46 q 510 183 496 119 q 525 326 525 247 q 510 470 525 407 q 461 570 494 533 q 372 607 428 607 q 303 593 335 607 q 249 565 272 579 l 249 133 q 299 73 265 100 q 382 46 332 46 z "},"c":{"ha":682,"x_min":56,"x_max":642,"o":"m 376 -14 q 198 33 269 -14 q 91 157 126 79 q 56 326 56 235 q 91 497 56 419 q 198 620 126 574 q 376 667 269 667 q 507 656 454 667 q 586 618 560 644 q 617 550 613 592 q 621 429 621 508 l 585 429 q 530 563 579 518 q 401 607 481 607 q 303 574 343 607 q 241 478 263 540 q 219 326 219 415 q 240 177 219 240 q 301 80 261 114 q 404 46 342 46 q 523 77 478 46 q 604 160 568 108 l 642 132 q 583 59 618 92 q 497 6 547 26 q 376 -14 447 -14 z "},"ç":{"ha":682,"x_min":56,"x_max":642,"o":"m 376 -14 q 198 33 269 -14 q 91 157 126 79 q 56 326 56 235 q 91 497 56 419 q 198 620 126 574 q 376 667 269 667 q 507 656 454 667 q 586 618 560 644 q 617 550 613 592 q 621 429 621 508 l 585 429 q 530 563 579 518 q 401 607 481 607 q 303 574 343 607 q 241 478 263 540 q 219 326 219 415 q 240 177 219 240 q 301 80 261 114 q 404 46 342 46 q 523 77 478 46 q 604 160 568 108 l 642 132 q 583 59 618 92 q 497 6 547 26 q 376 -14 447 -14 m 318 -265 l 318 -204 l 388 -204 q 428 -192 414 -204 q 443 -160 443 -179 q 428 -126 443 -139 q 388 -114 414 -114 l 325 -114 l 325 15 l 404 15 l 404 -54 q 497 -82 464 -54 q 529 -160 529 -110 q 497 -237 529 -208 q 410 -265 464 -265 l 318 -265 z "},"d":{"ha":747,"x_min":57,"x_max":657,"o":"m 332 -14 q 179 31 240 -14 q 88 154 118 76 q 57 326 57 232 q 88 499 57 422 q 183 622 119 576 q 342 667 246 667 q 432 653 393 667 q 499 625 471 640 l 499 742 q 481 842 499 804 q 401 881 464 881 l 382 881 l 382 917 l 532 917 q 608 901 581 917 q 646 849 635 886 q 657 742 657 811 l 657 0 l 558 0 l 510 63 l 503 63 q 442 10 483 35 q 332 -14 401 -14 m 365 46 q 428 60 403 46 q 471 94 454 74 q 499 133 488 115 l 499 565 q 442 594 474 581 q 375 607 410 607 q 285 570 319 607 q 237 470 251 533 q 222 326 222 407 q 236 183 222 247 q 282 83 250 119 q 365 46 314 46 z "},"ð":{"ha":763,"x_min":54,"x_max":699,"o":"m 376 -14 q 199 32 271 -14 q 91 156 128 78 q 54 326 54 233 q 91 498 54 421 q 198 621 128 575 q 368 667 268 667 q 481 638 432 667 q 557 556 531 608 q 519 681 542 628 q 463 774 497 733 l 401 713 l 351 763 l 414 824 q 347 863 383 853 q 265 874 310 874 q 226 869 244 874 q 197 863 207 865 l 181 900 q 240 924 207 917 q 304 931 274 931 q 399 917 357 931 q 475 878 440 903 l 531 939 l 581 890 l 525 836 q 650 648 601 765 q 699 375 699 531 q 617 92 699 199 q 376 -14 535 -14 m 376 46 q 456 79 421 46 q 513 176 492 113 q 533 326 533 239 q 516 463 533 399 q 464 567 499 526 q 376 607 429 607 q 290 567 325 607 q 237 463 254 526 q 219 326 219 399 q 240 176 219 239 q 297 79 261 113 q 376 46 332 46 z "},"e":{"ha":694,"x_min":56,"x_max":644,"o":"m 364 -14 q 198 31 267 -14 q 92 153 129 76 q 56 326 56 231 q 93 507 56 431 q 197 625 131 583 q 350 667 264 667 q 506 632 440 667 q 608 532 572 597 q 644 378 644 467 l 640 303 l 221 303 q 266 110 221 175 q 388 46 311 46 q 503 77 458 46 q 585 160 549 108 l 621 132 q 563 59 597 92 q 479 6 528 26 q 364 -14 431 -14 m 221 363 l 479 363 q 445 550 479 493 q 350 607 411 607 q 286 581 315 607 q 239 500 257 554 q 221 363 221 446 z "},"é":{"ha":694,"x_min":56,"x_max":644,"o":"m 364 -14 q 198 31 267 -14 q 92 153 129 76 q 56 326 56 231 q 93 507 56 431 q 197 625 131 583 q 350 667 264 667 q 506 632 440 667 q 608 532 572 597 q 644 378 644 467 l 640 303 l 221 303 q 266 110 221 175 q 388 46 311 46 q 503 77 458 46 q 585 160 549 108 l 621 132 q 563 59 597 92 q 479 6 528 26 q 364 -14 431 -14 m 221 363 l 479 363 q 445 550 479 493 q 350 607 411 607 q 286 581 315 607 q 239 500 257 554 q 221 363 221 446 m 304 728 l 361 917 l 513 917 l 372 728 l 304 728 z "},"ê":{"ha":694,"x_min":56,"x_max":644,"o":"m 364 -14 q 198 31 267 -14 q 92 153 129 76 q 56 326 56 231 q 93 507 56 431 q 197 625 131 583 q 350 667 264 667 q 506 632 440 667 q 608 532 572 597 q 644 378 644 467 l 640 303 l 221 303 q 266 110 221 175 q 388 46 311 46 q 503 77 458 46 q 585 160 549 108 l 621 132 q 563 59 597 92 q 479 6 528 26 q 364 -14 431 -14 m 221 363 l 479 363 q 445 550 479 493 q 350 607 411 607 q 286 581 315 607 q 239 500 257 554 q 221 363 221 446 m 157 736 l 268 904 l 438 904 l 549 736 l 471 736 l 353 847 l 235 736 l 157 736 z "},"ë":{"ha":694,"x_min":56,"x_max":644,"o":"m 364 -14 q 198 31 267 -14 q 92 153 129 76 q 56 326 56 231 q 93 507 56 431 q 197 625 131 583 q 350 667 264 667 q 506 632 440 667 q 608 532 572 597 q 644 378 644 467 l 640 303 l 221 303 q 266 110 221 175 q 388 46 311 46 q 503 77 458 46 q 585 160 549 108 l 621 132 q 563 59 597 92 q 479 6 528 26 q 364 -14 431 -14 m 221 363 l 479 363 q 445 550 479 493 q 350 607 411 607 q 286 581 315 607 q 239 500 257 554 q 221 363 221 446 m 465 749 q 414 769 433 749 q 394 819 394 790 q 414 871 394 850 q 465 892 433 892 q 517 871 497 892 q 538 819 538 850 q 517 769 538 790 q 465 749 497 749 m 221 749 q 169 769 189 749 q 150 819 150 790 q 169 871 150 850 q 221 892 189 892 q 273 871 253 892 q 293 819 293 850 q 273 769 293 790 q 221 749 253 749 z "},"è":{"ha":694,"x_min":56,"x_max":644,"o":"m 364 -14 q 198 31 267 -14 q 92 153 129 76 q 56 326 56 231 q 93 507 56 431 q 197 625 131 583 q 350 667 264 667 q 506 632 440 667 q 608 532 572 597 q 644 378 644 467 l 640 303 l 221 303 q 266 110 221 175 q 388 46 311 46 q 503 77 458 46 q 585 160 549 108 l 621 132 q 563 59 597 92 q 479 6 528 26 q 364 -14 431 -14 m 221 363 l 479 363 q 445 550 479 493 q 350 607 411 607 q 286 581 315 607 q 239 500 257 554 q 221 363 221 446 m 324 729 l 183 918 l 335 918 l 392 729 l 324 729 z "},"f":{"ha":472,"x_min":22,"x_max":544,"o":"m 111 0 l 111 593 l 22 593 l 22 653 l 111 653 l 111 692 q 143 831 111 779 q 234 907 175 883 q 371 931 293 931 q 443 925 410 931 q 493 908 476 919 q 522 882 510 897 q 544 847 535 867 l 496 804 q 443 853 475 836 q 371 871 411 871 q 296 833 324 871 q 268 692 268 794 l 268 653 l 454 653 l 454 593 l 268 593 l 268 0 l 111 0 z "},"g":{"ha":708,"x_min":26,"x_max":678,"o":"m 353 -278 q 185 -258 260 -278 q 69 -190 111 -237 q 26 -62 26 -143 q 51 22 26 -14 q 116 81 76 57 q 200 118 156 106 q 158 147 175 128 q 140 197 140 165 q 155 242 140 225 q 193 269 169 258 q 105 339 142 290 q 68 453 68 388 q 106 580 68 533 q 209 647 144 626 q 353 667 274 667 l 629 667 l 629 631 l 519 615 q 603 548 569 592 q 636 453 636 504 q 600 327 636 374 q 500 261 564 281 q 353 242 436 242 q 249 233 286 242 q 211 197 211 224 q 249 165 211 174 q 353 156 286 156 q 516 131 442 154 q 634 60 590 107 q 678 -62 678 13 q 635 -190 678 -143 q 519 -258 593 -237 q 353 -278 444 -278 m 353 -218 q 472 -181 426 -218 q 517 -62 517 -143 q 476 43 517 3 q 364 94 436 83 l 294 101 q 217 43 246 82 q 188 -62 188 4 q 233 -181 188 -143 q 353 -218 279 -218 m 353 294 q 440 331 404 294 q 475 453 475 367 q 440 574 475 535 q 353 614 406 614 q 265 577 300 614 q 229 453 229 540 q 265 331 229 367 q 353 294 300 294 z "},"ğ":{"ha":708,"x_min":26,"x_max":678,"o":"m 353 -278 q 185 -258 260 -278 q 69 -190 111 -237 q 26 -62 26 -143 q 51 22 26 -14 q 116 81 76 57 q 200 118 156 106 q 158 147 175 128 q 140 197 140 165 q 155 242 140 225 q 193 269 169 258 q 105 339 142 290 q 68 453 68 388 q 106 580 68 533 q 209 647 144 626 q 353 667 274 667 l 629 667 l 629 631 l 519 615 q 603 548 569 592 q 636 453 636 504 q 600 327 636 374 q 500 261 564 281 q 353 242 436 242 q 249 233 286 242 q 211 197 211 224 q 249 165 211 174 q 353 156 286 156 q 516 131 442 154 q 634 60 590 107 q 678 -62 678 13 q 635 -190 678 -143 q 519 -258 593 -237 q 353 -278 444 -278 m 353 -218 q 472 -181 426 -218 q 517 -62 517 -143 q 476 43 517 3 q 364 94 436 83 l 294 101 q 217 43 246 82 q 188 -62 188 4 q 233 -181 188 -143 q 353 -218 279 -218 m 353 294 q 440 331 404 294 q 475 453 475 367 q 440 574 475 535 q 353 614 406 614 q 265 577 300 614 q 229 453 229 540 q 265 331 229 367 q 353 294 300 294 m 340 738 q 225 772 272 738 q 151 865 178 807 l 186 892 q 244 845 207 865 q 340 825 282 825 q 437 845 399 825 q 496 892 475 865 l 531 865 q 456 772 504 807 q 340 738 408 738 z "},"h":{"ha":747,"x_min":-26,"x_max":665,"o":"m 90 0 l 90 742 q 73 842 90 804 q -7 881 56 881 l -26 881 l -26 917 l 124 917 q 199 901 172 917 q 238 849 226 886 q 249 742 249 811 l 249 607 q 315 648 272 629 q 413 667 358 667 q 503 656 458 667 q 584 617 547 644 q 643 540 621 589 q 665 414 665 490 l 665 0 l 507 0 l 507 410 q 488 522 507 481 q 437 582 468 564 q 371 600 406 600 q 300 581 332 600 q 249 542 268 561 l 249 0 l 90 0 z "},"i":{"ha":358,"x_min":-3,"x_max":272,"o":"m 114 0 l 114 478 q 97 578 114 540 q 17 617 79 617 l -3 617 l -3 653 l 147 653 q 223 638 196 653 q 261 585 250 622 q 272 478 272 547 l 272 0 l 114 0 m 189 731 q 120 760 144 731 q 96 831 96 790 q 116 882 96 863 q 167 901 136 901 q 236 872 211 901 q 261 803 261 842 q 240 750 261 769 q 189 731 219 731 z "},"ı":{"ha":358,"x_min":-3,"x_max":272,"o":"m 114 0 l 114 478 q 97 578 114 540 q 17 617 79 617 l -3 617 l -3 653 l 147 653 q 223 638 196 653 q 261 585 250 622 q 272 478 272 547 l 272 0 l 114 0 z "},"í":{"ha":358,"x_min":-3,"x_max":343,"o":"m 114 0 l 114 478 q 97 578 114 540 q 17 617 79 617 l -3 617 l -3 653 l 147 653 q 223 638 196 653 q 261 585 250 622 q 272 478 272 547 l 272 0 l 114 0 m 135 729 l 192 918 l 343 918 l 203 729 l 135 729 z "},"î":{"ha":358,"x_min":-15,"x_max":376,"o":"m 114 0 l 114 478 q 97 578 114 540 q 17 617 79 617 l -3 617 l -3 653 l 147 653 q 223 638 196 653 q 261 585 250 622 q 272 478 272 547 l 272 0 l 114 0 m -15 738 l 96 906 l 265 906 l 376 738 l 299 738 l 181 849 l 63 738 l -15 738 z "},"ï":{"ha":358,"x_min":-19,"x_max":385,"o":"m 114 0 l 114 478 q 97 578 114 540 q 17 617 79 617 l -3 617 l -3 653 l 147 653 q 223 638 196 653 q 261 585 250 622 q 272 478 272 547 l 272 0 l 114 0 m 74 744 q 5 774 29 744 q -19 844 -19 804 q 1 896 -19 876 q 51 915 21 915 q 120 885 96 915 q 144 817 144 856 q 124 764 144 783 q 74 744 104 744 m 313 744 q 244 774 269 744 q 219 844 219 804 q 240 896 219 876 q 292 915 260 915 q 360 885 335 915 q 385 817 385 856 q 365 764 385 783 q 313 744 344 744 z "},"ì":{"ha":358,"x_min":-3,"x_max":272,"o":"m 114 0 l 114 478 q 97 578 114 540 q 17 617 79 617 l -3 617 l -3 653 l 147 653 q 223 638 196 653 q 261 585 250 622 q 272 478 272 547 l 272 0 l 114 0 m 161 729 l 21 918 l 172 918 l 229 729 l 161 729 z "},"j":{"ha":358,"x_min":-12,"x_max":272,"o":"m -12 -264 l -12 -232 q 60 -199 32 -228 q 101 -112 88 -169 q 114 35 114 -56 l 114 478 q 97 578 114 540 q 17 617 79 617 l -3 617 l -3 653 l 147 653 q 223 638 196 653 q 261 585 250 622 q 272 478 272 547 l 272 35 q 247 -141 272 -75 q 159 -235 221 -207 q -12 -264 97 -264 m 189 731 q 120 760 144 731 q 96 831 96 790 q 116 882 96 863 q 167 901 136 901 q 236 872 211 901 q 261 803 261 842 q 240 750 261 769 q 189 731 219 731 z "},"k":{"ha":690,"x_min":-26,"x_max":685,"o":"m 600 -14 q 492 10 543 -14 q 394 97 442 35 l 249 292 l 249 0 l 90 0 l 90 742 q 73 842 90 804 q -7 881 56 881 l -26 881 l -26 917 l 124 917 q 199 901 172 917 q 238 849 226 886 q 249 742 249 811 l 249 340 l 418 553 q 498 626 457 600 q 610 653 539 653 l 644 653 l 644 617 q 570 601 604 617 q 508 550 536 585 l 365 374 l 546 139 q 617 63 583 89 q 685 31 650 38 l 685 0 q 649 -10 674 -6 q 600 -14 624 -14 z "},"l":{"ha":349,"x_min":-21,"x_max":254,"o":"m 96 0 l 96 742 q 78 842 96 804 q -1 881 61 881 l -21 881 l -21 917 l 129 917 q 205 901 178 917 q 243 849 232 886 q 254 742 254 811 l 254 0 l 96 0 z "},"m":{"ha":1124,"x_min":-1,"x_max":1039,"o":"m 115 0 l 115 478 q 98 578 115 540 q 18 617 81 617 l -1 617 l -1 653 l 132 653 q 207 640 178 653 q 250 599 236 626 l 256 599 q 326 644 281 622 q 433 667 371 667 q 515 655 479 667 q 576 623 550 643 q 614 581 601 603 q 695 642 646 618 q 817 667 744 667 q 933 642 883 667 q 1011 563 983 618 q 1039 414 1039 508 l 1039 0 l 882 0 l 882 414 q 851 558 882 517 q 771 600 819 600 q 694 579 731 600 q 640 532 658 558 q 652 480 649 514 q 656 414 656 446 l 656 0 l 499 0 l 499 414 q 467 558 499 517 q 388 600 436 600 q 324 583 354 600 q 272 543 293 565 l 272 0 l 115 0 z "},"n":{"ha":781,"x_min":-1,"x_max":697,"o":"m 115 0 l 115 478 q 98 578 115 540 q 18 617 81 617 l -1 617 l -1 653 l 132 653 q 208 640 181 653 q 249 600 235 626 q 322 645 275 624 q 446 667 369 667 q 578 642 521 667 q 666 563 635 618 q 697 414 697 508 l 697 0 l 540 0 l 540 414 q 521 524 540 483 q 470 582 501 564 q 400 600 439 600 q 328 585 360 600 q 272 550 296 571 l 272 0 l 115 0 z "},"ñ":{"ha":781,"x_min":-1,"x_max":697,"o":"m 115 0 l 115 478 q 98 578 115 540 q 18 617 81 617 l -1 617 l -1 653 l 132 653 q 208 640 181 653 q 249 600 235 626 q 322 645 275 624 q 446 667 369 667 q 578 642 521 667 q 666 563 635 618 q 697 414 697 508 l 697 0 l 540 0 l 540 414 q 521 524 540 483 q 470 582 501 564 q 400 600 439 600 q 328 585 360 600 q 272 550 296 571 l 272 0 l 115 0 m 242 756 q 266 863 242 835 q 332 892 290 892 q 385 878 363 892 q 426 850 407 864 q 467 836 446 836 q 500 855 488 836 q 513 892 513 874 l 563 892 q 539 784 563 813 q 474 756 515 756 q 421 769 443 756 q 379 797 399 783 q 338 811 360 811 q 304 792 317 811 q 292 756 292 774 l 242 756 z "},"o":{"ha":754,"x_min":56,"x_max":699,"o":"m 376 -14 q 204 31 276 -14 q 94 154 132 76 q 56 326 56 232 q 94 499 56 422 q 204 622 132 576 q 376 667 276 667 q 550 622 478 667 q 660 499 622 576 q 699 326 699 422 q 660 154 699 232 q 550 31 622 76 q 376 -14 478 -14 m 376 46 q 463 83 428 46 q 516 183 497 119 q 535 326 535 247 q 516 470 535 407 q 463 570 497 533 q 376 607 428 607 q 292 570 328 607 q 238 470 257 533 q 219 326 219 407 q 238 183 219 247 q 292 83 257 119 q 376 46 328 46 z "},"ó":{"ha":754,"x_min":56,"x_max":699,"o":"m 376 -14 q 204 31 276 -14 q 94 154 132 76 q 56 326 56 232 q 94 499 56 422 q 204 622 132 576 q 376 667 276 667 q 550 622 478 667 q 660 499 622 576 q 699 326 699 422 q 660 154 699 232 q 550 31 622 76 q 376 -14 478 -14 m 376 46 q 463 83 428 46 q 516 183 497 119 q 535 326 535 247 q 516 470 535 407 q 463 570 497 533 q 376 607 428 607 q 292 570 328 607 q 238 470 257 533 q 219 326 219 407 q 238 183 219 247 q 292 83 257 119 q 376 46 328 46 m 324 728 l 381 917 l 532 917 l 392 728 l 324 728 z "},"ô":{"ha":754,"x_min":56,"x_max":699,"o":"m 376 -14 q 204 31 276 -14 q 94 154 132 76 q 56 326 56 232 q 94 499 56 422 q 204 622 132 576 q 376 667 276 667 q 550 622 478 667 q 660 499 622 576 q 699 326 699 422 q 660 154 699 232 q 550 31 622 76 q 376 -14 478 -14 m 376 46 q 463 83 428 46 q 516 183 497 119 q 535 326 535 247 q 516 470 535 407 q 463 570 497 533 q 376 607 428 607 q 292 570 328 607 q 238 470 257 533 q 219 326 219 407 q 238 183 219 247 q 292 83 257 119 q 376 46 328 46 m 182 728 l 293 896 l 463 896 l 574 728 l 496 728 l 378 839 l 260 728 l 182 728 z "},"ö":{"ha":754,"x_min":56,"x_max":699,"o":"m 376 -14 q 204 31 276 -14 q 94 154 132 76 q 56 326 56 232 q 94 499 56 422 q 204 622 132 576 q 376 667 276 667 q 550 622 478 667 q 660 499 622 576 q 699 326 699 422 q 660 154 699 232 q 550 31 622 76 q 376 -14 478 -14 m 376 46 q 463 83 428 46 q 516 183 497 119 q 535 326 535 247 q 516 470 535 407 q 463 570 497 533 q 376 607 428 607 q 292 570 328 607 q 238 470 257 533 q 219 326 219 407 q 238 183 219 247 q 292 83 257 119 q 376 46 328 46 m 499 743 q 447 764 467 743 q 428 814 428 785 q 447 865 428 844 q 499 886 467 886 q 551 865 531 886 q 571 814 571 844 q 551 764 571 785 q 499 743 531 743 m 254 743 q 203 764 222 743 q 183 814 183 785 q 203 865 183 844 q 254 886 222 886 q 306 865 286 886 q 326 814 326 844 q 306 764 326 785 q 254 743 286 743 z "},"ò":{"ha":754,"x_min":56,"x_max":699,"o":"m 376 -14 q 204 31 276 -14 q 94 154 132 76 q 56 326 56 232 q 94 499 56 422 q 204 622 132 576 q 376 667 276 667 q 550 622 478 667 q 660 499 622 576 q 699 326 699 422 q 660 154 699 232 q 550 31 622 76 q 376 -14 478 -14 m 376 46 q 463 83 428 46 q 516 183 497 119 q 535 326 535 247 q 516 470 535 407 q 463 570 497 533 q 376 607 428 607 q 292 570 328 607 q 238 470 257 533 q 219 326 219 407 q 238 183 219 247 q 292 83 257 119 q 376 46 328 46 m 357 729 l 217 918 l 368 918 l 425 729 l 357 729 z "},"ø":{"ha":754,"x_min":56,"x_max":699,"o":"m 376 -14 q 291 -3 331 -14 q 217 25 251 7 l 200 0 l 83 0 l 142 82 q 56 326 56 178 q 94 499 56 422 q 204 622 132 576 q 376 667 276 667 q 463 656 422 667 q 536 628 503 646 l 554 653 l 671 653 l 611 569 q 676 461 654 524 q 699 326 699 399 q 660 154 699 232 q 550 31 622 76 q 376 -14 478 -14 m 376 46 q 463 83 428 46 q 516 183 497 119 q 535 326 535 247 q 521 444 535 392 l 275 104 q 376 46 314 46 m 233 207 l 479 549 q 434 592 460 576 q 376 607 408 607 q 292 570 328 607 q 238 470 257 533 q 219 326 219 407 q 223 264 219 293 q 233 207 226 235 z "},"õ":{"ha":754,"x_min":56,"x_max":699,"o":"m 376 -14 q 204 31 276 -14 q 94 154 132 76 q 56 326 56 232 q 94 499 56 422 q 204 622 132 576 q 376 667 276 667 q 550 622 478 667 q 660 499 622 576 q 699 326 699 422 q 660 154 699 232 q 550 31 622 76 q 376 -14 478 -14 m 376 46 q 463 83 428 46 q 516 183 497 119 q 535 326 535 247 q 516 470 535 407 q 463 570 497 533 q 376 607 428 607 q 292 570 328 607 q 238 470 257 533 q 219 326 219 407 q 238 183 219 247 q 292 83 257 119 q 376 46 328 46 m 217 743 q 241 851 217 822 q 307 879 265 879 q 360 865 338 879 q 401 838 382 851 q 442 824 421 824 q 475 842 463 824 q 488 879 488 861 l 538 879 q 514 772 538 800 q 449 743 490 743 q 396 757 418 743 q 354 785 374 771 q 313 799 335 799 q 279 780 292 799 q 267 743 267 761 l 217 743 z "},"œ":{"ha":1176,"x_min":56,"x_max":1122,"o":"m 376 -14 q 204 31 276 -14 q 94 154 132 76 q 56 326 56 232 q 94 499 56 422 q 204 622 132 576 q 376 667 276 667 q 550 622 478 667 q 660 499 622 576 q 699 326 699 422 q 660 154 699 232 q 550 31 622 76 q 376 -14 478 -14 m 376 46 q 463 83 428 46 q 516 183 497 119 q 535 326 535 247 q 516 470 535 407 q 463 570 497 533 q 376 607 428 607 q 292 570 328 607 q 238 470 257 533 q 219 326 219 407 q 238 183 219 247 q 292 83 257 119 q 376 46 328 46 m 842 -14 q 676 31 744 -14 q 570 153 607 76 q 533 326 533 231 q 571 507 533 431 q 675 625 608 583 q 828 667 742 667 q 984 632 918 667 q 1086 532 1050 597 q 1122 378 1122 467 l 1118 303 l 699 303 q 744 110 699 175 q 865 46 789 46 q 981 77 936 46 q 1063 160 1026 108 l 1099 132 q 1040 59 1075 92 q 957 6 1006 26 q 842 -14 908 -14 m 699 363 l 957 363 q 923 550 957 493 q 828 607 889 607 q 764 581 793 607 q 717 500 735 554 q 699 363 699 446 z "},"p":{"ha":771,"x_min":-1,"x_max":714,"o":"m 115 -264 l 115 478 q 98 578 115 540 q 18 617 81 617 l -1 617 l -1 653 l 132 653 q 208 639 181 653 q 249 593 235 625 q 322 642 275 617 q 440 667 368 667 q 592 622 532 667 q 683 499 653 576 q 714 326 714 422 q 683 154 714 232 q 590 31 653 76 q 431 -14 526 -14 q 339 -1 379 -14 q 272 28 299 13 l 272 -264 l 115 -264 m 397 46 q 486 83 453 46 q 535 183 519 119 q 550 326 550 247 q 535 470 550 407 q 490 570 521 533 q 407 607 458 607 q 324 588 356 607 q 272 544 292 568 l 272 88 q 329 60 296 74 q 397 46 363 46 z "},"þ":{"ha":742,"x_min":-24,"x_max":685,"o":"m 90 -264 l 90 742 q 73 842 90 804 q -7 881 56 881 l -24 881 l -24 917 l 124 917 q 199 901 172 917 q 238 849 226 886 q 249 742 249 811 l 249 607 q 311 648 271 629 q 418 667 351 667 q 567 622 508 667 q 656 501 626 578 q 685 326 685 425 q 655 152 685 229 q 563 31 625 75 q 404 -14 501 -14 q 316 -3 354 -14 q 249 19 278 7 l 249 -264 l 90 -264 m 358 46 q 449 81 414 46 q 502 180 485 117 q 519 326 519 243 q 503 474 519 411 q 453 572 486 536 q 372 607 419 607 q 298 590 328 607 q 249 549 268 572 l 249 75 q 305 54 276 63 q 358 46 333 46 z "},"q":{"ha":747,"x_min":57,"x_max":657,"o":"m 499 -264 l 499 28 q 433 -1 474 13 q 342 -14 392 -14 q 183 31 246 -14 q 88 154 119 76 q 57 326 57 232 q 88 499 57 422 q 179 622 118 576 q 332 667 240 667 q 442 641 400 667 q 503 590 485 615 l 510 590 l 558 653 l 657 653 l 657 -264 l 499 -264 m 375 46 q 443 60 410 46 q 499 88 476 74 l 499 519 q 448 578 479 549 q 365 607 417 607 q 282 570 314 607 q 236 470 250 533 q 222 326 222 407 q 237 183 222 247 q 285 83 251 119 q 375 46 319 46 z "},"r":{"ha":568,"x_min":1,"x_max":560,"o":"m 111 0 l 111 478 q 94 578 111 540 q 15 617 78 617 l 1 617 l 1 653 l 128 653 q 203 640 176 653 q 244 597 231 626 q 314 643 269 619 q 419 667 358 667 q 470 660 446 667 q 511 642 494 654 q 543 608 532 628 q 560 579 554 588 l 494 531 q 454 565 481 550 q 393 579 428 579 q 317 564 350 579 q 265 525 285 549 q 268 494 267 508 q 269 469 269 479 l 269 0 l 111 0 z "},"s":{"ha":638,"x_min":60,"x_max":586,"o":"m 318 -14 q 179 1 233 -14 q 97 43 125 17 q 68 107 72 67 q 64 200 64 147 l 104 200 q 160 89 115 132 q 290 46 204 46 q 401 73 368 46 q 435 142 435 100 q 401 208 435 182 q 310 258 367 235 l 233 292 q 106 370 151 325 q 60 483 60 415 q 131 619 60 572 q 310 667 201 667 q 447 651 393 667 q 526 610 500 636 q 557 546 553 586 q 561 453 561 506 l 521 453 q 465 564 510 521 q 338 607 421 607 q 242 580 272 607 q 211 511 211 553 q 238 449 211 475 q 314 403 265 424 l 397 368 q 538 285 490 329 q 586 169 586 242 q 510 33 586 81 q 318 -14 433 -14 z "},"š":{"ha":638,"x_min":60,"x_max":586,"o":"m 318 -14 q 179 1 233 -14 q 97 43 125 17 q 68 107 72 67 q 64 200 64 147 l 104 200 q 160 89 115 132 q 290 46 204 46 q 401 73 368 46 q 435 142 435 100 q 401 208 435 182 q 310 258 367 235 l 233 292 q 106 370 151 325 q 60 483 60 415 q 131 619 60 572 q 310 667 201 667 q 447 651 393 667 q 526 610 500 636 q 557 546 553 586 q 561 453 561 506 l 521 453 q 465 564 510 521 q 338 607 421 607 q 242 580 272 607 q 211 511 211 553 q 238 449 211 475 q 314 403 265 424 l 397 368 q 538 285 490 329 q 586 169 586 242 q 510 33 586 81 q 318 -14 433 -14 m 219 722 l 108 890 l 194 890 l 304 779 l 414 890 l 500 890 l 389 722 l 219 722 z "},"ş":{"ha":638,"x_min":60,"x_max":586,"o":"m 318 -14 q 179 1 233 -14 q 97 43 125 17 q 68 107 72 67 q 64 200 64 147 l 104 200 q 160 89 115 132 q 290 46 204 46 q 401 73 368 46 q 435 142 435 100 q 401 208 435 182 q 310 258 367 235 l 233 292 q 106 370 151 325 q 60 483 60 415 q 131 619 60 572 q 310 667 201 667 q 447 651 393 667 q 526 610 500 636 q 557 546 553 586 q 561 453 561 506 l 521 453 q 465 564 510 521 q 338 607 421 607 q 242 580 272 607 q 211 511 211 553 q 238 449 211 475 q 314 403 265 424 l 397 368 q 538 285 490 329 q 586 169 586 242 q 510 33 586 81 q 318 -14 433 -14 m 258 -253 l 258 -192 l 328 -192 q 369 -179 354 -192 q 383 -147 383 -167 q 369 -114 383 -126 q 328 -101 354 -101 l 265 -101 l 265 28 l 344 28 l 344 -42 q 437 -69 404 -42 q 469 -147 469 -97 q 437 -224 469 -196 q 350 -253 404 -253 l 258 -253 z "},"ß":{"ha":785,"x_min":90,"x_max":756,"o":"m 529 -14 q 429 1 476 -14 q 356 42 382 15 q 325 101 329 68 q 321 161 321 135 l 357 161 q 401 83 363 119 q 501 46 439 46 q 577 73 550 46 q 604 139 604 100 q 576 216 604 185 q 508 273 549 247 q 425 326 467 299 q 356 392 383 354 q 328 486 328 431 q 343 562 328 532 q 381 613 358 592 q 426 655 403 635 q 464 701 449 675 q 479 764 479 726 q 450 844 479 817 q 371 871 421 871 q 282 833 315 871 q 249 694 249 796 l 249 0 l 90 0 l 90 694 q 128 842 90 792 q 232 912 167 893 q 378 931 297 931 q 568 892 506 931 q 631 792 631 854 q 613 715 631 746 q 572 660 596 683 q 522 615 547 636 q 479 570 496 594 q 463 514 463 546 q 492 437 463 468 q 565 380 521 406 q 653 326 610 354 q 726 261 696 299 q 756 167 756 224 q 724 64 756 104 q 640 5 692 24 q 529 -14 589 -14 z "},"t":{"ha":482,"x_min":29,"x_max":483,"o":"m 306 -14 q 169 34 219 -14 q 118 179 118 82 l 118 593 l 29 593 l 29 653 l 118 653 l 118 778 l 188 861 l 276 861 l 276 653 l 435 653 l 435 593 l 276 593 l 276 175 q 297 74 276 103 q 358 46 318 46 q 421 56 394 46 q 465 79 447 67 l 483 44 q 415 5 457 24 q 306 -14 374 -14 z "},"u":{"ha":768,"x_min":-12,"x_max":678,"o":"m 347 -14 q 216 10 272 -14 q 129 90 160 35 q 99 239 99 146 l 99 478 q 81 578 99 540 q 1 617 64 617 l -12 617 l -12 653 l 132 653 q 208 638 181 653 q 246 585 235 622 q 257 478 257 547 l 257 239 q 274 126 257 168 q 322 67 292 85 q 389 49 351 49 q 444 62 419 49 q 489 94 469 75 q 519 132 508 114 l 519 653 l 678 653 l 678 0 l 579 0 l 531 60 l 524 60 q 453 9 497 32 q 347 -14 408 -14 z "},"ú":{"ha":768,"x_min":-12,"x_max":678,"o":"m 347 -14 q 216 10 272 -14 q 129 90 160 35 q 99 239 99 146 l 99 478 q 81 578 99 540 q 1 617 64 617 l -12 617 l -12 653 l 132 653 q 208 638 181 653 q 246 585 235 622 q 257 478 257 547 l 257 239 q 274 126 257 168 q 322 67 292 85 q 389 49 351 49 q 444 62 419 49 q 489 94 469 75 q 519 132 508 114 l 519 653 l 678 653 l 678 0 l 579 0 l 531 60 l 524 60 q 453 9 497 32 q 347 -14 408 -14 m 335 694 l 392 883 l 543 883 l 403 694 l 335 694 z "},"û":{"ha":768,"x_min":-12,"x_max":678,"o":"m 347 -14 q 216 10 272 -14 q 129 90 160 35 q 99 239 99 146 l 99 478 q 81 578 99 540 q 1 617 64 617 l -12 617 l -12 653 l 132 653 q 208 638 181 653 q 246 585 235 622 q 257 478 257 547 l 257 239 q 274 126 257 168 q 322 67 292 85 q 389 49 351 49 q 444 62 419 49 q 489 94 469 75 q 519 132 508 114 l 519 653 l 678 653 l 678 0 l 579 0 l 531 60 l 524 60 q 453 9 497 32 q 347 -14 408 -14 m 188 736 l 299 904 l 468 904 l 579 736 l 501 736 l 383 847 l 265 736 l 188 736 z "},"ü":{"ha":768,"x_min":-12,"x_max":678,"o":"m 347 -14 q 216 10 272 -14 q 129 90 160 35 q 99 239 99 146 l 99 478 q 81 578 99 540 q 1 617 64 617 l -12 617 l -12 653 l 132 653 q 208 638 181 653 q 246 585 235 622 q 257 478 257 547 l 257 239 q 274 126 257 168 q 322 67 292 85 q 389 49 351 49 q 444 62 419 49 q 489 94 469 75 q 519 132 508 114 l 519 653 l 678 653 l 678 0 l 579 0 l 531 60 l 524 60 q 453 9 497 32 q 347 -14 408 -14 m 494 717 q 443 738 463 717 q 424 788 424 758 q 443 839 424 818 q 494 860 463 860 q 547 839 526 860 q 567 788 567 818 q 547 738 567 758 q 494 717 526 717 m 250 717 q 199 738 218 717 q 179 788 179 758 q 199 839 179 818 q 250 860 218 860 q 302 839 282 860 q 322 788 322 818 q 302 738 322 758 q 250 717 282 717 z "},"ù":{"ha":768,"x_min":-12,"x_max":678,"o":"m 347 -14 q 216 10 272 -14 q 129 90 160 35 q 99 239 99 146 l 99 478 q 81 578 99 540 q 1 617 64 617 l -12 617 l -12 653 l 132 653 q 208 638 181 653 q 246 585 235 622 q 257 478 257 547 l 257 239 q 274 126 257 168 q 322 67 292 85 q 389 49 351 49 q 444 62 419 49 q 489 94 469 75 q 519 132 508 114 l 519 653 l 678 653 l 678 0 l 579 0 l 531 60 l 524 60 q 453 9 497 32 q 347 -14 408 -14 m 358 693 l 218 882 l 369 882 l 426 693 l 358 693 z "},"v":{"ha":693,"x_min":-12,"x_max":678,"o":"m 346 -14 l 119 493 q 56 601 85 569 q -12 636 28 633 l -12 664 q 10 665 -7 664 q 38 667 28 667 q 133 653 88 667 q 219 603 179 640 q 292 493 258 565 l 414 214 l 606 653 l 678 653 l 388 -14 l 346 -14 z "},"w":{"ha":1061,"x_min":-14,"x_max":1040,"o":"m 338 -14 l 122 493 q 58 603 88 571 q -14 638 28 635 l -14 664 q 1 665 -10 664 q 26 666 13 665 q 44 667 39 667 q 184 631 125 667 q 288 493 243 596 l 406 217 l 510 471 q 460 569 482 533 q 417 620 438 604 q 369 638 396 636 l 369 664 q 392 665 375 664 q 419 667 410 667 q 563 631 500 667 q 671 493 626 596 l 794 208 l 969 653 l 1040 653 l 779 -14 l 731 -14 l 553 393 l 386 -14 l 338 -14 z "},"x":{"ha":685,"x_min":7,"x_max":679,"o":"m 40 0 l 269 300 l 142 514 q 78 592 113 564 q 7 625 43 619 l 7 653 l 133 653 q 233 623 193 653 q 303 542 272 593 l 378 415 l 558 653 l 642 653 l 413 354 l 542 139 q 606 61 571 89 q 679 28 642 33 l 679 0 l 550 0 q 451 30 490 0 q 381 111 411 60 l 306 238 l 124 0 l 40 0 z "},"y":{"ha":710,"x_min":-19,"x_max":679,"o":"m 135 -278 l 135 -232 q 251 -204 204 -232 q 331 -93 299 -176 l 358 -17 l 119 528 q 63 606 99 579 q -19 639 28 633 l -19 667 l 101 667 q 209 637 164 667 q 276 556 254 607 l 436 192 l 607 653 l 679 653 l 403 -90 q 343 -206 375 -165 q 272 -262 311 -247 q 185 -278 233 -278 l 135 -278 z "},"ý":{"ha":710,"x_min":-19,"x_max":679,"o":"m 135 -278 l 135 -232 q 251 -204 204 -232 q 331 -93 299 -176 l 358 -17 l 119 528 q 63 606 99 579 q -19 639 28 633 l -19 667 l 101 667 q 209 637 164 667 q 276 556 254 607 l 436 192 l 607 653 l 679 653 l 403 -90 q 343 -206 375 -165 q 272 -262 311 -247 q 185 -278 233 -278 l 135 -278 m 360 694 l 417 883 l 568 883 l 428 694 l 360 694 z "},"ÿ":{"ha":710,"x_min":-19,"x_max":679,"o":"m 135 -278 l 135 -232 q 251 -204 204 -232 q 331 -93 299 -176 l 358 -17 l 119 528 q 63 606 99 579 q -19 639 28 633 l -19 667 l 101 667 q 209 637 164 667 q 276 556 254 607 l 436 192 l 607 653 l 679 653 l 403 -90 q 343 -206 375 -165 q 272 -262 311 -247 q 185 -278 233 -278 l 135 -278 m 521 721 q 469 742 489 721 q 450 792 450 763 q 469 843 450 822 q 521 864 489 864 q 573 843 553 864 q 593 792 593 822 q 573 742 593 763 q 521 721 553 721 m 276 721 q 225 742 244 721 q 206 792 206 763 q 225 843 206 822 q 276 864 244 864 q 328 843 308 864 q 349 792 349 822 q 328 742 349 763 q 276 721 308 721 z "},"z":{"ha":669,"x_min":57,"x_max":640,"o":"m 57 0 l 57 36 l 421 593 l 258 593 q 131 560 169 593 q 93 464 93 528 l 57 464 l 57 542 q 67 595 57 569 q 102 637 76 621 q 175 653 128 653 l 640 653 l 254 60 l 624 60 l 624 0 l 57 0 z "},"ž":{"ha":669,"x_min":57,"x_max":640,"o":"m 57 0 l 57 36 l 421 593 l 258 593 q 131 560 169 593 q 93 464 93 528 l 57 464 l 57 542 q 67 595 57 569 q 102 637 76 621 q 175 653 128 653 l 640 653 l 254 60 l 624 60 l 624 0 l 57 0 m 265 722 l 154 890 l 240 890 l 350 779 l 460 890 l 546 890 l 435 722 l 265 722 z "},"ª":{"ha":449,"x_min":64,"x_max":365,"o":"m 182 550 q 126 558 153 550 q 81 588 99 567 q 64 647 64 610 q 88 711 64 686 q 154 748 111 736 q 256 760 197 760 l 278 760 q 267 839 278 813 q 242 874 257 865 q 208 883 226 883 q 152 867 172 883 q 125 815 132 850 l 88 815 q 90 855 88 835 q 107 890 92 875 q 153 911 121 906 q 222 917 185 917 q 293 906 261 917 q 345 861 325 894 q 365 760 365 828 l 365 557 l 311 557 l 285 592 l 281 592 q 244 564 268 578 q 182 550 221 550 m 208 583 q 251 599 233 583 q 278 631 268 615 l 278 726 l 256 726 q 180 704 208 726 q 151 647 151 682 q 169 597 151 611 q 208 583 186 583 z "},"º":{"ha":467,"x_min":167,"x_max":300,"o":"m 233 681 q 194 691 208 681 q 173 714 179 701 q 167 733 167 726 q 173 754 167 742 q 194 776 179 767 q 233 786 210 786 q 274 776 260 786 q 294 754 289 767 q 300 733 300 742 q 294 714 300 726 q 274 691 289 701 q 233 681 260 681 m 233 714 q 215 712 218 714 q 211 733 211 710 q 213 753 211 750 q 219 755 214 757 q 233 753 224 753 q 248 755 243 753 q 254 753 253 757 q 256 733 256 750 q 252 712 256 710 q 233 714 249 714 z "},"А":{"ha":892,"x_min":19,"x_max":931,"o":"m 869 -6 q 781 6 829 -6 q 688 56 733 18 q 611 175 643 94 l 578 257 l 200 257 l 88 0 l 19 0 l 421 917 l 474 917 l 783 175 q 845 73 811 107 q 931 33 879 39 l 931 1 q 902 -3 919 -1 q 869 -6 885 -6 m 226 317 l 550 317 l 392 696 l 226 317 z "},"Б":{"ha":867,"x_min":21,"x_max":825,"o":"m 139 0 l 139 742 q 122 842 139 804 q 42 881 104 881 l 21 881 l 21 917 l 621 917 q 694 901 669 917 q 729 859 719 885 q 739 806 739 833 l 739 693 l 703 693 q 658 819 703 781 q 529 857 613 857 l 296 857 l 296 528 l 432 528 q 571 517 501 528 q 698 479 640 507 q 790 399 756 451 q 825 264 825 347 q 790 128 825 181 q 698 49 756 76 q 571 10 640 21 q 432 0 501 0 l 139 0 m 411 53 q 592 103 532 53 q 653 264 653 154 q 592 424 653 374 q 411 475 532 475 q 354 471 381 475 q 296 458 328 467 l 296 69 q 349 58 318 63 q 411 53 379 53 z "},"В":{"ha":882,"x_min":21,"x_max":831,"o":"m 139 0 l 139 742 q 122 842 139 804 q 42 881 104 881 l 21 881 l 21 917 l 390 917 q 520 909 451 917 q 649 877 589 901 q 748 804 710 853 q 786 674 786 756 q 740 557 786 613 q 599 474 694 501 q 740 431 689 463 q 810 353 790 399 q 831 253 831 308 q 796 124 831 174 q 703 48 761 75 q 574 10 644 21 q 432 0 503 0 l 139 0 m 411 53 q 596 103 532 53 q 660 246 660 153 q 597 390 660 340 q 411 439 535 439 l 296 439 l 296 69 q 349 58 318 63 q 411 53 379 53 m 296 499 l 411 499 q 515 517 468 499 q 590 576 561 536 q 618 681 618 617 q 583 789 618 749 q 496 847 549 829 q 388 864 443 864 q 345 861 368 864 q 296 853 322 858 l 296 499 z "},"Г":{"ha":751,"x_min":21,"x_max":728,"o":"m 139 0 l 139 742 q 122 842 139 804 q 42 881 104 881 l 21 881 l 21 917 l 610 917 q 683 901 658 917 q 718 859 708 885 q 728 806 728 833 l 728 693 l 692 693 q 647 819 692 781 q 518 857 601 857 l 296 857 l 296 0 l 139 0 z "},"Ѓ":{"ha":751,"x_min":21,"x_max":728,"o":"m 139 0 l 139 742 q 122 842 139 804 q 42 881 104 881 l 21 881 l 21 917 l 610 917 q 683 901 658 917 q 718 859 708 885 q 728 806 728 833 l 728 693 l 692 693 q 647 819 692 781 q 518 857 601 857 l 296 857 l 296 0 l 139 0 m 326 975 l 383 1164 l 535 1164 l 394 975 l 326 975 z "},"Ґ":{"ha":746,"x_min":21,"x_max":728,"o":"m 139 0 l 139 742 q 122 842 139 804 q 42 881 104 881 l 21 881 l 21 917 l 518 917 q 647 955 601 917 q 692 1081 692 993 l 728 1081 l 728 949 q 718 904 728 925 q 688 870 708 883 q 632 857 668 857 l 296 857 l 296 0 l 139 0 z "},"Д":{"ha":960,"x_min":1,"x_max":932,"o":"m 1 -253 l 1 11 q 15 46 1 32 q 50 60 29 60 l 101 60 q 194 378 169 207 q 219 742 219 549 q 202 842 219 804 q 122 881 185 881 l 106 881 l 106 917 l 824 917 l 824 60 l 883 60 q 918 46 904 60 q 932 11 932 32 l 932 -253 l 865 -253 q 833 -100 854 -156 q 776 -22 811 -44 q 692 0 742 0 l 242 0 q 157 -22 192 0 q 101 -100 122 -44 q 68 -253 79 -156 l 1 -253 m 226 60 l 665 60 l 665 857 l 338 857 q 327 524 338 668 q 292 268 317 381 q 226 60 268 156 z "},"Е":{"ha":828,"x_min":21,"x_max":796,"o":"m 139 0 l 139 742 q 122 842 139 804 q 42 881 104 881 l 21 881 l 21 917 l 625 917 q 699 901 674 917 q 733 859 724 885 q 743 806 743 833 l 743 693 l 707 693 q 662 818 707 779 q 533 857 617 857 l 296 857 l 296 504 l 663 504 l 663 444 l 296 444 l 296 60 l 536 60 q 674 94 619 60 q 763 215 728 128 l 796 204 l 751 86 q 714 23 739 46 q 638 0 689 0 l 139 0 z "},"Ё":{"ha":828,"x_min":21,"x_max":796,"o":"m 139 0 l 139 742 q 122 842 139 804 q 42 881 104 881 l 21 881 l 21 917 l 625 917 q 699 901 674 917 q 733 859 724 885 q 743 806 743 833 l 743 693 l 707 693 q 662 818 707 779 q 533 857 617 857 l 296 857 l 296 504 l 663 504 l 663 444 l 296 444 l 296 60 l 536 60 q 674 94 619 60 q 763 215 728 128 l 796 204 l 751 86 q 714 23 739 46 q 638 0 689 0 l 139 0 m 522 1014 q 467 1035 488 1014 q 447 1089 447 1057 q 467 1142 447 1121 q 522 1163 488 1163 q 576 1142 557 1163 q 596 1089 596 1121 q 576 1035 596 1057 q 522 1014 556 1014 m 286 1014 q 231 1035 251 1014 q 211 1089 211 1057 q 231 1142 211 1121 q 286 1163 251 1163 q 340 1142 321 1163 q 360 1089 360 1121 q 340 1035 360 1057 q 286 1014 319 1014 z "},"Ж":{"ha":1351,"x_min":-14,"x_max":1364,"o":"m 76 -14 q 23 -10 44 -14 q -14 0 1 -6 l -14 31 q 90 78 31 38 q 201 181 150 119 l 474 514 l 271 776 q 174 853 224 833 q 53 874 125 874 l 53 917 l 131 917 q 265 873 210 917 q 367 771 321 829 l 597 475 l 597 917 l 754 917 l 754 475 l 985 771 q 1085 873 1029 829 q 1221 917 1142 917 l 1299 917 l 1299 874 q 1176 853 1226 874 q 1079 776 1126 833 l 878 514 l 1150 181 q 1261 78 1201 119 q 1364 31 1321 38 l 1364 0 q 1327 -10 1349 -6 q 1275 -14 1306 -14 q 1176 -1 1228 -14 q 1071 49 1125 11 q 958 161 1017 88 l 754 421 l 754 0 l 597 0 l 597 421 l 393 161 q 281 49 335 88 q 176 -1 226 11 q 76 -14 125 -14 z "},"З":{"ha":800,"x_min":33,"x_max":751,"o":"m 383 -28 q 181 15 265 -28 q 33 154 96 58 l 68 183 q 140 108 100 142 q 233 53 181 74 q 354 32 286 32 q 516 83 451 32 q 581 229 581 135 q 516 383 581 329 q 332 438 451 438 l 221 438 l 221 497 l 332 497 q 438 519 388 497 q 521 585 489 540 q 553 694 553 629 q 523 803 553 761 q 449 865 493 846 q 361 885 406 885 q 198 824 264 885 q 106 658 132 763 l 68 658 q 72 768 68 721 q 103 847 76 815 q 172 899 128 878 q 267 933 215 921 q 368 944 319 944 q 488 935 426 944 q 601 900 549 926 q 685 825 653 874 q 717 696 717 776 q 694 608 717 651 q 625 530 671 564 q 511 476 579 496 q 653 427 601 463 q 728 342 706 392 q 751 236 751 292 q 717 108 751 158 q 628 27 683 57 q 508 -15 572 -3 q 383 -28 443 -28 z "},"И":{"ha":975,"x_min":21,"x_max":865,"o":"m 139 0 l 139 742 q 122 842 139 804 q 42 881 104 881 l 21 881 l 21 917 l 171 917 q 247 901 219 917 q 285 849 274 886 q 296 742 296 811 l 296 158 l 715 917 l 865 917 l 865 0 l 708 0 l 708 758 l 288 0 l 139 0 z "},"Й":{"ha":975,"x_min":21,"x_max":865,"o":"m 139 0 l 139 742 q 122 842 139 804 q 42 881 104 881 l 21 881 l 21 917 l 171 917 q 247 901 219 917 q 285 849 274 886 q 296 742 296 811 l 296 158 l 715 917 l 865 917 l 865 0 l 708 0 l 708 758 l 288 0 l 139 0 m 504 978 q 389 1013 436 978 q 315 1106 342 1047 l 350 1132 q 408 1085 371 1106 q 504 1065 446 1065 q 601 1085 563 1065 q 660 1132 639 1106 l 694 1106 q 620 1013 668 1047 q 504 978 572 978 z "},"К":{"ha":953,"x_min":21,"x_max":968,"o":"m 871 -14 q 776 -1 825 -14 q 671 47 726 11 q 549 153 615 83 l 297 415 l 297 0 l 139 0 l 139 742 q 122 842 139 804 q 42 881 104 881 l 21 881 l 21 917 l 171 917 q 247 901 219 917 q 285 849 274 886 q 297 742 297 811 l 297 475 l 558 771 q 625 842 590 808 q 703 896 660 875 q 800 917 746 917 l 886 917 l 886 874 q 760 853 815 874 q 653 776 704 833 l 421 514 l 740 181 q 817 110 776 143 q 898 56 858 76 q 968 31 938 35 l 968 0 q 928 -10 953 -6 q 871 -14 903 -14 z "},"Ќ":{"ha":953,"x_min":21,"x_max":968,"o":"m 871 -14 q 776 -1 825 -14 q 671 47 726 11 q 549 153 615 83 l 297 415 l 297 0 l 139 0 l 139 742 q 122 842 139 804 q 42 881 104 881 l 21 881 l 21 917 l 171 917 q 247 901 219 917 q 285 849 274 886 q 297 742 297 811 l 297 475 l 558 771 q 625 842 590 808 q 703 896 660 875 q 800 917 746 917 l 886 917 l 886 874 q 760 853 815 874 q 653 776 704 833 l 421 514 l 740 181 q 817 110 776 143 q 898 56 858 76 q 968 31 938 35 l 968 0 q 928 -10 953 -6 q 871 -14 903 -14 m 403 938 l 460 1126 l 611 1126 l 471 938 l 403 938 z "},"Л":{"ha":932,"x_min":-10,"x_max":822,"o":"m 68 -18 q 26 -15 46 -18 q -10 -6 6 -11 l -10 35 q 58 58 25 39 q 120 122 92 78 q 169 245 149 167 q 202 445 190 324 q 214 742 214 567 q 197 842 214 804 q 117 881 179 881 l 103 881 l 103 917 l 822 917 l 822 0 l 665 0 l 665 857 l 346 857 l 346 742 q 332 429 346 560 q 292 212 318 299 q 232 74 267 125 q 156 3 197 24 q 68 -18 114 -18 z "},"М":{"ha":1197,"x_min":110,"x_max":1174,"o":"m 1174 -62 q 1013 -31 1074 -62 q 927 66 953 0 q 901 236 901 132 l 901 746 l 579 0 l 542 0 l 174 768 l 174 0 l 110 0 l 110 917 l 264 917 l 599 218 l 900 917 l 1060 917 l 1060 236 q 1085 43 1060 110 q 1174 -31 1111 -24 l 1174 -62 z "},"Н":{"ha":985,"x_min":21,"x_max":963,"o":"m 139 0 l 139 742 q 122 842 139 804 q 42 881 104 881 l 21 881 l 21 917 l 171 917 q 247 901 219 917 q 285 849 274 886 q 296 742 296 811 l 296 504 l 688 504 l 688 917 l 846 917 l 846 175 q 863 74 846 113 q 943 36 881 36 l 963 36 l 963 0 l 813 0 q 737 15 764 0 q 699 67 710 29 q 688 175 688 106 l 688 444 l 296 444 l 296 0 l 139 0 z "},"О":{"ha":1006,"x_min":57,"x_max":950,"o":"m 503 -28 q 267 37 368 -28 q 112 211 167 101 q 57 458 57 321 q 112 706 57 596 q 267 880 167 815 q 503 944 368 944 q 739 880 639 944 q 894 706 839 815 q 950 458 950 596 q 894 211 950 321 q 739 37 839 101 q 503 -28 639 -28 m 503 32 q 653 83 592 32 q 747 229 714 133 q 779 458 779 325 q 747 688 779 593 q 653 834 714 783 q 503 885 592 885 q 355 834 417 885 q 260 688 293 783 q 228 458 228 593 q 260 229 228 325 q 355 83 293 133 q 503 32 417 32 z "},"П":{"ha":947,"x_min":21,"x_max":838,"o":"m 139 0 l 139 742 q 122 842 139 804 q 42 881 104 881 l 21 881 l 21 917 l 838 917 l 838 0 l 681 0 l 681 857 l 296 857 l 296 0 l 139 0 z "},"Р":{"ha":788,"x_min":21,"x_max":758,"o":"m 139 0 l 139 742 q 122 842 139 804 q 42 881 104 881 l 21 881 l 21 917 l 394 917 q 479 912 432 917 q 575 892 526 907 q 665 846 624 876 q 733 765 707 815 q 758 638 758 714 q 733 519 758 567 q 668 442 708 471 q 584 397 628 413 q 501 377 540 382 q 436 372 461 372 l 296 372 l 296 0 l 139 0 m 296 425 l 388 425 q 456 435 421 425 q 520 472 490 446 q 568 540 550 497 q 586 644 586 582 q 568 751 586 708 q 520 818 550 793 q 457 853 490 843 q 392 864 424 864 q 348 861 372 864 q 296 853 324 858 l 296 425 z "},"С":{"ha":935,"x_min":56,"x_max":894,"o":"m 503 -28 q 262 35 363 -28 q 108 205 161 97 q 56 444 56 313 q 89 641 56 550 q 184 800 122 732 q 327 906 246 868 q 503 944 408 944 q 708 911 626 944 q 828 832 789 878 q 858 742 854 799 q 863 622 863 685 l 826 622 q 730 819 800 753 q 544 885 660 885 q 385 844 457 885 q 269 708 313 804 q 226 444 226 613 q 244 292 226 365 q 301 159 263 218 q 399 66 339 100 q 544 32 458 32 q 722 83 643 32 q 854 229 801 133 l 894 199 q 734 24 829 76 q 503 -28 639 -28 z "},"Т":{"ha":803,"x_min":25,"x_max":793,"o":"m 336 0 l 336 857 l 226 857 q 105 819 149 857 q 61 693 61 782 l 25 693 l 25 806 q 35 859 25 833 q 70 901 44 885 q 143 917 96 917 l 793 917 l 793 857 l 493 857 l 493 0 l 336 0 z "},"У":{"ha":851,"x_min":-42,"x_max":836,"o":"m 192 -14 l 192 33 q 274 41 233 33 q 349 70 315 49 q 399 132 382 92 l 411 158 l 138 736 q 96 811 119 778 q 39 865 72 844 q -42 889 6 886 l -42 917 l 108 917 q 197 896 158 917 q 265 840 236 875 q 311 764 293 806 l 501 363 l 749 917 l 836 917 l 486 132 q 401 25 457 64 q 261 -14 344 -14 l 192 -14 z "},"Ў":{"ha":851,"x_min":-42,"x_max":836,"o":"m 192 -14 l 192 33 q 274 41 233 33 q 349 70 315 49 q 399 132 382 92 l 411 158 l 138 736 q 96 811 119 778 q 39 865 72 844 q -42 889 6 886 l -42 917 l 108 917 q 197 896 158 917 q 265 840 236 875 q 311 764 293 806 l 501 363 l 749 917 l 836 917 l 486 132 q 401 25 457 64 q 261 -14 344 -14 l 192 -14 m 481 968 q 365 1003 413 968 q 292 1096 318 1038 l 326 1122 q 385 1076 347 1096 q 481 1056 422 1056 q 577 1076 539 1056 q 636 1122 615 1096 l 671 1096 q 597 1003 644 1038 q 481 968 549 968 z "},"Ф":{"ha":1117,"x_min":42,"x_max":1076,"o":"m 481 -50 l 481 49 q 152 155 263 49 q 42 438 42 261 q 152 721 42 615 q 481 826 263 826 q 472 881 481 857 q 443 917 464 904 q 383 931 422 931 l 363 931 l 363 967 l 513 967 q 612 936 586 967 q 638 826 638 906 q 967 721 857 826 q 1076 438 1076 615 q 967 155 1076 261 q 638 49 857 49 l 638 -50 l 481 -50 m 481 108 l 481 767 q 326 722 385 767 q 240 603 267 678 q 213 438 213 529 q 240 272 213 346 q 326 153 267 197 q 481 108 385 108 m 638 108 q 791 153 732 108 q 877 272 850 197 q 904 438 904 346 q 877 603 904 529 q 791 722 850 678 q 638 767 732 767 l 638 108 z "},"Х":{"ha":910,"x_min":-15,"x_max":935,"o":"m 38 0 l 381 440 l 185 736 q 132 806 163 772 q 65 863 101 840 q -15 889 29 886 l -15 917 l 143 917 q 232 893 193 917 q 302 835 271 869 q 356 764 333 800 l 485 568 l 757 917 l 838 917 l 522 513 l 742 181 q 796 110 765 144 q 863 54 826 76 q 935 28 899 32 l 935 0 l 785 0 q 696 24 736 0 q 624 83 656 47 q 571 153 593 118 l 419 383 l 119 0 l 38 0 z "},"Ч":{"ha":908,"x_min":1,"x_max":799,"o":"m 640 0 l 640 367 q 556 345 607 351 q 458 339 504 339 q 316 354 379 339 q 207 403 253 369 q 137 496 161 438 q 113 639 113 554 l 113 742 q 95 842 113 804 q 15 881 78 881 l 1 881 l 1 917 l 151 917 q 227 901 200 917 q 265 849 254 886 q 276 742 276 811 l 276 625 q 301 493 276 543 q 370 421 325 443 q 476 399 415 399 q 563 406 518 399 q 640 426 607 413 l 640 917 l 799 917 l 799 0 l 640 0 z "},"Ц":{"ha":974,"x_min":21,"x_max":946,"o":"m 879 -254 q 847 -100 868 -156 q 791 -22 825 -44 q 706 0 757 0 l 139 0 l 139 742 q 122 842 139 804 q 42 881 104 881 l 21 881 l 21 917 l 171 917 q 247 901 219 917 q 285 849 274 886 q 296 742 296 811 l 296 60 l 681 60 l 681 917 l 838 917 l 838 60 l 897 60 q 932 46 918 60 q 946 11 946 32 l 946 -254 l 879 -254 z "},"Ш":{"ha":1308,"x_min":21,"x_max":1199,"o":"m 139 0 l 139 742 q 122 842 139 804 q 42 881 104 881 l 21 881 l 21 917 l 171 917 q 247 901 219 917 q 285 849 274 886 q 296 742 296 811 l 296 60 l 590 60 l 590 917 l 747 917 l 747 60 l 1042 60 l 1042 917 l 1199 917 l 1199 0 l 139 0 z "},"Щ":{"ha":1335,"x_min":21,"x_max":1307,"o":"m 1240 -254 q 1208 -100 1229 -156 q 1152 -22 1186 -44 q 1067 0 1118 0 l 139 0 l 139 742 q 122 842 139 804 q 42 881 104 881 l 21 881 l 21 917 l 171 917 q 247 901 219 917 q 285 849 274 886 q 296 742 296 811 l 296 60 l 590 60 l 590 917 l 747 917 l 747 60 l 1042 60 l 1042 917 l 1199 917 l 1199 60 l 1258 60 q 1293 46 1279 60 q 1307 11 1307 32 l 1307 -254 l 1240 -254 z "},"Џ":{"ha":947,"x_min":21,"x_max":838,"o":"m 444 -243 l 424 0 l 139 0 l 139 742 q 122 842 139 804 q 42 881 104 881 l 21 881 l 21 917 l 171 917 q 247 901 219 917 q 285 849 274 886 q 296 742 296 811 l 296 60 l 681 60 l 681 917 l 838 917 l 838 0 l 551 0 l 531 -243 l 444 -243 z "},"Ь":{"ha":853,"x_min":21,"x_max":825,"o":"m 139 0 l 139 742 q 122 842 139 804 q 42 881 104 881 l 21 881 l 21 917 l 171 917 q 247 901 219 917 q 285 849 274 886 q 296 742 296 811 l 296 536 l 432 536 q 571 525 501 536 q 698 484 640 514 q 790 402 756 454 q 825 268 825 350 q 790 134 825 186 q 698 52 756 82 q 571 11 640 22 q 432 0 501 0 l 139 0 m 411 53 q 592 107 532 53 q 653 268 653 161 q 592 429 653 375 q 411 483 532 483 q 354 479 381 483 q 296 467 328 475 l 296 69 q 349 58 318 63 q 411 53 379 53 z "},"Ъ":{"ha":993,"x_min":36,"x_max":964,"o":"m 278 0 l 278 857 l 251 857 q 130 809 168 857 q 86 644 92 761 l 36 644 l 36 868 q 50 903 36 889 q 85 917 64 917 l 435 917 l 435 536 l 572 536 q 710 525 642 536 q 837 484 779 514 q 929 402 894 454 q 964 268 964 350 q 929 134 964 186 q 837 52 894 82 q 710 11 779 22 q 572 0 642 0 l 278 0 m 551 53 q 733 107 672 53 q 793 268 793 161 q 733 429 793 375 q 551 483 672 483 q 493 479 519 483 q 435 467 467 475 l 435 69 q 488 58 457 63 q 551 53 518 53 z "},"Ы":{"ha":1207,"x_min":21,"x_max":1185,"o":"m 139 0 l 139 742 q 122 842 139 804 q 42 881 104 881 l 21 881 l 21 917 l 171 917 q 247 901 219 917 q 285 849 274 886 q 296 742 296 811 l 296 536 l 424 536 q 558 525 490 536 q 682 484 625 514 q 774 402 739 454 q 808 268 808 350 q 774 134 808 186 q 682 52 739 82 q 558 11 625 22 q 424 0 490 0 l 139 0 m 403 53 q 577 107 518 53 q 636 268 636 161 q 577 429 636 375 q 403 483 518 483 q 352 479 378 483 q 296 467 326 475 l 296 69 q 348 57 317 61 q 403 53 379 53 m 1035 0 q 959 15 986 0 q 921 67 932 29 q 910 175 910 106 l 910 917 l 1068 917 l 1068 175 q 1085 74 1068 113 q 1165 36 1103 36 l 1185 36 l 1185 0 l 1035 0 z "},"Љ":{"ha":1358,"x_min":-10,"x_max":1331,"o":"m 68 -18 q 26 -15 46 -18 q -10 -6 6 -11 l -10 35 q 58 58 25 39 q 120 122 92 78 q 169 245 149 167 q 202 445 190 324 q 214 742 214 567 q 197 842 214 804 q 117 881 179 881 l 103 881 l 103 917 l 810 917 l 810 536 l 946 536 q 1080 525 1013 536 q 1204 484 1147 514 q 1296 402 1261 454 q 1331 268 1331 350 q 1296 134 1331 186 q 1204 52 1261 82 q 1080 11 1147 22 q 946 0 1013 0 l 651 0 l 651 857 l 346 857 l 346 742 q 332 429 346 560 q 293 212 318 299 q 233 74 268 125 q 156 3 197 24 q 68 -18 114 -18 m 925 53 q 1099 107 1040 53 q 1158 268 1158 161 q 1099 429 1158 375 q 925 483 1040 483 q 868 479 894 483 q 810 467 842 475 l 810 69 q 865 57 835 61 q 925 53 896 53 z "},"Њ":{"ha":1378,"x_min":21,"x_max":1353,"o":"m 139 0 l 139 742 q 122 842 139 804 q 42 881 104 881 l 21 881 l 21 917 l 171 917 q 247 901 219 917 q 285 849 274 886 q 296 742 296 811 l 296 504 l 667 504 l 667 917 l 825 917 l 825 508 l 960 508 q 1099 497 1029 508 q 1226 458 1168 486 q 1318 380 1283 429 q 1353 254 1353 331 q 1318 128 1353 178 q 1226 51 1283 79 q 1099 11 1168 22 q 960 0 1029 0 l 667 0 l 667 444 l 296 444 l 296 0 l 139 0 m 939 53 q 1120 105 1060 53 q 1181 254 1181 157 q 1120 403 1181 351 q 939 456 1060 456 q 871 450 901 456 q 824 439 840 444 l 824 69 q 876 58 846 63 q 939 53 907 53 z "},"Ѕ":{"ha":764,"x_min":69,"x_max":708,"o":"m 385 -24 q 272 -12 328 -24 q 170 21 217 -1 q 97 74 124 43 q 69 144 69 106 l 69 301 l 103 301 q 193 97 125 158 q 378 36 261 36 q 469 51 429 36 q 533 98 510 67 q 556 174 556 129 q 517 274 556 233 q 410 358 479 315 l 239 460 q 108 571 146 514 q 69 704 69 628 q 150 878 69 814 q 364 942 231 942 q 474 931 419 942 q 573 898 528 919 q 645 846 618 876 q 672 775 672 815 l 672 618 l 639 618 q 549 822 615 761 q 374 882 483 882 q 290 865 328 882 q 232 818 253 849 q 211 744 211 788 q 251 649 211 686 q 360 571 290 611 l 531 469 q 665 363 622 415 q 708 235 708 311 q 623 46 708 115 q 385 -24 538 -24 z "},"Є":{"ha":935,"x_min":56,"x_max":894,"o":"m 503 -28 q 262 35 363 -28 q 108 205 161 97 q 56 444 56 313 q 89 641 56 550 q 184 800 122 732 q 327 906 246 868 q 503 944 408 944 q 708 911 626 944 q 828 832 789 878 q 858 742 854 799 q 863 622 863 685 l 826 622 q 730 819 800 753 q 544 885 660 885 q 392 849 463 885 q 278 726 322 813 q 228 490 235 640 l 669 490 l 669 431 l 226 431 q 248 283 229 354 q 305 155 267 211 q 402 65 343 99 q 544 32 461 32 q 722 83 643 32 q 854 229 801 133 l 894 199 q 734 24 829 76 q 503 -28 639 -28 z "},"Э":{"ha":936,"x_min":40,"x_max":881,"o":"m 433 -28 q 201 24 296 -28 q 40 199 107 76 l 81 229 q 213 83 133 133 q 392 32 292 32 q 533 65 474 32 q 631 155 593 99 q 688 283 668 211 q 708 431 707 354 l 265 431 l 265 490 l 707 490 q 657 726 701 640 q 543 849 613 813 q 392 885 474 885 q 206 819 276 885 q 108 622 135 753 l 72 622 q 76 742 72 685 q 108 832 81 799 q 227 911 146 878 q 433 944 308 944 q 609 906 528 944 q 751 800 690 868 q 847 641 813 732 q 881 444 881 550 q 827 205 881 313 q 674 35 774 97 q 433 -28 574 -28 z "},"І":{"ha":411,"x_min":115,"x_max":390,"o":"m 240 0 q 165 15 192 0 q 126 67 138 29 q 115 175 115 106 l 115 917 l 274 917 l 274 175 q 291 74 274 113 q 371 36 308 36 l 390 36 l 390 0 l 240 0 z "},"Ї":{"ha":411,"x_min":8,"x_max":390,"o":"m 240 0 q 165 15 192 0 q 126 67 138 29 q 115 175 115 106 l 115 917 l 274 917 l 274 175 q 291 74 274 113 q 371 36 308 36 l 390 36 l 390 0 l 240 0 m 82 993 q 28 1015 49 993 q 8 1068 8 1036 q 28 1121 8 1100 q 82 1142 49 1142 q 137 1121 117 1142 q 157 1068 157 1100 q 137 1015 157 1036 q 82 993 117 993 m 306 993 q 252 1015 272 993 q 232 1068 232 1036 q 252 1121 232 1100 q 307 1142 272 1142 q 360 1121 340 1142 q 381 1068 381 1100 q 360 1015 381 1036 q 306 993 340 993 z "},"Ј":{"ha":376,"x_min":-21,"x_max":268,"o":"m -21 -190 l -21 -154 q 51 -124 22 -151 q 95 -38 81 -96 q 110 113 110 19 l 110 917 l 268 917 l 268 113 q 244 -67 268 -1 q 157 -162 219 -133 q -21 -190 94 -190 z "},"Ћ":{"ha":893,"x_min":-6,"x_max":839,"o":"m 167 0 l 167 857 l -6 857 l -6 917 l 497 917 l 497 857 l 325 857 l 325 542 q 417 580 357 563 q 544 597 476 597 q 651 586 599 597 q 745 548 703 575 q 813 472 788 521 q 839 347 839 422 l 839 0 l 681 0 l 681 347 q 658 456 681 417 q 598 513 636 496 q 511 531 560 531 q 408 515 458 531 q 325 479 357 500 l 325 0 l 167 0 z "},"Ю":{"ha":1249,"x_min":21,"x_max":1190,"o":"m 786 -28 q 583 31 674 -28 q 438 197 492 90 q 381 444 385 304 l 296 444 l 296 0 l 139 0 l 139 742 q 122 842 139 804 q 42 881 104 881 l 21 881 l 21 917 l 171 917 q 247 901 219 917 q 285 849 274 886 q 296 742 296 811 l 296 504 l 382 504 q 448 736 393 638 q 590 890 503 835 q 786 944 678 944 q 992 883 901 944 q 1137 713 1083 822 q 1190 458 1190 604 q 1137 204 1190 314 q 992 33 1083 94 q 786 -28 901 -28 m 786 32 q 906 81 853 32 q 990 224 958 129 q 1021 458 1021 318 q 990 693 1021 599 q 906 836 958 788 q 786 885 853 885 q 667 836 719 885 q 583 693 614 788 q 553 458 553 599 q 583 224 553 318 q 667 81 614 129 q 786 32 719 32 z "},"Я":{"ha":860,"x_min":15,"x_max":835,"o":"m 106 -19 q 54 -15 81 -19 q 15 -4 28 -10 l 15 26 q 96 63 56 33 q 179 163 136 93 l 317 389 q 218 430 268 400 q 135 511 168 460 q 101 640 101 563 q 126 760 101 711 q 190 839 150 808 q 278 887 231 869 q 376 910 326 904 q 465 917 425 917 l 835 917 l 835 881 l 821 881 q 741 842 758 881 q 724 742 724 804 l 724 0 l 564 0 l 564 376 l 474 376 l 339 151 q 226 17 281 54 q 106 -19 171 -19 m 472 429 q 520 431 492 429 q 564 435 549 433 l 564 853 q 510 861 535 858 q 468 864 486 864 q 405 851 439 864 q 341 813 371 839 q 292 745 311 786 q 274 647 274 704 q 292 547 274 589 q 342 479 311 506 q 406 441 372 453 q 472 429 440 429 z "},"Ђ":{"ha":878,"x_min":-6,"x_max":839,"o":"m 557 -56 l 557 -24 q 649 50 617 -24 q 681 278 681 124 q 656 433 681 378 q 594 509 632 488 q 511 531 556 531 q 408 515 458 531 q 325 479 357 500 l 325 0 l 167 0 l 167 857 l -6 857 l -6 917 l 497 917 l 497 857 l 325 857 l 325 542 q 417 580 357 563 q 544 597 476 597 q 658 584 606 597 q 751 536 711 571 q 815 439 792 501 q 839 278 839 376 q 809 83 839 156 q 717 -23 779 10 q 557 -56 654 -56 z "},"а":{"ha":681,"x_min":46,"x_max":600,"o":"m 268 -14 q 181 -2 221 -14 q 111 33 142 10 q 63 93 81 57 q 46 176 46 129 q 85 292 46 247 q 205 358 124 336 q 413 379 286 379 l 442 379 q 425 517 442 468 q 377 587 408 567 q 304 607 346 607 q 214 583 253 607 q 160 485 175 558 l 89 485 q 94 556 89 521 q 124 618 99 590 q 208 656 149 646 q 332 667 267 667 q 441 651 392 667 q 526 603 490 636 q 581 513 561 569 q 600 375 600 457 l 600 0 l 501 0 l 453 63 l 446 63 q 382 10 426 35 q 268 -14 338 -14 m 318 53 q 397 81 367 53 q 442 140 426 110 l 442 319 l 413 319 q 261 283 311 319 q 211 176 211 246 q 242 83 211 114 q 318 53 272 53 z "},"б":{"ha":747,"x_min":71,"x_max":688,"o":"m 379 -14 q 218 24 288 -14 q 110 138 149 61 q 71 328 71 214 l 71 375 q 85 591 71 506 q 129 727 100 676 q 201 805 158 778 q 297 844 243 832 l 497 890 q 582 917 551 903 q 618 957 613 931 l 654 957 l 654 854 q 640 806 654 828 q 588 775 626 785 l 353 722 q 252 676 296 708 q 182 584 208 644 q 150 425 156 524 l 157 425 q 246 564 186 517 q 407 611 306 611 q 549 578 485 611 q 650 476 613 544 q 688 299 688 407 q 649 122 688 192 q 540 19 610 53 q 379 -14 471 -14 m 379 46 q 445 67 413 46 q 500 144 478 89 q 522 299 522 199 q 500 451 522 396 q 445 528 478 506 q 379 551 413 551 q 313 528 346 551 q 258 451 281 506 q 236 299 236 396 q 258 144 236 199 q 313 67 281 89 q 379 46 346 46 z "},"в":{"ha":715,"x_min":0,"x_max":661,"o":"m 107 0 l 107 478 q 90 578 107 540 q 10 617 72 617 l 0 617 l 0 653 l 360 653 q 499 635 438 653 q 597 581 561 618 q 633 486 633 544 q 592 389 633 425 q 472 340 551 353 q 609 287 557 328 q 661 181 661 246 q 624 75 661 115 q 519 17 588 35 q 360 0 451 0 l 107 0 m 339 53 q 453 84 410 53 q 496 181 496 115 q 451 280 496 247 q 325 313 407 313 l 265 313 l 265 64 q 302 56 281 58 q 339 53 324 53 m 265 372 l 325 372 q 427 401 386 372 q 468 486 468 431 q 428 572 468 544 q 339 600 389 600 q 302 597 324 600 q 265 589 281 594 l 265 372 z "},"г":{"ha":608,"x_min":0,"x_max":575,"o":"m 107 0 l 107 478 q 90 578 107 540 q 10 617 72 617 l 0 617 l 0 653 l 471 653 q 554 618 533 653 q 575 542 575 583 l 575 450 l 539 450 q 501 559 539 525 q 401 593 464 593 l 265 593 l 265 0 l 107 0 z "},"ѓ":{"ha":608,"x_min":0,"x_max":575,"o":"m 107 0 l 107 478 q 90 578 107 540 q 10 617 72 617 l 0 617 l 0 653 l 471 653 q 554 618 533 653 q 575 542 575 583 l 575 450 l 539 450 q 501 559 539 525 q 401 593 464 593 l 265 593 l 265 0 l 107 0 m 269 708 l 326 897 l 478 897 l 338 708 l 269 708 z "},"ґ":{"ha":601,"x_min":0,"x_max":575,"o":"m 107 0 l 107 478 q 90 578 107 540 q 10 617 72 617 l 0 617 l 0 653 l 401 653 q 501 687 464 653 q 539 796 539 721 l 575 796 l 575 682 q 557 619 575 646 q 490 593 539 593 l 265 593 l 265 0 l 107 0 z "},"д":{"ha":803,"x_min":17,"x_max":782,"o":"m 17 -219 l 17 11 q 31 46 17 32 q 65 60 44 60 l 111 60 q 161 203 143 129 q 187 351 179 278 q 194 486 194 424 q 177 580 194 543 q 93 617 160 617 l 93 653 l 686 653 l 686 60 l 733 60 q 768 46 754 60 q 782 11 782 32 l 782 -219 l 718 -219 q 692 -85 711 -133 q 642 -19 674 -37 q 567 0 611 0 l 232 0 q 156 -19 188 0 q 107 -85 125 -37 q 81 -219 89 -133 l 17 -219 m 236 60 l 528 60 l 528 593 l 313 593 q 295 290 313 415 q 236 60 278 164 z "},"е":{"ha":694,"x_min":56,"x_max":644,"o":"m 364 -14 q 198 31 267 -14 q 92 153 129 76 q 56 326 56 231 q 93 507 56 431 q 197 625 131 583 q 350 667 264 667 q 506 632 440 667 q 608 532 572 597 q 644 378 644 467 l 640 303 l 221 303 q 266 110 221 175 q 388 46 311 46 q 503 77 458 46 q 585 160 549 108 l 621 132 q 563 59 597 92 q 479 6 528 26 q 364 -14 431 -14 m 221 363 l 479 363 q 445 550 479 493 q 350 607 411 607 q 286 581 315 607 q 239 500 257 554 q 221 363 221 446 z "},"ё":{"ha":694,"x_min":56,"x_max":644,"o":"m 364 -14 q 198 31 267 -14 q 92 153 129 76 q 56 326 56 231 q 93 507 56 431 q 197 625 131 583 q 350 667 264 667 q 506 632 440 667 q 608 532 572 597 q 644 378 644 467 l 640 303 l 221 303 q 266 110 221 175 q 388 46 311 46 q 503 77 458 46 q 585 160 549 108 l 621 132 q 563 59 597 92 q 479 6 528 26 q 364 -14 431 -14 m 221 363 l 479 363 q 445 550 479 493 q 350 607 411 607 q 286 581 315 607 q 239 500 257 554 q 221 363 221 446 m 471 743 q 419 764 439 743 q 400 814 400 785 q 419 865 400 844 q 471 886 439 886 q 523 865 503 886 q 543 814 543 844 q 523 764 543 785 q 471 743 503 743 m 226 743 q 175 764 194 743 q 156 814 156 785 q 175 865 156 844 q 226 886 194 886 q 278 865 258 886 q 299 814 299 844 q 278 764 299 785 q 226 743 258 743 z "},"ж":{"ha":997,"x_min":6,"x_max":992,"o":"m 90 -14 q 42 -10 67 -14 q 6 0 17 -6 l 6 31 q 76 63 42 38 q 147 139 111 89 l 308 365 l 182 550 q 123 601 158 586 q 46 617 88 617 l 46 653 l 76 653 q 192 627 149 653 q 269 553 235 601 l 419 332 l 419 653 l 578 653 l 578 332 l 728 553 q 806 627 763 601 q 921 653 849 653 l 951 653 l 951 617 q 874 601 910 617 q 815 550 839 586 l 689 365 l 850 139 q 920 63 885 89 q 992 31 956 38 l 992 0 q 956 -10 981 -6 q 907 -14 931 -14 q 801 13 850 -14 q 708 106 753 40 l 578 289 l 578 0 l 419 0 l 419 289 l 289 106 q 194 13 243 40 q 90 -14 146 -14 z "},"з":{"ha":636,"x_min":44,"x_max":582,"o":"m 296 -14 q 140 18 200 -14 q 44 97 81 50 l 81 126 q 144 73 103 100 q 260 46 186 46 q 375 76 332 46 q 418 174 418 106 q 377 272 418 239 q 239 306 336 306 l 174 306 l 174 365 l 239 365 q 360 394 322 365 q 397 486 397 424 q 358 578 397 549 q 267 607 318 607 q 152 566 199 607 q 101 457 106 525 l 65 457 q 69 553 65 515 q 100 618 74 592 q 178 656 126 644 q 294 667 231 667 q 430 649 369 667 q 526 591 490 631 q 561 486 561 551 q 519 385 561 424 q 406 333 476 346 q 535 278 488 321 q 582 174 582 236 q 545 63 582 104 q 444 4 508 22 q 296 -14 381 -14 z "},"и":{"ha":778,"x_min":0,"x_max":688,"o":"m 114 0 l 114 478 q 97 578 114 540 q 17 617 79 617 l 0 617 l 0 653 l 146 653 q 222 638 194 653 q 260 585 249 622 q 271 478 271 547 l 271 154 l 539 653 l 688 653 l 688 0 l 531 0 l 531 499 l 264 0 l 114 0 z "},"й":{"ha":778,"x_min":0,"x_max":688,"o":"m 114 0 l 114 478 q 97 578 114 540 q 17 617 79 617 l 0 617 l 0 653 l 146 653 q 222 638 194 653 q 260 585 249 622 q 271 478 271 547 l 271 154 l 539 653 l 688 653 l 688 0 l 531 0 l 531 499 l 264 0 l 114 0 m 393 715 q 278 749 325 715 q 204 838 231 783 l 239 863 q 298 817 261 836 q 393 799 335 799 q 488 817 451 799 q 549 863 525 836 l 583 838 q 509 749 557 783 q 393 715 461 715 z "},"к":{"ha":713,"x_min":-1,"x_max":707,"o":"m 622 -14 q 515 11 565 -14 q 417 97 464 36 l 274 283 l 274 0 l 115 0 l 115 478 q 98 578 115 540 q 18 617 81 617 l -1 617 l -1 653 l 149 653 q 224 638 197 653 q 263 585 251 622 q 274 478 274 547 l 274 332 l 443 553 q 523 626 482 600 q 636 653 564 653 l 667 653 l 667 617 q 596 601 629 617 q 533 550 563 586 l 390 365 l 565 139 q 636 64 601 90 q 707 31 671 38 l 707 0 q 671 -10 696 -6 q 622 -14 646 -14 z "},"ќ":{"ha":713,"x_min":-1,"x_max":707,"o":"m 622 -14 q 515 11 565 -14 q 417 97 464 36 l 274 283 l 274 0 l 115 0 l 115 478 q 98 578 115 540 q 18 617 81 617 l -1 617 l -1 653 l 149 653 q 224 638 197 653 q 263 585 251 622 q 274 478 274 547 l 274 332 l 443 553 q 523 626 482 600 q 636 653 564 653 l 667 653 l 667 617 q 596 601 629 617 q 533 550 563 586 l 390 365 l 565 139 q 636 64 601 90 q 707 31 671 38 l 707 0 q 671 -10 696 -6 q 622 -14 646 -14 m 307 674 l 364 863 l 515 863 l 375 674 l 307 674 z "},"л":{"ha":775,"x_min":10,"x_max":685,"o":"m 88 -18 q 45 -14 69 -18 q 10 -6 21 -10 l 10 32 q 76 56 44 36 q 133 124 108 75 q 173 260 158 172 q 188 486 188 349 q 169 580 188 543 q 86 617 151 617 l 86 653 l 685 653 l 685 0 l 528 0 l 528 593 l 313 593 l 313 486 q 295 242 313 339 q 247 88 278 144 q 175 6 215 31 q 88 -18 135 -18 z "},"м":{"ha":915,"x_min":90,"x_max":904,"o":"m 904 -32 q 702 34 761 -32 q 643 225 643 100 l 643 490 l 432 0 l 393 0 l 154 504 l 154 1 l 90 1 l 90 653 l 244 653 l 451 218 l 643 661 l 801 661 l 801 225 q 813 109 801 158 q 847 32 824 60 q 904 0 869 4 l 904 -32 z "},"н":{"ha":789,"x_min":0,"x_max":789,"o":"m 114 0 l 114 478 q 97 578 114 540 q 17 617 79 617 l 0 617 l 0 653 l 146 653 q 222 638 194 653 q 260 585 249 622 q 271 478 271 547 l 271 358 l 517 358 l 517 653 l 674 653 l 674 175 q 691 74 674 113 q 771 36 708 36 l 789 36 l 789 0 l 642 0 q 566 15 593 0 q 528 67 539 29 q 517 175 517 106 l 517 299 l 271 299 l 271 0 l 114 0 z "},"о":{"ha":754,"x_min":56,"x_max":699,"o":"m 376 -14 q 204 31 276 -14 q 94 154 132 76 q 56 326 56 232 q 94 499 56 422 q 204 622 132 576 q 376 667 276 667 q 550 622 478 667 q 660 499 622 576 q 699 326 699 422 q 660 154 699 232 q 550 31 622 76 q 376 -14 478 -14 m 376 46 q 463 83 428 46 q 516 183 497 119 q 535 326 535 247 q 516 470 535 407 q 463 570 497 533 q 376 607 428 607 q 292 570 328 607 q 238 470 257 533 q 219 326 219 407 q 238 183 219 247 q 292 83 257 119 q 376 46 328 46 z "},"п":{"ha":758,"x_min":0,"x_max":668,"o":"m 107 0 l 107 478 q 90 578 107 540 q 10 617 72 617 l 0 617 l 0 653 l 668 653 l 668 0 l 510 0 l 510 593 l 265 593 l 265 0 l 107 0 z "},"р":{"ha":771,"x_min":-1,"x_max":714,"o":"m 115 -264 l 115 478 q 98 578 115 540 q 18 617 81 617 l -1 617 l -1 653 l 132 653 q 208 639 181 653 q 249 593 235 625 q 322 642 275 617 q 440 667 368 667 q 592 622 532 667 q 683 499 653 576 q 714 326 714 422 q 683 154 714 232 q 590 31 653 76 q 431 -14 526 -14 q 339 -1 379 -14 q 272 28 299 13 l 272 -264 l 115 -264 m 397 46 q 486 83 453 46 q 535 183 519 119 q 550 326 550 247 q 535 470 550 407 q 490 570 521 533 q 407 607 458 607 q 324 588 356 607 q 272 544 292 568 l 272 88 q 329 60 296 74 q 397 46 363 46 z "},"с":{"ha":682,"x_min":56,"x_max":642,"o":"m 376 -14 q 198 33 269 -14 q 91 157 126 79 q 56 326 56 235 q 91 497 56 419 q 198 620 126 574 q 376 667 269 667 q 507 656 454 667 q 586 618 560 644 q 617 550 613 592 q 621 429 621 508 l 585 429 q 530 563 579 518 q 401 607 481 607 q 303 574 343 607 q 241 478 263 540 q 219 326 219 415 q 240 177 219 240 q 301 80 261 114 q 404 46 342 46 q 523 77 478 46 q 604 160 568 108 l 642 132 q 583 59 618 92 q 497 6 547 26 q 376 -14 447 -14 z "},"т":{"ha":653,"x_min":35,"x_max":636,"o":"m 261 0 l 261 593 l 208 593 q 108 559 146 593 q 71 450 71 525 l 35 450 l 35 542 q 56 618 35 583 q 139 653 76 653 l 636 653 l 636 593 l 419 593 l 419 0 l 261 0 z "},"у":{"ha":710,"x_min":-19,"x_max":679,"o":"m 135 -278 l 135 -232 q 251 -204 204 -232 q 331 -93 299 -176 l 358 -17 l 119 528 q 63 606 99 579 q -19 639 28 633 l -19 667 l 101 667 q 209 637 164 667 q 276 556 254 607 l 436 192 l 607 653 l 679 653 l 403 -90 q 343 -206 375 -165 q 272 -262 311 -247 q 185 -278 233 -278 l 135 -278 z "},"ў":{"ha":710,"x_min":-19,"x_max":679,"o":"m 135 -278 l 135 -232 q 251 -204 204 -232 q 331 -93 299 -176 l 358 -17 l 119 528 q 63 606 99 579 q -19 639 28 633 l -19 667 l 101 667 q 209 637 164 667 q 276 556 254 607 l 436 192 l 607 653 l 679 653 l 403 -90 q 343 -206 375 -165 q 272 -262 311 -247 q 185 -278 233 -278 l 135 -278 m 411 697 q 296 731 343 697 q 222 819 249 765 l 257 844 q 316 799 279 818 q 411 781 353 781 q 506 799 469 781 q 567 844 543 818 l 601 819 q 527 731 575 765 q 411 697 479 697 z "},"ф":{"ha":954,"x_min":57,"x_max":897,"o":"m 399 -264 l 399 -14 q 211 37 288 -8 q 96 157 135 82 q 57 326 57 232 q 96 496 57 421 q 211 616 135 571 q 399 667 288 661 l 399 742 q 381 842 399 804 q 301 881 364 881 l 285 881 l 285 917 l 431 917 q 506 901 479 917 q 544 849 533 886 q 556 742 556 811 l 556 667 q 743 616 667 661 q 858 496 819 571 q 897 326 897 421 q 858 157 897 232 q 743 37 819 82 q 556 -14 667 -8 l 556 -264 l 399 -264 m 403 35 l 403 618 q 309 575 350 611 q 244 477 268 539 q 221 326 221 415 q 244 176 221 239 q 309 78 268 114 q 403 35 350 43 m 551 35 q 646 78 606 43 q 709 176 686 114 q 732 326 732 239 q 709 477 732 415 q 646 575 686 539 q 551 618 606 611 l 551 35 z "},"х":{"ha":685,"x_min":7,"x_max":679,"o":"m 40 0 l 269 300 l 142 514 q 78 592 113 564 q 7 625 43 619 l 7 653 l 133 653 q 233 623 193 653 q 303 542 272 593 l 378 415 l 558 653 l 642 653 l 413 354 l 542 139 q 606 61 571 89 q 679 28 642 33 l 679 0 l 550 0 q 451 30 490 0 q 381 111 411 60 l 306 238 l 124 0 l 40 0 z "},"ч":{"ha":757,"x_min":10,"x_max":667,"o":"m 510 0 l 510 256 q 454 239 489 247 q 379 231 419 231 q 253 249 313 231 q 158 313 194 268 q 121 436 121 358 l 121 478 q 103 578 121 540 q 24 617 86 617 l 10 617 l 10 653 l 157 653 q 233 638 206 653 q 271 585 260 622 q 282 478 282 547 l 282 431 q 316 322 282 354 q 400 290 350 290 q 463 297 436 290 q 510 314 489 304 l 510 653 l 667 653 l 667 0 l 510 0 z "},"ц":{"ha":790,"x_min":0,"x_max":771,"o":"m 711 -219 q 685 -85 704 -133 q 635 -19 665 -37 q 558 0 604 0 l 114 0 l 114 478 q 97 578 114 540 q 17 617 79 617 l 0 617 l 0 653 l 146 653 q 222 638 194 653 q 260 585 249 622 q 271 478 271 547 l 271 60 l 517 60 l 517 653 l 674 653 l 674 60 l 722 60 q 757 46 743 60 q 771 11 771 32 l 771 -219 l 711 -219 z "},"ш":{"ha":1042,"x_min":0,"x_max":951,"o":"m 114 0 l 114 478 q 97 578 114 540 q 17 617 79 617 l 0 617 l 0 653 l 146 653 q 222 638 194 653 q 260 585 249 622 q 271 478 271 547 l 271 60 l 454 60 l 454 653 l 611 653 l 611 60 l 794 60 l 794 653 l 951 653 l 951 0 l 114 0 z "},"щ":{"ha":1068,"x_min":0,"x_max":1049,"o":"m 989 -219 q 963 -85 982 -133 q 913 -19 943 -37 q 836 0 882 0 l 114 0 l 114 478 q 97 578 114 540 q 17 617 79 617 l 0 617 l 0 653 l 146 653 q 222 638 194 653 q 260 585 249 622 q 271 478 271 547 l 271 60 l 454 60 l 454 653 l 611 653 l 611 60 l 794 60 l 794 653 l 951 653 l 951 60 l 1000 60 q 1035 46 1021 60 q 1049 11 1049 32 l 1049 -219 l 989 -219 z "},"џ":{"ha":764,"x_min":0,"x_max":674,"o":"m 358 -208 l 338 0 l 114 0 l 114 478 q 97 578 114 540 q 17 617 79 617 l 0 617 l 0 653 l 146 653 q 222 638 194 653 q 260 585 249 622 q 271 478 271 547 l 271 60 l 517 60 l 517 653 l 674 653 l 674 0 l 451 0 l 431 -208 l 358 -208 z "},"ь":{"ha":693,"x_min":0,"x_max":660,"o":"m 114 0 l 114 478 q 97 578 114 540 q 17 617 79 617 l 0 617 l 0 653 l 146 653 q 222 638 194 653 q 260 585 249 622 q 271 478 271 547 l 271 389 l 375 389 q 524 369 460 389 q 624 306 588 349 q 660 194 660 264 q 624 83 660 126 q 524 20 588 40 q 375 0 460 0 l 114 0 m 346 53 q 453 84 411 53 q 496 194 496 115 q 453 305 496 274 q 346 336 411 336 q 308 333 331 336 q 271 325 286 331 l 271 64 q 308 56 286 58 q 346 53 331 53 z "},"ъ":{"ha":822,"x_min":43,"x_max":790,"o":"m 243 0 l 243 593 l 231 593 q 128 546 161 593 q 90 408 96 499 l 43 408 l 43 604 q 57 639 43 625 q 92 653 71 653 l 401 653 l 401 389 l 506 389 q 654 369 590 389 q 754 306 718 349 q 790 194 790 264 q 754 83 790 126 q 654 20 718 40 q 506 0 590 0 l 243 0 m 475 53 q 583 84 540 53 q 625 194 625 115 q 583 305 625 274 q 475 336 540 336 q 438 333 460 336 q 401 325 417 331 l 401 64 q 438 56 417 58 q 475 53 460 53 z "},"ы":{"ha":997,"x_min":0,"x_max":996,"o":"m 114 0 l 114 478 q 97 578 114 540 q 17 617 79 617 l 0 617 l 0 653 l 146 653 q 222 638 194 653 q 260 585 249 622 q 271 478 271 547 l 271 389 l 368 389 q 512 369 449 389 q 610 306 575 349 q 646 194 646 264 q 610 83 646 126 q 512 20 575 40 q 368 0 449 0 l 114 0 m 346 53 q 442 84 401 53 q 482 194 482 115 q 442 305 482 274 q 346 336 401 336 q 308 333 331 336 q 271 325 286 331 l 271 64 q 308 56 286 58 q 346 53 331 53 m 850 0 q 774 15 801 0 q 736 67 747 29 q 725 175 725 106 l 725 653 l 882 653 l 882 175 q 899 74 882 113 q 979 36 917 36 l 996 36 l 996 0 l 850 0 z "},"љ":{"ha":1092,"x_min":10,"x_max":1058,"o":"m 88 -18 q 45 -14 69 -18 q 10 -6 21 -10 l 10 32 q 76 56 44 36 q 133 124 108 75 q 173 260 158 172 q 188 486 188 349 q 169 580 188 543 q 86 617 151 617 l 86 653 l 669 653 l 669 389 l 774 389 q 922 369 858 389 q 1022 306 986 349 q 1058 194 1058 264 q 1022 83 1058 126 q 922 20 986 40 q 774 0 858 0 l 511 0 l 511 593 l 313 593 l 313 486 q 295 242 313 339 q 247 88 278 144 q 175 6 215 31 q 88 -18 135 -18 m 743 53 q 851 84 810 53 q 893 194 893 115 q 851 305 893 274 q 743 336 810 336 q 706 333 728 336 q 669 325 685 331 l 669 64 q 706 56 685 58 q 743 53 728 53 z "},"њ":{"ha":1081,"x_min":0,"x_max":1049,"o":"m 114 0 l 114 478 q 97 578 114 540 q 17 617 79 617 l 0 617 l 0 653 l 146 653 q 222 638 194 653 q 260 585 249 622 q 271 478 271 547 l 271 369 l 503 369 l 503 653 l 660 653 l 660 369 l 764 369 q 913 349 849 369 q 1013 289 976 329 q 1049 185 1049 249 q 1013 81 1049 122 q 913 19 976 39 q 764 0 849 0 l 503 0 l 503 310 l 271 310 l 271 0 l 114 0 m 735 53 q 842 83 800 53 q 885 185 885 114 q 842 286 885 256 q 735 317 800 317 q 697 314 719 317 q 660 306 675 311 l 660 64 q 697 56 675 58 q 735 53 719 53 z "},"ѕ":{"ha":638,"x_min":60,"x_max":586,"o":"m 318 -14 q 179 1 233 -14 q 97 43 125 17 q 68 107 72 67 q 64 200 64 147 l 104 200 q 160 89 115 132 q 290 46 204 46 q 401 73 368 46 q 435 142 435 100 q 401 208 435 182 q 310 258 367 235 l 233 292 q 106 370 151 325 q 60 483 60 415 q 131 619 60 572 q 310 667 201 667 q 447 651 393 667 q 526 610 500 636 q 557 546 553 586 q 561 453 561 506 l 521 453 q 465 564 510 521 q 338 607 421 607 q 242 580 272 607 q 211 511 211 553 q 238 449 211 475 q 314 403 265 424 l 397 368 q 538 285 490 329 q 586 169 586 242 q 510 33 586 81 q 318 -14 433 -14 z "},"є":{"ha":689,"x_min":56,"x_max":642,"o":"m 376 -14 q 198 33 269 -14 q 91 157 126 79 q 56 326 56 235 q 91 497 56 419 q 198 620 126 574 q 376 667 269 667 q 507 656 454 667 q 586 618 560 644 q 617 550 613 592 q 621 429 621 508 l 585 429 q 530 563 579 518 q 401 607 481 607 q 308 576 347 607 q 247 489 268 546 q 221 351 225 432 l 494 351 l 494 292 l 221 292 q 273 110 226 175 q 404 46 319 46 q 523 77 478 46 q 604 160 568 108 l 642 132 q 583 59 618 92 q 497 6 547 26 q 376 -14 447 -14 z "},"э":{"ha":689,"x_min":47,"x_max":633,"o":"m 313 -14 q 192 6 243 -14 q 108 59 142 26 q 47 132 74 92 l 85 160 q 166 78 121 110 q 285 46 211 46 q 417 110 371 46 q 468 292 463 175 l 194 292 l 194 351 l 468 351 q 443 489 465 432 q 382 576 421 546 q 289 607 343 607 q 159 563 208 607 q 104 429 110 518 l 68 429 q 72 550 68 508 q 103 618 76 592 q 182 656 129 644 q 313 667 235 667 q 492 620 421 667 q 598 497 563 574 q 633 326 633 419 q 598 157 633 235 q 492 33 563 79 q 313 -14 421 -14 z "},"і":{"ha":358,"x_min":-3,"x_max":272,"o":"m 114 0 l 114 478 q 97 578 114 540 q 17 617 79 617 l -3 617 l -3 653 l 147 653 q 223 638 196 653 q 261 585 250 622 q 272 478 272 547 l 272 0 l 114 0 m 189 731 q 120 760 144 731 q 96 831 96 790 q 116 882 96 863 q 167 901 136 901 q 236 872 211 901 q 261 803 261 842 q 240 750 261 769 q 189 731 219 731 z "},"ї":{"ha":358,"x_min":-19,"x_max":385,"o":"m 114 0 l 114 478 q 97 578 114 540 q 17 617 79 617 l -3 617 l -3 653 l 147 653 q 223 638 196 653 q 261 585 250 622 q 272 478 272 547 l 272 0 l 114 0 m 74 744 q 5 774 29 744 q -19 844 -19 804 q 1 896 -19 876 q 51 915 21 915 q 120 885 96 915 q 144 817 144 856 q 124 764 144 783 q 74 744 104 744 m 313 744 q 244 774 269 744 q 219 844 219 804 q 240 896 219 876 q 292 915 260 915 q 360 885 335 915 q 385 817 385 856 q 365 764 385 783 q 313 744 344 744 z "},"ј":{"ha":358,"x_min":-12,"x_max":272,"o":"m -12 -264 l -12 -232 q 60 -199 32 -228 q 101 -112 88 -169 q 114 35 114 -56 l 114 478 q 97 578 114 540 q 17 617 79 617 l -3 617 l -3 653 l 147 653 q 223 638 196 653 q 261 585 250 622 q 272 478 272 547 l 272 35 q 247 -141 272 -75 q 159 -235 221 -207 q -12 -264 97 -264 m 189 731 q 120 760 144 731 q 96 831 96 790 q 116 882 96 863 q 167 901 136 901 q 236 872 211 901 q 261 803 261 842 q 240 750 261 769 q 189 731 219 731 z "},"ћ":{"ha":749,"x_min":-7,"x_max":665,"o":"m 90 0 l 90 690 l -7 690 l -7 750 l 90 750 l 90 833 l 160 917 l 249 917 l 249 750 l 399 750 l 399 690 l 249 690 l 249 528 q 322 577 278 557 q 421 597 367 597 q 540 576 485 597 q 631 502 596 556 q 665 347 665 449 l 665 0 l 507 0 l 507 347 q 489 456 507 417 q 442 513 471 496 q 379 531 414 531 q 309 510 343 531 q 249 461 275 490 l 249 0 l 90 0 z "},"ю":{"ha":996,"x_min":0,"x_max":940,"o":"m 639 -14 q 488 26 554 -14 q 382 137 421 67 q 339 299 343 207 l 271 299 l 271 0 l 114 0 l 114 478 q 97 578 114 540 q 17 617 79 617 l 0 617 l 0 653 l 146 653 q 222 638 194 653 q 260 585 249 622 q 271 478 271 547 l 271 358 l 339 358 q 384 517 346 447 q 488 627 422 588 q 639 667 554 667 q 799 622 731 667 q 903 501 867 578 q 940 326 940 425 q 903 152 940 229 q 799 31 867 75 q 639 -14 731 -14 m 639 46 q 713 80 683 46 q 760 177 743 114 q 776 326 776 240 q 760 476 776 413 q 713 573 743 539 q 639 607 683 607 q 567 573 597 607 q 519 476 536 539 q 503 326 503 413 q 519 177 503 240 q 567 80 536 114 q 639 46 597 46 z "},"я":{"ha":724,"x_min":22,"x_max":710,"o":"m 107 -18 q 60 -14 82 -18 q 22 -4 38 -10 l 22 29 q 94 66 64 35 q 146 135 124 97 l 229 279 q 115 338 160 290 q 69 457 69 385 q 108 573 69 531 q 214 634 147 615 q 364 653 281 653 l 710 653 l 710 617 l 704 617 q 626 578 643 617 q 610 478 610 540 l 610 0 l 451 0 l 451 272 l 371 272 l 288 107 q 216 13 257 44 q 107 -18 175 -18 m 378 326 q 423 331 401 326 q 451 338 444 336 l 451 589 q 423 595 444 590 q 378 600 401 600 q 276 569 317 600 q 235 465 235 539 q 276 359 235 392 q 378 326 317 326 z "},"ђ":{"ha":749,"x_min":-7,"x_max":665,"o":"m 385 -194 l 385 -162 q 477 -94 447 -156 q 507 88 507 -32 l 507 347 q 489 456 507 417 q 442 513 471 496 q 379 531 414 531 q 309 510 343 531 q 249 461 275 490 l 249 0 l 90 0 l 90 690 l -7 690 l -7 750 l 90 750 l 90 833 l 160 917 l 249 917 l 249 750 l 399 750 l 399 690 l 249 690 l 249 528 q 322 577 278 557 q 421 597 367 597 q 540 576 485 597 q 631 502 596 556 q 665 347 665 449 l 665 88 q 637 -71 665 -8 q 547 -164 608 -133 q 385 -194 486 -194 z "},"ء":{"ha":661,"x_min":71,"x_max":592,"o":"m 94 -19 q 71 39 71 8 q 92 92 71 69 q 156 121 114 115 q 261 104 199 126 l 217 110 q 167 142 196 117 q 118 210 139 168 q 97 307 97 253 q 114 392 97 350 q 163 469 131 435 q 247 525 196 504 q 367 546 299 546 q 462 531 426 546 q 514 489 497 515 q 531 429 531 463 q 508 365 531 383 q 456 346 486 346 q 401 358 425 346 q 391 410 403 386 q 358 449 379 435 q 307 460 336 463 l 331 464 q 297 442 315 460 q 266 394 279 424 q 253 325 253 365 q 278 233 253 271 q 347 176 304 196 q 440 157 390 157 q 497 162 472 157 q 538 168 522 167 q 578 150 565 168 q 592 109 592 132 q 582 68 592 86 q 554 49 572 50 q 492 44 532 47 q 402 35 451 40 q 303 22 353 29 q 208 8 253 15 q 133 -6 164 1 q 94 -19 103 -12 z "},"ا":{"ha":365,"x_min":69,"x_max":296,"o":"m 217 0 q 153 28 168 0 q 139 92 139 57 l 139 713 q 126 787 139 760 q 97 828 114 814 q 69 849 81 842 q 83 874 72 858 q 117 903 94 890 q 172 917 139 917 q 235 899 207 917 q 279 844 263 881 q 296 756 296 808 l 296 90 q 281 28 296 57 q 217 0 265 0 z "},"ﺎ":{"ha":440,"x_min":69,"x_max":468,"o":"m 401 0 q 266 35 325 0 q 173 129 207 69 q 139 265 139 189 l 139 713 q 126 787 139 760 q 97 828 114 814 q 69 849 81 842 q 83 874 72 858 q 117 903 94 890 q 172 917 139 917 q 235 899 207 917 q 279 844 263 881 q 296 756 296 808 l 296 265 q 307 201 296 233 q 342 147 318 168 q 401 126 365 126 l 440 126 l 440 0 l 401 0 m 440 0 l 440 126 q 463 110 457 126 q 468 64 468 93 q 463 17 468 35 q 440 0 457 0 z "},"أ":{"ha":365,"x_min":28,"x_max":321,"o":"m 217 0 q 153 28 168 0 q 139 92 139 57 l 139 628 q 126 702 139 675 q 97 743 114 729 q 69 764 81 757 q 83 790 72 774 q 117 819 94 806 q 172 832 139 832 q 235 814 207 832 q 279 760 263 796 q 296 671 296 724 l 296 90 q 281 28 296 57 q 217 0 265 0 m 56 881 q 35 906 40 890 q 33 935 29 921 q 53 958 38 949 q 97 964 69 967 q 63 1003 81 975 q 44 1067 44 1031 q 60 1130 44 1099 q 110 1181 76 1161 q 193 1200 143 1200 q 247 1191 226 1200 q 275 1168 267 1182 q 283 1135 283 1154 q 271 1099 283 1110 q 242 1090 258 1089 q 213 1096 226 1090 q 201 1133 214 1117 q 168 1151 189 1150 q 147 1126 158 1144 q 135 1079 135 1107 q 149 1026 135 1047 q 188 995 164 1006 q 236 985 211 985 q 266 988 253 985 q 288 992 279 990 q 315 975 308 992 q 315 942 321 958 q 297 925 310 926 q 251 922 281 924 q 190 916 222 919 q 126 908 157 913 q 76 896 96 903 q 56 881 56 889 z "},"ﺄ":{"ha":440,"x_min":28,"x_max":468,"o":"m 401 0 q 266 35 325 0 q 173 129 207 69 q 139 265 139 189 l 139 626 q 126 701 139 674 q 97 742 114 728 q 69 763 81 756 q 83 789 72 772 q 117 818 94 806 q 172 831 139 831 q 235 813 207 831 q 279 759 263 794 q 296 669 296 724 l 296 265 q 307 201 296 233 q 342 147 318 168 q 401 126 365 126 l 440 126 l 440 0 l 401 0 m 440 0 l 440 126 q 463 110 457 126 q 468 64 468 93 q 463 17 468 35 q 440 0 457 0 m 56 881 q 35 906 40 890 q 33 935 29 921 q 53 958 38 949 q 97 964 69 967 q 63 1003 81 975 q 44 1067 44 1031 q 60 1130 44 1099 q 110 1181 76 1161 q 193 1200 143 1200 q 247 1191 226 1200 q 275 1168 267 1182 q 283 1135 283 1154 q 271 1099 283 1110 q 242 1090 258 1089 q 213 1096 226 1090 q 201 1133 214 1117 q 168 1151 189 1150 q 147 1126 158 1144 q 135 1079 135 1107 q 149 1026 135 1047 q 188 995 164 1006 q 236 985 211 985 q 266 988 253 985 q 288 992 279 990 q 315 975 308 992 q 315 942 321 958 q 297 925 310 926 q 251 922 281 924 q 190 916 222 919 q 126 908 157 913 q 76 896 96 903 q 56 881 56 889 z "},"إ":{"ha":365,"x_min":69,"x_max":364,"o":"m 217 0 q 153 28 168 0 q 139 92 139 57 l 139 713 q 126 787 139 760 q 97 828 114 814 q 69 849 81 842 q 83 874 72 858 q 117 903 94 890 q 172 917 139 917 q 235 899 207 917 q 279 844 263 881 q 296 756 296 808 l 296 90 q 281 28 296 57 q 217 0 265 0 m 97 -387 q 76 -364 82 -379 q 76 -334 71 -349 q 96 -311 81 -319 q 139 -304 111 -303 q 106 -266 124 -293 q 88 -203 88 -239 q 103 -140 88 -171 q 153 -89 119 -108 q 238 -69 186 -69 q 290 -78 269 -69 q 319 -101 310 -86 q 328 -133 328 -115 q 315 -169 328 -158 q 285 -179 301 -179 q 256 -172 269 -179 q 245 -135 257 -151 q 211 -117 233 -118 q 189 -142 200 -124 q 178 -190 178 -161 q 192 -242 178 -221 q 231 -274 207 -262 q 279 -285 254 -285 q 309 -281 296 -285 q 331 -278 322 -278 q 358 -294 351 -278 q 358 -326 364 -310 q 340 -343 353 -343 q 294 -347 324 -344 q 233 -353 265 -350 q 169 -362 200 -357 q 119 -373 139 -367 q 97 -387 99 -379 z "},"ﺈ":{"ha":440,"x_min":69,"x_max":468,"o":"m 401 0 q 266 35 325 0 q 173 129 207 69 q 139 265 139 189 l 139 713 q 126 787 139 760 q 97 828 114 814 q 69 849 81 842 q 83 874 72 858 q 117 903 94 890 q 172 917 139 917 q 235 899 207 917 q 279 844 263 881 q 296 756 296 808 l 296 265 q 307 201 296 233 q 342 147 318 168 q 401 126 365 126 l 440 126 l 440 0 l 401 0 m 440 0 l 440 126 q 463 110 457 126 q 468 64 468 93 q 463 17 468 35 q 440 0 457 0 m 103 -387 q 82 -364 88 -379 q 81 -334 76 -349 q 101 -311 86 -319 q 144 -304 117 -303 q 111 -266 129 -293 q 93 -203 93 -239 q 109 -140 93 -171 q 158 -89 125 -108 q 243 -69 192 -69 q 295 -78 275 -69 q 324 -101 315 -86 q 333 -133 333 -115 q 320 -169 333 -158 q 291 -179 307 -179 q 261 -172 275 -179 q 251 -135 263 -151 q 217 -117 239 -118 q 194 -142 206 -124 q 183 -190 183 -161 q 198 -242 183 -221 q 236 -274 213 -262 q 285 -285 260 -285 q 315 -281 301 -285 q 336 -278 328 -278 q 363 -294 357 -278 q 364 -326 369 -310 q 346 -343 358 -343 q 300 -347 329 -344 q 238 -353 271 -350 q 175 -362 206 -357 q 124 -373 144 -367 q 103 -387 104 -379 z "},"آ":{"ha":365,"x_min":-35,"x_max":379,"o":"m 217 0 q 153 28 168 0 q 139 92 139 57 l 139 628 q 126 702 139 675 q 97 743 114 729 q 69 764 81 757 q 83 790 72 774 q 117 819 94 806 q 172 832 139 832 q 235 814 207 832 q 279 760 263 796 q 296 671 296 724 l 296 90 q 281 28 296 57 q 217 0 265 0 m 257 889 q 178 904 213 889 q 111 934 143 919 q 44 949 79 949 q 4 938 15 949 q -22 926 -7 926 q -34 942 -33 926 q -22 980 -35 958 q 17 1017 -10 1001 q 85 1033 43 1033 q 160 1021 124 1033 q 229 994 196 1008 q 296 981 263 981 q 332 988 319 981 q 352 1001 344 994 q 369 1007 360 1007 q 380 988 379 1006 q 369 948 381 971 q 330 907 357 925 q 257 889 303 889 z "},"ﺂ":{"ha":440,"x_min":-35,"x_max":468,"o":"m 401 0 q 266 35 325 0 q 173 129 207 69 q 139 265 139 189 l 139 626 q 126 701 139 674 q 97 742 114 728 q 69 763 81 756 q 83 789 72 772 q 117 818 94 806 q 172 831 139 831 q 235 813 207 831 q 279 759 263 794 q 296 669 296 724 l 296 265 q 307 201 296 233 q 342 147 318 168 q 401 126 365 126 l 440 126 l 440 0 l 401 0 m 440 0 l 440 126 q 463 110 457 126 q 468 64 468 93 q 463 17 468 35 q 440 0 457 0 m 257 889 q 178 904 213 889 q 111 934 143 919 q 44 949 79 949 q 4 938 15 949 q -22 926 -7 926 q -34 942 -33 926 q -22 980 -35 958 q 17 1017 -10 1001 q 85 1033 43 1033 q 160 1021 124 1033 q 229 994 196 1008 q 296 981 263 981 q 332 988 319 981 q 352 1001 344 994 q 369 1007 360 1007 q 380 988 379 1006 q 369 948 381 971 q 330 907 357 925 q 257 889 303 889 z "},"ٱ":{"ha":365,"x_min":19,"x_max":324,"o":"m 217 0 q 153 28 168 0 q 139 92 139 57 l 139 628 q 126 702 139 675 q 97 743 114 729 q 69 764 81 757 q 83 790 72 774 q 117 819 94 806 q 172 832 139 832 q 235 814 207 832 q 279 760 263 796 q 296 671 296 724 l 296 90 q 281 28 296 57 q 217 0 265 0 m 32 888 q 21 903 24 888 q 21 933 18 918 q 32 947 24 947 l 64 947 q 72 972 64 951 q 98 1018 81 993 q 144 1062 115 1043 q 215 1081 174 1081 q 269 1069 244 1081 q 309 1035 294 1058 q 324 975 324 1013 q 300 908 324 929 q 246 888 276 888 l 32 888 m 94 947 l 221 947 q 244 959 238 947 q 250 985 250 971 q 237 1019 250 1006 q 197 1033 224 1033 q 146 1018 169 1033 q 108 983 122 1003 q 94 947 94 963 z "},"ﭑ":{"ha":440,"x_min":19,"x_max":468,"o":"m 401 0 q 266 35 325 0 q 173 129 207 69 q 139 265 139 189 l 139 626 q 126 701 139 674 q 97 742 114 728 q 69 763 81 756 q 83 789 72 772 q 117 818 94 806 q 172 831 139 831 q 235 813 207 831 q 279 759 263 794 q 296 669 296 724 l 296 265 q 307 201 296 233 q 342 147 318 168 q 401 126 365 126 l 440 126 l 440 0 l 401 0 m 440 0 l 440 126 q 463 110 457 126 q 468 64 468 93 q 463 17 468 35 q 440 0 457 0 m 32 888 q 21 903 24 888 q 21 933 18 918 q 32 947 24 947 l 64 947 q 72 972 64 951 q 98 1018 81 993 q 144 1062 115 1043 q 215 1081 174 1081 q 269 1069 244 1081 q 309 1035 294 1058 q 324 975 324 1013 q 300 908 324 929 q 246 888 276 888 l 32 888 m 94 947 l 221 947 q 244 959 238 947 q 250 985 250 971 q 237 1019 250 1006 q 197 1033 224 1033 q 146 1018 169 1033 q 108 983 122 1003 q 94 947 94 963 z "},"ٮ":{"ha":1103,"x_min":90,"x_max":1013,"o":"m 367 0 q 163 94 236 0 q 90 351 90 188 q 100 464 90 408 q 129 565 110 519 q 181 639 149 611 q 258 667 214 667 q 307 656 288 667 q 338 631 326 646 q 353 606 350 617 q 291 536 314 574 q 258 454 268 499 q 249 354 249 410 q 252 290 249 322 q 264 228 256 257 q 286 176 272 199 q 320 140 300 154 q 367 126 340 126 l 750 126 q 809 147 786 126 q 843 201 832 168 q 854 265 854 233 l 854 517 q 873 575 854 551 q 933 599 892 599 q 993 575 974 599 q 1013 517 1013 551 l 1013 265 q 978 129 1013 189 q 885 35 944 69 q 750 0 826 0 l 367 0 z "},"ب":{"ha":1103,"x_min":90,"x_max":1013,"o":"m 367 0 q 163 94 236 0 q 90 351 90 188 q 100 464 90 408 q 129 565 110 519 q 181 639 149 611 q 258 667 214 667 q 307 656 288 667 q 338 631 326 646 q 353 606 350 617 q 291 536 314 574 q 258 454 268 499 q 249 354 249 410 q 252 290 249 322 q 264 228 256 257 q 286 176 272 199 q 320 140 300 154 q 367 126 340 126 l 750 126 q 809 147 786 126 q 843 201 832 168 q 854 265 854 233 l 854 517 q 873 575 854 551 q 933 599 892 599 q 993 575 974 599 q 1013 517 1013 551 l 1013 265 q 978 129 1013 189 q 885 35 944 69 q 750 0 826 0 l 367 0 m 553 -294 q 485 -267 513 -294 q 458 -203 458 -240 q 485 -138 458 -165 q 551 -111 513 -111 q 616 -138 589 -111 q 643 -203 643 -165 q 616 -267 643 -240 q 553 -294 589 -294 z "},"ﺐ":{"ha":1157,"x_min":90,"x_max":1185,"o":"m 1117 0 q 982 35 1042 0 q 888 129 922 69 q 854 265 854 189 l 1013 265 q 1024 201 1013 233 q 1058 147 1035 168 q 1117 126 1082 126 l 1157 126 l 1157 0 l 1117 0 m 367 0 q 163 94 236 0 q 90 351 90 188 q 100 464 90 408 q 129 565 110 519 q 181 639 149 611 q 258 667 214 667 q 307 656 288 667 q 338 631 326 646 q 353 606 350 617 q 291 536 314 574 q 258 454 268 499 q 249 354 249 410 q 252 290 249 322 q 264 228 256 257 q 286 176 272 199 q 320 140 300 154 q 367 126 340 126 l 750 126 q 809 147 786 126 q 843 201 832 168 q 854 265 854 233 l 854 517 q 873 575 854 551 q 933 599 892 599 q 993 575 974 599 q 1013 517 1013 551 l 1013 265 q 978 129 1013 189 q 885 35 944 69 q 750 0 826 0 l 367 0 m 1157 0 l 1157 126 q 1178 110 1172 126 q 1185 64 1185 93 q 1178 17 1185 35 q 1157 0 1172 0 m 553 -294 q 485 -267 513 -294 q 458 -203 458 -240 q 485 -138 458 -165 q 551 -111 513 -111 q 616 -138 589 -111 q 643 -203 643 -165 q 616 -267 643 -240 q 553 -294 589 -294 z "},"ﺒ":{"ha":486,"x_min":-28,"x_max":514,"o":"m 0 0 l 0 126 l 56 126 q 116 147 93 126 q 150 201 139 168 q 161 265 161 233 l 161 588 q 180 644 161 621 q 240 667 199 667 q 299 644 281 667 q 318 588 318 621 l 318 265 q 284 129 318 189 q 192 35 250 69 q 56 0 133 0 l 0 0 m 424 0 q 288 35 347 0 q 195 129 229 69 q 161 265 161 189 l 318 265 q 329 201 318 233 q 365 147 340 168 q 424 126 389 126 l 486 126 l 486 0 l 424 0 m 486 0 l 486 126 q 508 110 501 126 q 514 64 514 93 q 508 17 514 35 q 486 0 501 0 m 0 0 q -22 17 -15 0 q -28 64 -28 35 q -22 110 -28 93 q 0 126 -15 126 l 0 0 m 242 -294 q 174 -267 201 -294 q 147 -203 147 -240 q 174 -138 147 -165 q 240 -111 201 -111 q 305 -138 278 -111 q 332 -203 332 -165 q 305 -267 332 -240 q 242 -294 278 -294 z "},"ﺑ":{"ha":481,"x_min":-28,"x_max":390,"o":"m 0 0 l 0 126 l 114 126 q 160 140 140 126 q 194 176 181 154 q 217 228 208 199 q 230 290 226 257 q 233 354 233 322 q 223 454 233 410 q 190 536 213 499 q 129 606 168 574 q 143 631 132 617 q 174 656 154 646 q 222 667 194 667 q 299 639 267 667 q 351 565 332 611 q 381 464 371 519 q 390 351 390 408 q 317 94 390 188 q 114 0 244 0 l 0 0 m 0 0 q -22 17 -15 0 q -28 64 -28 35 q -22 110 -28 93 q 0 126 -15 126 l 0 0 m 225 -294 q 158 -267 185 -294 q 131 -203 131 -240 q 158 -138 131 -165 q 224 -111 185 -111 q 288 -138 261 -111 q 315 -203 315 -165 q 288 -267 315 -240 q 225 -294 261 -294 z "},"پ":{"ha":1103,"x_min":90,"x_max":1013,"o":"m 367 0 q 163 94 236 0 q 90 351 90 188 q 100 464 90 408 q 129 565 110 519 q 181 639 149 611 q 258 667 214 667 q 307 656 288 667 q 338 631 326 646 q 353 606 350 617 q 291 536 314 574 q 258 454 268 499 q 249 354 249 410 q 252 290 249 322 q 264 228 256 257 q 286 176 272 199 q 320 140 300 154 q 367 126 340 126 l 750 126 q 809 147 786 126 q 843 201 832 168 q 854 265 854 233 l 854 517 q 873 575 854 551 q 933 599 892 599 q 993 575 974 599 q 1013 517 1013 551 l 1013 265 q 978 129 1013 189 q 885 35 944 69 q 750 0 826 0 l 367 0 m 660 -283 q 599 -258 625 -283 q 574 -197 574 -232 q 599 -136 574 -161 q 660 -111 625 -111 q 720 -136 696 -111 q 744 -197 744 -161 q 720 -258 744 -232 q 660 -283 696 -283 m 551 -465 q 495 -442 518 -465 q 472 -386 472 -419 q 495 -329 472 -353 q 551 -306 518 -306 q 608 -329 585 -306 q 631 -386 631 -353 q 608 -442 631 -419 q 551 -465 585 -465 m 443 -283 q 384 -258 410 -283 q 358 -197 358 -232 q 383 -136 358 -161 q 443 -111 408 -111 q 504 -136 479 -111 q 529 -197 529 -161 q 504 -258 529 -232 q 443 -283 479 -283 z "},"ﭗ":{"ha":1157,"x_min":90,"x_max":1185,"o":"m 1117 0 q 982 35 1042 0 q 888 129 922 69 q 854 265 854 189 l 1013 265 q 1024 201 1013 233 q 1058 147 1035 168 q 1117 126 1082 126 l 1157 126 l 1157 0 l 1117 0 m 367 0 q 163 94 236 0 q 90 351 90 188 q 100 464 90 408 q 129 565 110 519 q 181 639 149 611 q 258 667 214 667 q 307 656 288 667 q 338 631 326 646 q 353 606 350 617 q 291 536 314 574 q 258 454 268 499 q 249 354 249 410 q 252 290 249 322 q 264 228 256 257 q 286 176 272 199 q 320 140 300 154 q 367 126 340 126 l 750 126 q 809 147 786 126 q 843 201 832 168 q 854 265 854 233 l 854 517 q 873 575 854 551 q 933 599 892 599 q 993 575 974 599 q 1013 517 1013 551 l 1013 265 q 978 129 1013 189 q 885 35 944 69 q 750 0 826 0 l 367 0 m 1157 0 l 1157 126 q 1178 110 1172 126 q 1185 64 1185 93 q 1178 17 1185 35 q 1157 0 1172 0 m 660 -283 q 599 -258 625 -283 q 574 -197 574 -232 q 599 -136 574 -161 q 660 -111 625 -111 q 720 -136 696 -111 q 744 -197 744 -161 q 720 -258 744 -232 q 660 -283 696 -283 m 551 -465 q 495 -442 518 -465 q 472 -386 472 -419 q 495 -329 472 -353 q 551 -306 518 -306 q 608 -329 585 -306 q 631 -386 631 -353 q 608 -442 631 -419 q 551 -465 585 -465 m 443 -283 q 384 -258 410 -283 q 358 -197 358 -232 q 383 -136 358 -161 q 443 -111 408 -111 q 504 -136 479 -111 q 529 -197 529 -161 q 504 -258 529 -232 q 443 -283 479 -283 z "},"ﭙ":{"ha":486,"x_min":-28,"x_max":514,"o":"m 0 0 l 0 126 l 56 126 q 116 147 93 126 q 150 201 139 168 q 161 265 161 233 l 161 588 q 180 644 161 621 q 240 667 199 667 q 299 644 281 667 q 318 588 318 621 l 318 265 q 284 129 318 189 q 192 35 250 69 q 56 0 133 0 l 0 0 m 424 0 q 288 35 347 0 q 195 129 229 69 q 161 265 161 189 l 318 265 q 329 201 318 233 q 365 147 340 168 q 424 126 389 126 l 486 126 l 486 0 l 424 0 m 486 0 l 486 126 q 508 110 501 126 q 514 64 514 93 q 508 17 514 35 q 486 0 501 0 m 0 0 q -22 17 -15 0 q -28 64 -28 35 q -22 110 -28 93 q 0 126 -15 126 l 0 0 m 349 -283 q 288 -258 314 -283 q 263 -197 263 -232 q 288 -136 263 -161 q 349 -111 314 -111 q 409 -136 385 -111 q 433 -197 433 -161 q 409 -258 433 -232 q 349 -283 385 -283 m 240 -465 q 184 -442 207 -465 q 161 -386 161 -419 q 184 -329 161 -353 q 240 -306 207 -306 q 297 -329 274 -306 q 319 -386 319 -353 q 297 -442 319 -419 q 240 -465 274 -465 m 132 -283 q 73 -258 99 -283 q 47 -197 47 -232 q 72 -136 47 -161 q 132 -111 97 -111 q 193 -136 168 -111 q 218 -197 218 -161 q 193 -258 218 -232 q 132 -283 168 -283 z "},"ﭘ":{"ha":481,"x_min":-28,"x_max":417,"o":"m 0 0 l 0 126 l 114 126 q 160 140 140 126 q 194 176 181 154 q 217 228 208 199 q 230 290 226 257 q 233 354 233 322 q 223 454 233 410 q 190 536 213 499 q 129 606 168 574 q 143 631 132 617 q 174 656 154 646 q 222 667 194 667 q 299 639 267 667 q 351 565 332 611 q 381 464 371 519 q 390 351 390 408 q 317 94 390 188 q 114 0 244 0 l 0 0 m 0 0 q -22 17 -15 0 q -28 64 -28 35 q -22 110 -28 93 q 0 126 -15 126 l 0 0 m 332 -283 q 272 -258 297 -283 q 246 -197 246 -232 q 272 -136 246 -161 q 332 -111 297 -111 q 392 -136 368 -111 q 417 -197 417 -161 q 392 -258 417 -232 q 332 -283 368 -283 m 224 -465 q 167 -442 190 -465 q 144 -386 144 -419 q 167 -329 144 -353 q 224 -306 190 -306 q 280 -329 257 -306 q 303 -386 303 -353 q 280 -442 303 -419 q 224 -465 257 -465 m 115 -283 q 56 -258 82 -283 q 31 -197 31 -232 q 56 -136 31 -161 q 115 -111 81 -111 q 176 -136 151 -111 q 201 -197 201 -161 q 176 -258 201 -232 q 115 -283 151 -283 z "},"ﯩ":{"ha":486,"x_min":-28,"x_max":514,"o":"m 0 0 l 0 126 l 56 126 q 116 147 93 126 q 150 201 139 168 q 161 265 161 233 l 161 588 q 180 644 161 621 q 240 667 199 667 q 299 644 281 667 q 318 588 318 621 l 318 265 q 284 129 318 189 q 192 35 250 69 q 56 0 133 0 l 0 0 m 424 0 q 288 35 347 0 q 195 129 229 69 q 161 265 161 189 l 318 265 q 329 201 318 233 q 365 147 340 168 q 424 126 389 126 l 486 126 l 486 0 l 424 0 m 486 0 l 486 126 q 508 110 501 126 q 514 64 514 93 q 508 17 514 35 q 486 0 501 0 m 0 0 q -22 17 -15 0 q -28 64 -28 35 q -22 110 -28 93 q 0 126 -15 126 l 0 0 z "},"ﯨ":{"ha":481,"x_min":-28,"x_max":390,"o":"m 0 0 l 0 126 l 114 126 q 160 140 140 126 q 194 176 181 154 q 217 228 208 199 q 230 290 226 257 q 233 354 233 322 q 223 454 233 410 q 190 536 213 499 q 129 606 168 574 q 143 631 132 617 q 174 656 154 646 q 222 667 194 667 q 299 639 267 667 q 351 565 332 611 q 381 464 371 519 q 390 351 390 408 q 317 94 390 188 q 114 0 244 0 l 0 0 m 0 0 q -22 17 -15 0 q -28 64 -28 35 q -22 110 -28 93 q 0 126 -15 126 l 0 0 z "},"ت":{"ha":1103,"x_min":90,"x_max":1013,"o":"m 367 0 q 163 94 236 0 q 90 351 90 188 q 100 464 90 408 q 129 565 110 519 q 181 639 149 611 q 258 667 214 667 q 307 656 288 667 q 338 631 326 646 q 353 606 350 617 q 291 536 314 574 q 258 454 268 499 q 249 354 249 410 q 252 290 249 322 q 264 228 256 257 q 286 176 272 199 q 320 140 300 154 q 367 126 340 126 l 750 126 q 809 147 786 126 q 843 201 832 168 q 854 265 854 233 l 854 517 q 873 575 854 551 q 933 599 892 599 q 993 575 974 599 q 1013 517 1013 551 l 1013 265 q 978 129 1013 189 q 885 35 944 69 q 750 0 826 0 l 367 0 m 660 699 q 599 724 625 699 q 574 783 574 749 q 599 845 574 819 q 660 871 625 871 q 720 845 696 871 q 744 783 744 819 q 720 724 744 749 q 660 699 696 699 m 443 699 q 384 724 410 699 q 358 783 358 749 q 383 845 358 819 q 443 871 408 871 q 504 845 479 871 q 529 783 529 819 q 504 724 529 749 q 443 699 479 699 z "},"ﺖ":{"ha":1157,"x_min":90,"x_max":1185,"o":"m 1117 0 q 982 35 1042 0 q 888 129 922 69 q 854 265 854 189 l 1013 265 q 1024 201 1013 233 q 1058 147 1035 168 q 1117 126 1082 126 l 1157 126 l 1157 0 l 1117 0 m 367 0 q 163 94 236 0 q 90 351 90 188 q 100 464 90 408 q 129 565 110 519 q 181 639 149 611 q 258 667 214 667 q 307 656 288 667 q 338 631 326 646 q 353 606 350 617 q 291 536 314 574 q 258 454 268 499 q 249 354 249 410 q 252 290 249 322 q 264 228 256 257 q 286 176 272 199 q 320 140 300 154 q 367 126 340 126 l 750 126 q 809 147 786 126 q 843 201 832 168 q 854 265 854 233 l 854 517 q 873 575 854 551 q 933 599 892 599 q 993 575 974 599 q 1013 517 1013 551 l 1013 265 q 978 129 1013 189 q 885 35 944 69 q 750 0 826 0 l 367 0 m 1157 0 l 1157 126 q 1178 110 1172 126 q 1185 64 1185 93 q 1178 17 1185 35 q 1157 0 1172 0 m 660 699 q 599 724 625 699 q 574 783 574 749 q 599 845 574 819 q 660 871 625 871 q 720 845 696 871 q 744 783 744 819 q 720 724 744 749 q 660 699 696 699 m 443 699 q 384 724 410 699 q 358 783 358 749 q 383 845 358 819 q 443 871 408 871 q 504 845 479 871 q 529 783 529 819 q 504 724 529 749 q 443 699 479 699 z "},"ﺘ":{"ha":486,"x_min":-28,"x_max":514,"o":"m 0 0 l 0 126 l 56 126 q 116 147 93 126 q 150 201 139 168 q 161 265 161 233 l 161 588 q 180 644 161 621 q 240 667 199 667 q 299 644 281 667 q 318 588 318 621 l 318 265 q 284 129 318 189 q 192 35 250 69 q 56 0 133 0 l 0 0 m 424 0 q 288 35 347 0 q 195 129 229 69 q 161 265 161 189 l 318 265 q 329 201 318 233 q 365 147 340 168 q 424 126 389 126 l 486 126 l 486 0 l 424 0 m 486 0 l 486 126 q 508 110 501 126 q 514 64 514 93 q 508 17 514 35 q 486 0 501 0 m 0 0 q -22 17 -15 0 q -28 64 -28 35 q -22 110 -28 93 q 0 126 -15 126 l 0 0 m 349 761 q 288 786 314 761 q 263 846 263 811 q 288 908 263 882 q 349 933 314 933 q 409 908 385 933 q 433 846 433 882 q 409 786 433 811 q 349 761 385 761 m 132 761 q 73 786 99 761 q 47 846 47 811 q 72 908 47 882 q 132 933 97 933 q 193 908 168 933 q 218 846 218 882 q 193 786 218 811 q 132 761 168 761 z "},"ﺗ":{"ha":481,"x_min":-28,"x_max":417,"o":"m 0 0 l 0 126 l 114 126 q 160 140 140 126 q 194 176 181 154 q 217 228 208 199 q 230 290 226 257 q 233 354 233 322 q 223 454 233 410 q 190 536 213 499 q 129 606 168 574 q 143 631 132 617 q 174 656 154 646 q 222 667 194 667 q 299 639 267 667 q 351 565 332 611 q 381 464 371 519 q 390 351 390 408 q 317 94 390 188 q 114 0 244 0 l 0 0 m 0 0 q -22 17 -15 0 q -28 64 -28 35 q -22 110 -28 93 q 0 126 -15 126 l 0 0 m 332 761 q 272 786 297 761 q 246 846 246 811 q 272 908 246 882 q 332 933 297 933 q 392 908 368 933 q 417 846 417 882 q 392 786 417 811 q 332 761 368 761 m 115 761 q 56 786 82 761 q 31 846 31 811 q 56 908 31 882 q 115 933 81 933 q 176 908 151 933 q 201 846 201 882 q 176 786 201 811 q 115 761 151 761 z "},"ث":{"ha":1103,"x_min":90,"x_max":1013,"o":"m 367 0 q 163 94 236 0 q 90 351 90 188 q 100 464 90 408 q 129 565 110 519 q 181 639 149 611 q 258 667 214 667 q 307 656 288 667 q 338 631 326 646 q 353 606 350 617 q 291 536 314 574 q 258 454 268 499 q 249 354 249 410 q 252 290 249 322 q 264 228 256 257 q 286 176 272 199 q 320 140 300 154 q 367 126 340 126 l 750 126 q 809 147 786 126 q 843 201 832 168 q 854 265 854 233 l 854 517 q 873 575 854 551 q 933 599 892 599 q 993 575 974 599 q 1013 517 1013 551 l 1013 265 q 978 129 1013 189 q 885 35 944 69 q 750 0 826 0 l 367 0 m 660 694 q 599 719 625 694 q 574 781 574 744 q 599 841 574 815 q 660 867 625 867 q 720 841 696 867 q 744 781 744 815 q 720 719 744 744 q 660 694 696 694 m 443 694 q 384 719 410 694 q 358 781 358 744 q 383 841 358 815 q 443 867 408 867 q 504 841 479 867 q 529 781 529 815 q 504 719 529 744 q 443 694 479 694 m 551 889 q 495 913 518 889 q 472 969 472 936 q 495 1026 472 1003 q 551 1049 518 1049 q 608 1026 585 1049 q 631 969 631 1003 q 608 913 631 936 q 551 889 585 889 z "},"ﺚ":{"ha":1157,"x_min":90,"x_max":1185,"o":"m 1117 0 q 982 35 1042 0 q 888 129 922 69 q 854 265 854 189 l 1013 265 q 1024 201 1013 233 q 1058 147 1035 168 q 1117 126 1082 126 l 1157 126 l 1157 0 l 1117 0 m 367 0 q 163 94 236 0 q 90 351 90 188 q 100 464 90 408 q 129 565 110 519 q 181 639 149 611 q 258 667 214 667 q 307 656 288 667 q 338 631 326 646 q 353 606 350 617 q 291 536 314 574 q 258 454 268 499 q 249 354 249 410 q 252 290 249 322 q 264 228 256 257 q 286 176 272 199 q 320 140 300 154 q 367 126 340 126 l 750 126 q 809 147 786 126 q 843 201 832 168 q 854 265 854 233 l 854 517 q 873 575 854 551 q 933 599 892 599 q 993 575 974 599 q 1013 517 1013 551 l 1013 265 q 978 129 1013 189 q 885 35 944 69 q 750 0 826 0 l 367 0 m 1157 0 l 1157 126 q 1178 110 1172 126 q 1185 64 1185 93 q 1178 17 1185 35 q 1157 0 1172 0 m 660 694 q 599 719 625 694 q 574 781 574 744 q 599 841 574 815 q 660 867 625 867 q 720 841 696 867 q 744 781 744 815 q 720 719 744 744 q 660 694 696 694 m 443 694 q 384 719 410 694 q 358 781 358 744 q 383 841 358 815 q 443 867 408 867 q 504 841 479 867 q 529 781 529 815 q 504 719 529 744 q 443 694 479 694 m 551 889 q 495 913 518 889 q 472 969 472 936 q 495 1026 472 1003 q 551 1049 518 1049 q 608 1026 585 1049 q 631 969 631 1003 q 608 913 631 936 q 551 889 585 889 z "},"ﺜ":{"ha":486,"x_min":-28,"x_max":514,"o":"m 0 0 l 0 126 l 56 126 q 116 147 93 126 q 150 201 139 168 q 161 265 161 233 l 161 588 q 180 644 161 621 q 240 667 199 667 q 299 644 281 667 q 318 588 318 621 l 318 265 q 284 129 318 189 q 192 35 250 69 q 56 0 133 0 l 0 0 m 424 0 q 288 35 347 0 q 195 129 229 69 q 161 265 161 189 l 318 265 q 329 201 318 233 q 365 147 340 168 q 424 126 389 126 l 486 126 l 486 0 l 424 0 m 486 0 l 486 126 q 508 110 501 126 q 514 64 514 93 q 508 17 514 35 q 486 0 501 0 m 0 0 q -22 17 -15 0 q -28 64 -28 35 q -22 110 -28 93 q 0 126 -15 126 l 0 0 m 349 757 q 288 782 314 757 q 263 843 263 807 q 288 903 263 878 q 349 929 314 929 q 409 903 385 929 q 433 843 433 878 q 409 782 433 807 q 349 757 385 757 m 132 757 q 73 782 99 757 q 47 843 47 807 q 72 903 47 878 q 132 929 97 929 q 193 903 168 929 q 218 843 218 878 q 193 782 218 807 q 132 757 168 757 m 240 951 q 184 975 207 951 q 161 1032 161 999 q 184 1088 161 1065 q 240 1111 207 1111 q 297 1088 274 1111 q 319 1032 319 1065 q 297 975 319 999 q 240 951 274 951 z "},"ﺛ":{"ha":481,"x_min":-28,"x_max":417,"o":"m 0 0 l 0 126 l 114 126 q 160 140 140 126 q 194 176 181 154 q 217 228 208 199 q 230 290 226 257 q 233 354 233 322 q 223 454 233 410 q 190 536 213 499 q 129 606 168 574 q 143 631 132 617 q 174 656 154 646 q 222 667 194 667 q 299 639 267 667 q 351 565 332 611 q 381 464 371 519 q 390 351 390 408 q 317 94 390 188 q 114 0 244 0 l 0 0 m 0 0 q -22 17 -15 0 q -28 64 -28 35 q -22 110 -28 93 q 0 126 -15 126 l 0 0 m 332 757 q 272 782 297 757 q 246 843 246 807 q 272 903 246 878 q 332 929 297 929 q 392 903 368 929 q 417 843 417 878 q 392 782 417 807 q 332 757 368 757 m 115 757 q 56 782 82 757 q 31 843 31 807 q 56 903 31 878 q 115 929 81 929 q 176 903 151 929 q 201 843 201 878 q 176 782 201 807 q 115 757 151 757 m 224 951 q 167 975 190 951 q 144 1032 144 999 q 167 1088 144 1065 q 224 1111 190 1111 q 280 1088 257 1111 q 303 1032 303 1065 q 280 975 303 999 q 224 951 257 951 z "},"ٹ":{"ha":1103,"x_min":90,"x_max":1013,"o":"m 367 0 q 163 94 236 0 q 90 351 90 188 q 100 464 90 408 q 129 565 110 519 q 181 639 149 611 q 258 667 214 667 q 307 656 288 667 q 338 631 326 646 q 353 606 350 617 q 291 536 314 574 q 258 454 268 499 q 249 354 249 410 q 252 290 249 322 q 264 228 256 257 q 286 176 272 199 q 320 140 300 154 q 367 126 340 126 l 750 126 q 809 147 786 126 q 843 201 832 168 q 854 265 854 233 l 854 517 q 873 575 854 551 q 933 599 892 599 q 993 575 974 599 q 1013 517 1013 551 l 1013 265 q 978 129 1013 189 q 885 35 944 69 q 750 0 826 0 l 367 0 m 410 694 q 400 709 403 694 q 400 738 397 724 q 410 753 403 753 l 428 753 l 428 929 q 421 953 428 944 q 411 963 414 961 q 417 975 410 969 q 438 981 424 981 q 464 969 456 981 q 472 936 472 957 l 472 817 q 518 865 489 843 q 594 888 547 888 q 648 876 624 888 q 688 841 672 864 q 703 782 703 818 q 679 715 703 736 q 625 694 656 694 l 410 694 m 472 753 l 600 753 q 623 765 617 753 q 629 792 629 778 q 616 825 629 811 q 576 839 603 839 q 524 824 547 839 q 486 790 500 810 q 472 753 472 769 z "},"ﭧ":{"ha":1157,"x_min":90,"x_max":1185,"o":"m 1117 0 q 982 35 1042 0 q 888 129 922 69 q 854 265 854 189 l 1013 265 q 1024 201 1013 233 q 1058 147 1035 168 q 1117 126 1082 126 l 1157 126 l 1157 0 l 1117 0 m 367 0 q 163 94 236 0 q 90 351 90 188 q 100 464 90 408 q 129 565 110 519 q 181 639 149 611 q 258 667 214 667 q 307 656 288 667 q 338 631 326 646 q 353 606 350 617 q 291 536 314 574 q 258 454 268 499 q 249 354 249 410 q 252 290 249 322 q 264 228 256 257 q 286 176 272 199 q 320 140 300 154 q 367 126 340 126 l 750 126 q 809 147 786 126 q 843 201 832 168 q 854 265 854 233 l 854 517 q 873 575 854 551 q 933 599 892 599 q 993 575 974 599 q 1013 517 1013 551 l 1013 265 q 978 129 1013 189 q 885 35 944 69 q 750 0 826 0 l 367 0 m 1157 0 l 1157 126 q 1178 110 1172 126 q 1185 64 1185 93 q 1178 17 1185 35 q 1157 0 1172 0 m 410 694 q 400 709 403 694 q 400 738 397 724 q 410 753 403 753 l 428 753 l 428 929 q 421 953 428 944 q 411 963 414 961 q 417 975 410 969 q 438 981 424 981 q 464 969 456 981 q 472 936 472 957 l 472 817 q 518 865 489 843 q 594 888 547 888 q 648 876 624 888 q 688 841 672 864 q 703 782 703 818 q 679 715 703 736 q 625 694 656 694 l 410 694 m 472 753 l 600 753 q 623 765 617 753 q 629 792 629 778 q 616 825 629 811 q 576 839 603 839 q 524 824 547 839 q 486 790 500 810 q 472 753 472 769 z "},"ﭩ":{"ha":486,"x_min":-28,"x_max":514,"o":"m 0 0 l 0 126 l 56 126 q 116 147 93 126 q 150 201 139 168 q 161 265 161 233 l 161 588 q 180 644 161 621 q 240 667 199 667 q 299 644 281 667 q 318 588 318 621 l 318 265 q 284 129 318 189 q 192 35 250 69 q 56 0 133 0 l 0 0 m 424 0 q 288 35 347 0 q 195 129 229 69 q 161 265 161 189 l 318 265 q 329 201 318 233 q 365 147 340 168 q 424 126 389 126 l 486 126 l 486 0 l 424 0 m 486 0 l 486 126 q 508 110 501 126 q 514 64 514 93 q 508 17 514 35 q 486 0 501 0 m 0 0 q -22 17 -15 0 q -28 64 -28 35 q -22 110 -28 93 q 0 126 -15 126 l 0 0 m 99 757 q 89 772 92 757 q 89 801 86 786 q 99 815 92 815 l 117 815 l 117 992 q 110 1015 117 1007 q 100 1025 103 1024 q 106 1038 99 1032 q 126 1043 113 1043 q 153 1031 144 1043 q 161 999 161 1019 l 161 879 q 207 928 178 906 q 283 950 236 950 q 337 938 313 950 q 376 903 361 926 q 392 844 392 881 q 368 778 392 799 q 314 757 344 757 l 99 757 m 161 815 l 289 815 q 312 828 306 815 q 318 854 318 840 q 305 888 318 874 q 265 901 292 901 q 213 887 236 901 q 175 852 189 872 q 161 815 161 832 z "},"ﭨ":{"ha":481,"x_min":-28,"x_max":390,"o":"m 0 0 l 0 126 l 114 126 q 160 140 140 126 q 194 176 181 154 q 217 228 208 199 q 230 290 226 257 q 233 354 233 322 q 223 454 233 410 q 190 536 213 499 q 129 606 168 574 q 143 631 132 617 q 174 656 154 646 q 222 667 194 667 q 299 639 267 667 q 351 565 332 611 q 381 464 371 519 q 390 351 390 408 q 317 94 390 188 q 114 0 244 0 l 0 0 m 0 0 q -22 17 -15 0 q -28 64 -28 35 q -22 110 -28 93 q 0 126 -15 126 l 0 0 m 82 757 q 72 772 75 757 q 72 801 69 786 q 82 815 75 815 l 100 815 l 100 992 q 93 1015 100 1007 q 83 1025 86 1024 q 89 1038 82 1032 q 110 1043 96 1043 q 136 1031 128 1043 q 144 999 144 1019 l 144 879 q 190 928 161 906 q 267 950 219 950 q 320 938 296 950 q 360 903 344 926 q 375 844 375 881 q 351 778 375 799 q 297 757 328 757 l 82 757 m 144 815 l 272 815 q 295 828 289 815 q 301 854 301 840 q 288 888 301 874 q 249 901 275 901 q 196 887 219 901 q 158 852 172 872 q 144 815 144 832 z "},"ج":{"ha":883,"x_min":81,"x_max":801,"o":"m 242 -371 q 167 -344 199 -371 q 117 -274 136 -318 q 90 -177 99 -231 q 81 -71 81 -124 q 127 80 81 33 q 261 126 174 126 l 539 126 q 616 164 589 126 q 643 292 643 201 q 582 482 643 424 q 400 540 521 540 q 354 540 379 540 q 306 538 329 539 q 267 536 283 536 q 199 553 225 536 q 161 598 174 569 q 146 657 149 626 q 151 694 144 681 q 164 708 157 707 q 200 677 174 692 q 275 663 226 663 q 311 664 289 663 q 358 666 333 665 q 399 667 382 667 q 582 638 506 667 q 707 557 658 608 q 778 438 756 506 q 801 293 801 369 q 763 122 801 186 q 665 28 725 57 q 539 0 606 0 l 179 0 l 249 47 q 240 -6 243 21 q 238 -60 238 -33 q 247 -159 238 -114 q 280 -241 257 -204 q 342 -311 303 -278 q 326 -335 340 -321 q 291 -360 313 -350 q 242 -371 269 -371 m 479 -253 q 412 -226 439 -253 q 385 -161 385 -199 q 412 -97 385 -124 q 478 -69 439 -69 q 542 -97 515 -69 q 569 -161 569 -124 q 542 -226 569 -199 q 479 -253 515 -253 z "},"ﺞ":{"ha":968,"x_min":81,"x_max":996,"o":"m 906 0 q 771 35 831 0 q 677 129 711 69 q 643 265 643 189 l 643 294 l 801 294 l 801 265 q 813 201 801 233 q 847 147 824 168 q 906 126 871 126 l 968 126 l 968 0 l 906 0 m 242 -371 q 167 -344 199 -371 q 117 -274 136 -318 q 90 -177 99 -231 q 81 -71 81 -124 q 127 80 81 33 q 261 126 174 126 l 539 126 q 616 164 589 126 q 643 292 643 201 q 582 482 643 424 q 400 540 521 540 q 354 540 379 540 q 306 538 329 539 q 267 536 283 536 q 199 553 225 536 q 161 598 174 569 q 146 657 149 626 q 151 694 144 681 q 164 708 157 707 q 200 677 174 692 q 275 663 226 663 q 311 664 289 663 q 358 666 333 665 q 399 667 382 667 q 582 638 506 667 q 707 557 658 608 q 778 438 756 506 q 801 293 801 369 q 763 122 801 186 q 665 28 725 57 q 539 0 606 0 l 179 0 l 249 47 q 240 -6 243 21 q 238 -60 238 -33 q 247 -159 238 -114 q 280 -241 257 -204 q 342 -311 303 -278 q 326 -335 340 -321 q 291 -360 313 -350 q 242 -371 269 -371 m 968 0 l 968 126 q 990 110 985 126 q 996 64 996 93 q 990 17 996 35 q 968 0 985 0 m 479 -253 q 412 -226 439 -253 q 385 -161 385 -199 q 412 -97 385 -124 q 478 -69 439 -69 q 542 -97 515 -69 q 569 -161 569 -124 q 542 -226 569 -199 q 479 -253 515 -253 z "},"ﺠ":{"ha":861,"x_min":-28,"x_max":889,"o":"m 799 0 q 664 35 724 0 q 570 129 604 69 q 536 265 536 189 l 536 294 l 694 294 l 694 265 q 706 201 694 233 q 740 147 717 168 q 799 126 764 126 l 861 126 l 861 0 l 799 0 m 0 0 l 0 126 l 432 126 q 509 164 482 126 q 536 292 536 201 q 475 482 536 424 q 293 540 414 540 q 247 540 272 540 q 199 538 222 539 q 158 536 176 536 q 92 553 118 536 q 54 598 67 569 q 39 657 42 626 q 44 694 38 681 q 57 708 50 707 q 93 677 67 692 q 168 663 119 663 q 204 664 182 663 q 251 666 226 665 q 292 667 275 667 q 475 638 399 667 q 600 557 551 608 q 672 438 649 506 q 694 293 694 369 q 656 122 694 186 q 558 28 618 57 q 432 0 499 0 l 0 0 m 0 0 q -22 17 -15 0 q -28 64 -28 35 q -22 110 -28 93 q 0 126 -15 126 l 0 0 m 861 0 l 861 126 q 883 110 878 126 q 889 64 889 93 q 883 17 889 35 q 861 0 878 0 m 317 -294 q 249 -267 276 -294 q 222 -203 222 -240 q 249 -138 222 -165 q 315 -111 276 -111 q 380 -138 353 -111 q 407 -203 407 -165 q 380 -267 407 -240 q 317 -294 353 -294 z "},"ﺟ":{"ha":776,"x_min":-28,"x_max":694,"o":"m 0 0 l 0 126 l 432 126 q 509 164 482 126 q 536 292 536 201 q 475 482 536 424 q 293 540 414 540 q 247 540 272 540 q 199 538 222 539 q 158 536 176 536 q 92 553 118 536 q 54 598 67 569 q 39 657 42 626 q 44 694 38 681 q 57 708 50 707 q 93 677 67 692 q 168 663 119 663 q 204 664 182 663 q 251 666 226 665 q 292 667 275 667 q 475 638 399 667 q 600 557 551 608 q 672 438 649 506 q 694 293 694 369 q 656 122 694 186 q 558 28 618 57 q 432 0 499 0 l 0 0 m 0 0 q -22 17 -15 0 q -28 64 -28 35 q -22 110 -28 93 q 0 126 -15 126 l 0 0 m 317 -294 q 249 -267 276 -294 q 222 -203 222 -240 q 249 -138 222 -165 q 315 -111 276 -111 q 380 -138 353 -111 q 407 -203 407 -165 q 380 -267 407 -240 q 317 -294 353 -294 z "},"چ":{"ha":883,"x_min":81,"x_max":801,"o":"m 242 -371 q 167 -344 199 -371 q 117 -274 136 -318 q 90 -177 99 -231 q 81 -71 81 -124 q 127 80 81 33 q 261 126 174 126 l 539 126 q 616 164 589 126 q 643 292 643 201 q 582 482 643 424 q 400 540 521 540 q 354 540 379 540 q 306 538 329 539 q 267 536 283 536 q 199 553 225 536 q 161 598 174 569 q 146 657 149 626 q 151 694 144 681 q 164 708 157 707 q 200 677 174 692 q 275 663 226 663 q 311 664 289 663 q 358 666 333 665 q 399 667 382 667 q 582 638 506 667 q 707 557 658 608 q 778 438 756 506 q 801 293 801 369 q 763 122 801 186 q 665 28 725 57 q 539 0 606 0 l 179 0 l 249 47 q 240 -6 243 21 q 238 -60 238 -33 q 247 -159 238 -114 q 280 -241 257 -204 q 342 -311 303 -278 q 326 -335 340 -321 q 291 -360 313 -350 q 242 -371 269 -371 m 643 -249 q 583 -223 608 -249 q 557 -162 557 -197 q 583 -101 557 -126 q 643 -76 608 -76 q 703 -101 679 -76 q 728 -162 728 -126 q 703 -223 728 -197 q 643 -249 679 -249 m 535 -431 q 478 -408 501 -431 q 456 -351 456 -385 q 478 -294 456 -318 q 535 -271 501 -271 q 591 -294 568 -271 q 614 -351 614 -318 q 591 -408 614 -385 q 535 -431 568 -431 m 426 -249 q 367 -223 393 -249 q 342 -162 342 -197 q 367 -101 342 -126 q 426 -76 392 -76 q 488 -101 463 -76 q 513 -162 513 -126 q 488 -223 513 -197 q 426 -249 463 -249 z "},"ﭻ":{"ha":968,"x_min":81,"x_max":996,"o":"m 906 0 q 771 35 831 0 q 677 129 711 69 q 643 265 643 189 l 643 294 l 801 294 l 801 265 q 813 201 801 233 q 847 147 824 168 q 906 126 871 126 l 968 126 l 968 0 l 906 0 m 242 -371 q 167 -344 199 -371 q 117 -274 136 -318 q 90 -177 99 -231 q 81 -71 81 -124 q 127 80 81 33 q 261 126 174 126 l 539 126 q 616 164 589 126 q 643 292 643 201 q 582 482 643 424 q 400 540 521 540 q 354 540 379 540 q 306 538 329 539 q 267 536 283 536 q 199 553 225 536 q 161 598 174 569 q 146 657 149 626 q 151 694 144 681 q 164 708 157 707 q 200 677 174 692 q 275 663 226 663 q 311 664 289 663 q 358 666 333 665 q 399 667 382 667 q 582 638 506 667 q 707 557 658 608 q 778 438 756 506 q 801 293 801 369 q 763 122 801 186 q 665 28 725 57 q 539 0 606 0 l 179 0 l 249 47 q 240 -6 243 21 q 238 -60 238 -33 q 247 -159 238 -114 q 280 -241 257 -204 q 342 -311 303 -278 q 326 -335 340 -321 q 291 -360 313 -350 q 242 -371 269 -371 m 968 0 l 968 126 q 990 110 985 126 q 996 64 996 93 q 990 17 996 35 q 968 0 985 0 m 643 -249 q 583 -223 608 -249 q 557 -162 557 -197 q 583 -101 557 -126 q 643 -76 608 -76 q 703 -101 679 -76 q 728 -162 728 -126 q 703 -223 728 -197 q 643 -249 679 -249 m 535 -431 q 478 -408 501 -431 q 456 -351 456 -385 q 478 -294 456 -318 q 535 -271 501 -271 q 591 -294 568 -271 q 614 -351 614 -318 q 591 -408 614 -385 q 535 -431 568 -431 m 426 -249 q 367 -223 393 -249 q 342 -162 342 -197 q 367 -101 342 -126 q 426 -76 392 -76 q 488 -101 463 -76 q 513 -162 513 -126 q 488 -223 513 -197 q 426 -249 463 -249 z "},"ﭽ":{"ha":861,"x_min":-28,"x_max":889,"o":"m 799 0 q 664 35 724 0 q 570 129 604 69 q 536 265 536 189 l 536 294 l 694 294 l 694 265 q 706 201 694 233 q 740 147 717 168 q 799 126 764 126 l 861 126 l 861 0 l 799 0 m 0 0 l 0 126 l 432 126 q 509 164 482 126 q 536 292 536 201 q 475 482 536 424 q 293 540 414 540 q 247 540 272 540 q 199 538 222 539 q 158 536 176 536 q 92 553 118 536 q 54 598 67 569 q 39 657 42 626 q 44 694 38 681 q 57 708 50 707 q 93 677 67 692 q 168 663 119 663 q 204 664 182 663 q 251 666 226 665 q 292 667 275 667 q 475 638 399 667 q 600 557 551 608 q 672 438 649 506 q 694 293 694 369 q 656 122 694 186 q 558 28 618 57 q 432 0 499 0 l 0 0 m 0 0 q -22 17 -15 0 q -28 64 -28 35 q -22 110 -28 93 q 0 126 -15 126 l 0 0 m 861 0 l 861 126 q 883 110 878 126 q 889 64 889 93 q 883 17 889 35 q 861 0 878 0 m 422 -283 q 362 -258 388 -283 q 336 -197 336 -232 q 362 -136 336 -161 q 422 -111 388 -111 q 483 -136 458 -111 q 507 -197 507 -161 q 483 -258 507 -232 q 422 -283 458 -283 m 314 -465 q 258 -442 281 -465 q 235 -386 235 -419 q 258 -329 235 -353 q 314 -306 281 -306 q 370 -329 347 -306 q 393 -386 393 -353 q 370 -442 393 -419 q 314 -465 347 -465 m 206 -283 q 147 -258 172 -283 q 121 -197 121 -232 q 146 -136 121 -161 q 206 -111 171 -111 q 267 -136 242 -111 q 292 -197 292 -161 q 267 -258 292 -232 q 206 -283 242 -283 z "},"ﭼ":{"ha":776,"x_min":-28,"x_max":694,"o":"m 0 0 l 0 126 l 432 126 q 509 164 482 126 q 536 292 536 201 q 475 482 536 424 q 293 540 414 540 q 247 540 272 540 q 199 538 222 539 q 158 536 176 536 q 92 553 118 536 q 54 598 67 569 q 39 657 42 626 q 44 694 38 681 q 57 708 50 707 q 93 677 67 692 q 168 663 119 663 q 204 664 182 663 q 251 666 226 665 q 292 667 275 667 q 475 638 399 667 q 600 557 551 608 q 672 438 649 506 q 694 293 694 369 q 656 122 694 186 q 558 28 618 57 q 432 0 499 0 l 0 0 m 0 0 q -22 17 -15 0 q -28 64 -28 35 q -22 110 -28 93 q 0 126 -15 126 l 0 0 m 422 -283 q 362 -258 388 -283 q 336 -197 336 -232 q 362 -136 336 -161 q 422 -111 388 -111 q 483 -136 458 -111 q 507 -197 507 -161 q 483 -258 507 -232 q 422 -283 458 -283 m 314 -465 q 258 -442 281 -465 q 235 -386 235 -419 q 258 -329 235 -353 q 314 -306 281 -306 q 370 -329 347 -306 q 393 -386 393 -353 q 370 -442 393 -419 q 314 -465 347 -465 m 206 -283 q 147 -258 172 -283 q 121 -197 121 -232 q 146 -136 121 -161 q 206 -111 171 -111 q 267 -136 242 -111 q 292 -197 292 -161 q 267 -258 292 -232 q 206 -283 242 -283 z "},"ح":{"ha":883,"x_min":81,"x_max":801,"o":"m 242 -371 q 167 -344 199 -371 q 117 -274 136 -318 q 90 -177 99 -231 q 81 -71 81 -124 q 127 80 81 33 q 261 126 174 126 l 539 126 q 616 164 589 126 q 643 292 643 201 q 582 482 643 424 q 400 540 521 540 q 354 540 379 540 q 306 538 329 539 q 267 536 283 536 q 199 553 225 536 q 161 598 174 569 q 146 657 149 626 q 151 694 144 681 q 164 708 157 707 q 200 677 174 692 q 275 663 226 663 q 311 664 289 663 q 358 666 333 665 q 399 667 382 667 q 582 638 506 667 q 707 557 658 608 q 778 438 756 506 q 801 293 801 369 q 763 122 801 186 q 665 28 725 57 q 539 0 606 0 l 179 0 l 249 47 q 240 -6 243 21 q 238 -60 238 -33 q 247 -159 238 -114 q 280 -241 257 -204 q 342 -311 303 -278 q 326 -335 340 -321 q 291 -360 313 -350 q 242 -371 269 -371 z "},"ﺢ":{"ha":968,"x_min":81,"x_max":996,"o":"m 906 0 q 771 35 831 0 q 677 129 711 69 q 643 265 643 189 l 643 294 l 801 294 l 801 265 q 813 201 801 233 q 847 147 824 168 q 906 126 871 126 l 968 126 l 968 0 l 906 0 m 242 -371 q 167 -344 199 -371 q 117 -274 136 -318 q 90 -177 99 -231 q 81 -71 81 -124 q 127 80 81 33 q 261 126 174 126 l 539 126 q 616 164 589 126 q 643 292 643 201 q 582 482 643 424 q 400 540 521 540 q 354 540 379 540 q 306 538 329 539 q 267 536 283 536 q 199 553 225 536 q 161 598 174 569 q 146 657 149 626 q 151 694 144 681 q 164 708 157 707 q 200 677 174 692 q 275 663 226 663 q 311 664 289 663 q 358 666 333 665 q 399 667 382 667 q 582 638 506 667 q 707 557 658 608 q 778 438 756 506 q 801 293 801 369 q 763 122 801 186 q 665 28 725 57 q 539 0 606 0 l 179 0 l 249 47 q 240 -6 243 21 q 238 -60 238 -33 q 247 -159 238 -114 q 280 -241 257 -204 q 342 -311 303 -278 q 326 -335 340 -321 q 291 -360 313 -350 q 242 -371 269 -371 m 968 0 l 968 126 q 990 110 985 126 q 996 64 996 93 q 990 17 996 35 q 968 0 985 0 z "},"ﺤ":{"ha":861,"x_min":-28,"x_max":889,"o":"m 799 0 q 664 35 724 0 q 570 129 604 69 q 536 265 536 189 l 536 294 l 694 294 l 694 265 q 706 201 694 233 q 740 147 717 168 q 799 126 764 126 l 861 126 l 861 0 l 799 0 m 0 0 l 0 126 l 432 126 q 509 164 482 126 q 536 292 536 201 q 475 482 536 424 q 293 540 414 540 q 247 540 272 540 q 199 538 222 539 q 158 536 176 536 q 92 553 118 536 q 54 598 67 569 q 39 657 42 626 q 44 694 38 681 q 57 708 50 707 q 93 677 67 692 q 168 663 119 663 q 204 664 182 663 q 251 666 226 665 q 292 667 275 667 q 475 638 399 667 q 600 557 551 608 q 672 438 649 506 q 694 293 694 369 q 656 122 694 186 q 558 28 618 57 q 432 0 499 0 l 0 0 m 0 0 q -22 17 -15 0 q -28 64 -28 35 q -22 110 -28 93 q 0 126 -15 126 l 0 0 m 861 0 l 861 126 q 883 110 878 126 q 889 64 889 93 q 883 17 889 35 q 861 0 878 0 z "},"ﺣ":{"ha":776,"x_min":-28,"x_max":694,"o":"m 0 0 l 0 126 l 432 126 q 509 164 482 126 q 536 292 536 201 q 475 482 536 424 q 293 540 414 540 q 247 540 272 540 q 199 538 222 539 q 158 536 176 536 q 92 553 118 536 q 54 598 67 569 q 39 657 42 626 q 44 694 38 681 q 57 708 50 707 q 93 677 67 692 q 168 663 119 663 q 204 664 182 663 q 251 666 226 665 q 292 667 275 667 q 475 638 399 667 q 600 557 551 608 q 672 438 649 506 q 694 293 694 369 q 656 122 694 186 q 558 28 618 57 q 432 0 499 0 l 0 0 m 0 0 q -22 17 -15 0 q -28 64 -28 35 q -22 110 -28 93 q 0 126 -15 126 l 0 0 z "},"خ":{"ha":883,"x_min":81,"x_max":801,"o":"m 242 -371 q 167 -344 199 -371 q 117 -274 136 -318 q 90 -177 99 -231 q 81 -71 81 -124 q 127 80 81 33 q 261 126 174 126 l 539 126 q 616 164 589 126 q 643 292 643 201 q 582 482 643 424 q 400 540 521 540 q 354 540 379 540 q 306 538 329 539 q 267 536 283 536 q 199 553 225 536 q 161 598 174 569 q 146 657 149 626 q 151 694 144 681 q 164 708 157 707 q 200 677 174 692 q 275 663 226 663 q 311 664 289 663 q 358 666 333 665 q 399 667 382 667 q 582 638 506 667 q 707 557 658 608 q 778 438 756 506 q 801 293 801 369 q 763 122 801 186 q 665 28 725 57 q 539 0 606 0 l 179 0 l 249 47 q 240 -6 243 21 q 238 -60 238 -33 q 247 -159 238 -114 q 280 -241 257 -204 q 342 -311 303 -278 q 326 -335 340 -321 q 291 -360 313 -350 q 242 -371 269 -371 m 433 757 q 366 784 393 757 q 339 849 339 811 q 366 913 339 886 q 432 940 393 940 q 497 913 469 940 q 524 849 524 886 q 497 784 524 811 q 433 757 469 757 z "},"ﺦ":{"ha":968,"x_min":81,"x_max":996,"o":"m 906 0 q 771 35 831 0 q 677 129 711 69 q 643 265 643 189 l 643 294 l 801 294 l 801 265 q 813 201 801 233 q 847 147 824 168 q 906 126 871 126 l 968 126 l 968 0 l 906 0 m 242 -371 q 167 -344 199 -371 q 117 -274 136 -318 q 90 -177 99 -231 q 81 -71 81 -124 q 127 80 81 33 q 261 126 174 126 l 539 126 q 616 164 589 126 q 643 292 643 201 q 582 482 643 424 q 400 540 521 540 q 354 540 379 540 q 306 538 329 539 q 267 536 283 536 q 199 553 225 536 q 161 598 174 569 q 146 657 149 626 q 151 694 144 681 q 164 708 157 707 q 200 677 174 692 q 275 663 226 663 q 311 664 289 663 q 358 666 333 665 q 399 667 382 667 q 582 638 506 667 q 707 557 658 608 q 778 438 756 506 q 801 293 801 369 q 763 122 801 186 q 665 28 725 57 q 539 0 606 0 l 179 0 l 249 47 q 240 -6 243 21 q 238 -60 238 -33 q 247 -159 238 -114 q 280 -241 257 -204 q 342 -311 303 -278 q 326 -335 340 -321 q 291 -360 313 -350 q 242 -371 269 -371 m 968 0 l 968 126 q 990 110 985 126 q 996 64 996 93 q 990 17 996 35 q 968 0 985 0 m 433 757 q 366 784 393 757 q 339 849 339 811 q 366 913 339 886 q 432 940 393 940 q 497 913 469 940 q 524 849 524 886 q 497 784 524 811 q 433 757 469 757 z "},"ﺨ":{"ha":861,"x_min":-28,"x_max":889,"o":"m 799 0 q 664 35 724 0 q 570 129 604 69 q 536 265 536 189 l 536 294 l 694 294 l 694 265 q 706 201 694 233 q 740 147 717 168 q 799 126 764 126 l 861 126 l 861 0 l 799 0 m 0 0 l 0 126 l 432 126 q 509 164 482 126 q 536 292 536 201 q 475 482 536 424 q 293 540 414 540 q 247 540 272 540 q 199 538 222 539 q 158 536 176 536 q 92 553 118 536 q 54 598 67 569 q 39 657 42 626 q 44 694 38 681 q 57 708 50 707 q 93 677 67 692 q 168 663 119 663 q 204 664 182 663 q 251 666 226 665 q 292 667 275 667 q 475 638 399 667 q 600 557 551 608 q 672 438 649 506 q 694 293 694 369 q 656 122 694 186 q 558 28 618 57 q 432 0 499 0 l 0 0 m 0 0 q -22 17 -15 0 q -28 64 -28 35 q -22 110 -28 93 q 0 126 -15 126 l 0 0 m 861 0 l 861 126 q 883 110 878 126 q 889 64 889 93 q 883 17 889 35 q 861 0 878 0 m 317 757 q 249 784 276 757 q 222 849 222 811 q 249 913 222 886 q 315 940 276 940 q 380 913 353 940 q 407 849 407 886 q 380 784 407 811 q 317 757 353 757 z "},"ﺧ":{"ha":776,"x_min":-28,"x_max":694,"o":"m 0 0 l 0 126 l 432 126 q 509 164 482 126 q 536 292 536 201 q 475 482 536 424 q 293 540 414 540 q 247 540 272 540 q 199 538 222 539 q 158 536 176 536 q 92 553 118 536 q 54 598 67 569 q 39 657 42 626 q 44 694 38 681 q 57 708 50 707 q 93 677 67 692 q 168 663 119 663 q 204 664 182 663 q 251 666 226 665 q 292 667 275 667 q 475 638 399 667 q 600 557 551 608 q 672 438 649 506 q 694 293 694 369 q 656 122 694 186 q 558 28 618 57 q 432 0 499 0 l 0 0 m 0 0 q -22 17 -15 0 q -28 64 -28 35 q -22 110 -28 93 q 0 126 -15 126 l 0 0 m 317 757 q 249 784 276 757 q 222 849 222 811 q 249 913 222 886 q 315 940 276 940 q 380 913 353 940 q 407 849 407 886 q 380 784 407 811 q 317 757 353 757 z "},"د":{"ha":699,"x_min":82,"x_max":618,"o":"m 147 0 q 101 15 119 0 q 82 64 82 31 q 101 111 82 96 q 147 126 119 126 l 301 126 q 419 182 379 126 q 460 336 460 238 q 440 455 460 408 q 386 525 419 501 q 314 550 353 549 l 361 553 q 308 541 335 553 q 263 502 282 529 q 244 426 244 475 q 209 419 232 422 q 167 419 186 417 q 115 444 139 422 q 90 511 90 467 q 113 583 90 553 q 172 632 136 614 q 246 658 207 650 q 317 667 285 667 q 417 647 365 667 q 515 586 469 628 q 590 482 561 544 q 618 331 618 419 q 573 146 618 219 q 456 36 528 72 q 301 0 385 0 l 147 0 z "},"ﺪ":{"ha":785,"x_min":82,"x_max":813,"o":"m 722 0 q 588 35 647 0 q 494 129 528 69 q 460 265 460 189 l 460 331 l 618 331 l 618 265 q 629 201 618 233 q 664 147 640 168 q 722 126 688 126 l 785 126 l 785 0 l 722 0 m 147 0 q 101 15 119 0 q 82 64 82 31 q 101 111 82 96 q 147 126 119 126 l 301 126 q 419 182 379 126 q 460 336 460 238 q 440 455 460 408 q 386 525 419 501 q 314 550 353 549 l 361 553 q 308 541 335 553 q 263 502 282 529 q 244 426 244 475 q 209 419 232 422 q 167 419 186 417 q 115 444 139 422 q 90 511 90 467 q 113 583 90 553 q 172 632 136 614 q 246 658 207 650 q 317 667 285 667 q 417 647 365 667 q 515 586 469 628 q 590 482 561 544 q 618 331 618 419 q 573 146 618 219 q 456 36 528 72 q 301 0 385 0 l 147 0 m 785 0 l 785 126 q 806 110 800 126 q 813 64 813 93 q 806 17 813 35 q 785 0 800 0 z "},"ذ":{"ha":699,"x_min":82,"x_max":618,"o":"m 147 0 q 101 15 119 0 q 82 64 82 31 q 101 111 82 96 q 147 126 119 126 l 301 126 q 419 182 379 126 q 460 336 460 238 q 440 455 460 408 q 386 525 419 501 q 314 550 353 549 l 361 553 q 308 541 335 553 q 263 502 282 529 q 244 426 244 475 q 209 419 232 422 q 167 419 186 417 q 115 444 139 422 q 90 511 90 467 q 113 583 90 553 q 172 632 136 614 q 246 658 207 650 q 317 667 285 667 q 417 647 365 667 q 515 586 469 628 q 590 482 561 544 q 618 331 618 419 q 573 146 618 219 q 456 36 528 72 q 301 0 385 0 l 147 0 m 319 757 q 252 784 279 757 q 225 849 225 811 q 252 913 225 886 q 318 940 279 940 q 383 913 356 940 q 410 849 410 886 q 383 784 410 811 q 319 757 356 757 z "},"ﺬ":{"ha":785,"x_min":82,"x_max":813,"o":"m 722 0 q 588 35 647 0 q 494 129 528 69 q 460 265 460 189 l 460 331 l 618 331 l 618 265 q 629 201 618 233 q 664 147 640 168 q 722 126 688 126 l 785 126 l 785 0 l 722 0 m 147 0 q 101 15 119 0 q 82 64 82 31 q 101 111 82 96 q 147 126 119 126 l 301 126 q 419 182 379 126 q 460 336 460 238 q 440 455 460 408 q 386 525 419 501 q 314 550 353 549 l 361 553 q 308 541 335 553 q 263 502 282 529 q 244 426 244 475 q 209 419 232 422 q 167 419 186 417 q 115 444 139 422 q 90 511 90 467 q 113 583 90 553 q 172 632 136 614 q 246 658 207 650 q 317 667 285 667 q 417 647 365 667 q 515 586 469 628 q 590 482 561 544 q 618 331 618 419 q 573 146 618 219 q 456 36 528 72 q 301 0 385 0 l 147 0 m 785 0 l 785 126 q 806 110 800 126 q 813 64 813 93 q 806 17 813 35 q 785 0 800 0 m 319 757 q 252 784 279 757 q 225 849 225 811 q 252 913 225 886 q 318 940 279 940 q 383 913 356 940 q 410 849 410 886 q 383 784 410 811 q 319 757 356 757 z "},"ڈ":{"ha":699,"x_min":82,"x_max":618,"o":"m 147 0 q 101 15 119 0 q 82 64 82 31 q 101 111 82 96 q 147 126 119 126 l 301 126 q 419 182 379 126 q 460 336 460 238 q 440 455 460 408 q 386 525 419 501 q 314 550 353 549 l 361 553 q 308 541 335 553 q 263 502 282 529 q 244 426 244 475 q 209 419 232 422 q 167 419 186 417 q 115 444 139 422 q 90 511 90 467 q 113 583 90 553 q 172 632 136 614 q 246 658 207 650 q 317 667 285 667 q 417 647 365 667 q 515 586 469 628 q 590 482 561 544 q 618 331 618 419 q 573 146 618 219 q 456 36 528 72 q 301 0 385 0 l 147 0 m 176 757 q 167 772 169 757 q 167 801 164 786 q 176 815 169 815 l 194 815 l 194 992 q 188 1015 194 1007 q 178 1025 181 1024 q 183 1038 176 1032 q 204 1043 190 1043 q 231 1031 222 1043 q 239 999 239 1019 l 239 879 q 285 928 256 906 q 361 950 314 950 q 415 938 390 950 q 454 903 439 926 q 469 844 469 881 q 446 778 469 799 q 392 757 422 757 l 176 757 m 239 815 l 367 815 q 390 828 383 815 q 396 854 396 840 q 383 888 396 874 q 343 901 369 901 q 290 887 314 901 q 253 852 267 872 q 239 815 239 832 z "},"ﮉ":{"ha":785,"x_min":82,"x_max":813,"o":"m 722 0 q 588 35 647 0 q 494 129 528 69 q 460 265 460 189 l 460 331 l 618 331 l 618 265 q 629 201 618 233 q 664 147 640 168 q 722 126 688 126 l 785 126 l 785 0 l 722 0 m 147 0 q 101 15 119 0 q 82 64 82 31 q 101 111 82 96 q 147 126 119 126 l 301 126 q 419 182 379 126 q 460 336 460 238 q 440 455 460 408 q 386 525 419 501 q 314 550 353 549 l 361 553 q 308 541 335 553 q 263 502 282 529 q 244 426 244 475 q 209 419 232 422 q 167 419 186 417 q 115 444 139 422 q 90 511 90 467 q 113 583 90 553 q 172 632 136 614 q 246 658 207 650 q 317 667 285 667 q 417 647 365 667 q 515 586 469 628 q 590 482 561 544 q 618 331 618 419 q 573 146 618 219 q 456 36 528 72 q 301 0 385 0 l 147 0 m 785 0 l 785 126 q 806 110 800 126 q 813 64 813 93 q 806 17 813 35 q 785 0 800 0 m 176 757 q 167 772 169 757 q 167 801 164 786 q 176 815 169 815 l 194 815 l 194 992 q 188 1015 194 1007 q 178 1025 181 1024 q 183 1038 176 1032 q 204 1043 190 1043 q 231 1031 222 1043 q 239 999 239 1019 l 239 879 q 285 928 256 906 q 361 950 314 950 q 415 938 390 950 q 454 903 439 926 q 469 844 469 881 q 446 778 469 799 q 392 757 422 757 l 176 757 m 239 815 l 367 815 q 390 828 383 815 q 396 854 396 840 q 383 888 396 874 q 343 901 369 901 q 290 887 314 901 q 253 852 267 872 q 239 815 239 832 z "},"ر":{"ha":368,"x_min":28,"x_max":290,"o":"m 121 -318 q 72 -308 92 -318 q 42 -282 53 -297 q 28 -257 31 -267 q 90 -186 68 -224 q 122 -102 113 -149 q 132 0 132 -56 l 132 590 q 154 648 132 629 q 211 667 176 667 q 268 648 246 667 q 290 590 290 629 l 290 0 q 281 -112 290 -56 q 251 -215 271 -168 q 199 -290 231 -262 q 121 -318 167 -318 z "},"ﺮ":{"ha":444,"x_min":28,"x_max":472,"o":"m 290 0 l 290 126 l 444 126 l 444 0 l 290 0 m 121 -318 q 72 -308 92 -318 q 42 -282 53 -297 q 28 -257 31 -267 q 90 -186 68 -224 q 122 -102 113 -149 q 132 0 132 -56 l 132 590 q 154 648 132 629 q 211 667 176 667 q 268 648 246 667 q 290 590 290 629 l 290 0 q 281 -112 290 -56 q 251 -215 271 -168 q 199 -290 231 -262 q 121 -318 167 -318 m 444 0 l 444 126 q 467 110 461 126 q 472 64 472 93 q 467 17 472 35 q 444 0 461 0 z "},"ز":{"ha":368,"x_min":28,"x_max":304,"o":"m 121 -318 q 72 -308 92 -318 q 42 -282 53 -297 q 28 -257 31 -267 q 90 -186 68 -224 q 122 -102 113 -149 q 132 0 132 -56 l 132 590 q 154 648 132 629 q 211 667 176 667 q 268 648 246 667 q 290 590 290 629 l 290 0 q 281 -112 290 -56 q 251 -215 271 -168 q 199 -290 231 -262 q 121 -318 167 -318 m 213 757 q 145 784 172 757 q 118 849 118 811 q 145 913 118 886 q 211 940 172 940 q 276 913 249 940 q 303 849 303 886 q 276 784 303 811 q 213 757 249 757 z "},"ﺰ":{"ha":444,"x_min":28,"x_max":472,"o":"m 290 0 l 290 126 l 444 126 l 444 0 l 290 0 m 121 -318 q 72 -308 92 -318 q 42 -282 53 -297 q 28 -257 31 -267 q 90 -186 68 -224 q 122 -102 113 -149 q 132 0 132 -56 l 132 590 q 154 648 132 629 q 211 667 176 667 q 268 648 246 667 q 290 590 290 629 l 290 0 q 281 -112 290 -56 q 251 -215 271 -168 q 199 -290 231 -262 q 121 -318 167 -318 m 444 0 l 444 126 q 467 110 461 126 q 472 64 472 93 q 467 17 472 35 q 444 0 461 0 m 213 757 q 145 784 172 757 q 118 849 118 811 q 145 913 118 886 q 211 940 172 940 q 276 913 249 940 q 303 849 303 886 q 276 784 303 811 q 213 757 249 757 z "},"ڑ":{"ha":368,"x_min":28,"x_max":363,"o":"m 121 -318 q 72 -308 92 -318 q 42 -282 53 -297 q 28 -257 31 -267 q 90 -186 68 -224 q 122 -102 113 -149 q 132 0 132 -56 l 132 590 q 154 648 132 629 q 211 667 176 667 q 268 648 246 667 q 290 590 290 629 l 290 0 q 281 -112 290 -56 q 251 -215 271 -168 q 199 -290 231 -262 q 121 -318 167 -318 m 69 757 q 60 772 63 757 q 60 801 57 786 q 69 815 63 815 l 88 815 l 88 992 q 81 1015 88 1007 q 71 1025 74 1024 q 76 1038 69 1032 q 97 1043 83 1043 q 124 1031 115 1043 q 132 999 132 1019 l 132 879 q 178 928 149 906 q 254 950 207 950 q 308 938 283 950 q 347 903 332 926 q 363 844 363 881 q 339 778 363 799 q 285 757 315 757 l 69 757 m 132 815 l 260 815 q 283 828 276 815 q 289 854 289 840 q 276 888 289 874 q 236 901 263 901 q 183 887 207 901 q 146 852 160 872 q 132 815 132 832 z "},"ﮍ":{"ha":444,"x_min":28,"x_max":472,"o":"m 290 0 l 290 126 l 444 126 l 444 0 l 290 0 m 121 -318 q 72 -308 92 -318 q 42 -282 53 -297 q 28 -257 31 -267 q 90 -186 68 -224 q 122 -102 113 -149 q 132 0 132 -56 l 132 590 q 154 648 132 629 q 211 667 176 667 q 268 648 246 667 q 290 590 290 629 l 290 0 q 281 -112 290 -56 q 251 -215 271 -168 q 199 -290 231 -262 q 121 -318 167 -318 m 444 0 l 444 126 q 467 110 461 126 q 472 64 472 93 q 467 17 472 35 q 444 0 461 0 m 69 757 q 60 772 63 757 q 60 801 57 786 q 69 815 63 815 l 88 815 l 88 992 q 81 1015 88 1007 q 71 1025 74 1024 q 76 1038 69 1032 q 97 1043 83 1043 q 124 1031 115 1043 q 132 999 132 1019 l 132 879 q 178 928 149 906 q 254 950 207 950 q 308 938 283 950 q 347 903 332 926 q 363 844 363 881 q 339 778 363 799 q 285 757 315 757 l 69 757 m 132 815 l 260 815 q 283 828 276 815 q 289 854 289 840 q 276 888 289 874 q 236 901 263 901 q 183 887 207 901 q 146 852 160 872 q 132 815 132 832 z "},"ژ":{"ha":368,"x_min":17,"x_max":404,"o":"m 121 -318 q 72 -308 92 -318 q 42 -282 53 -297 q 28 -257 31 -267 q 90 -186 68 -224 q 122 -102 113 -149 q 132 0 132 -56 l 132 590 q 154 648 132 629 q 211 667 176 667 q 268 648 246 667 q 290 590 290 629 l 290 0 q 281 -112 290 -56 q 251 -215 271 -168 q 199 -290 231 -262 q 121 -318 167 -318 m 319 757 q 259 782 285 757 q 233 843 233 807 q 259 903 233 878 q 319 929 285 929 q 380 903 356 929 q 404 843 404 878 q 380 782 404 807 q 319 757 356 757 m 103 757 q 44 782 69 757 q 18 843 18 807 q 43 903 18 878 q 103 929 68 929 q 164 903 139 929 q 189 843 189 878 q 164 782 189 807 q 103 757 139 757 m 211 951 q 155 975 178 951 q 132 1032 132 999 q 155 1088 132 1065 q 211 1111 178 1111 q 267 1088 244 1111 q 290 1032 290 1065 q 267 975 290 999 q 211 951 244 951 z "},"ﮋ":{"ha":444,"x_min":17,"x_max":472,"o":"m 290 0 l 290 126 l 444 126 l 444 0 l 290 0 m 121 -318 q 72 -308 92 -318 q 42 -282 53 -297 q 28 -257 31 -267 q 90 -186 68 -224 q 122 -102 113 -149 q 132 0 132 -56 l 132 590 q 154 648 132 629 q 211 667 176 667 q 268 648 246 667 q 290 590 290 629 l 290 0 q 281 -112 290 -56 q 251 -215 271 -168 q 199 -290 231 -262 q 121 -318 167 -318 m 444 0 l 444 126 q 467 110 461 126 q 472 64 472 93 q 467 17 472 35 q 444 0 461 0 m 319 757 q 259 782 285 757 q 233 843 233 807 q 259 903 233 878 q 319 929 285 929 q 380 903 356 929 q 404 843 404 878 q 380 782 404 807 q 319 757 356 757 m 103 757 q 44 782 69 757 q 18 843 18 807 q 43 903 18 878 q 103 929 68 929 q 164 903 139 929 q 189 843 189 878 q 164 782 189 807 q 103 757 139 757 m 211 951 q 155 975 178 951 q 132 1032 132 999 q 155 1088 132 1065 q 211 1111 178 1111 q 267 1088 244 1111 q 290 1032 290 1065 q 267 975 290 999 q 211 951 244 951 z "},"س":{"ha":1865,"x_min":90,"x_max":1775,"o":"m 508 -337 q 284 -294 378 -337 q 140 -169 190 -250 q 90 18 90 -89 q 99 113 90 63 q 128 210 108 164 q 181 285 149 256 q 258 314 213 314 q 307 303 288 314 q 338 279 326 293 q 353 253 350 265 q 295 191 318 226 q 260 114 272 156 q 249 21 249 72 q 315 -155 249 -99 q 507 -211 382 -211 q 669 -161 621 -211 q 718 13 718 -111 l 718 510 q 737 567 718 544 q 797 590 756 590 q 858 567 839 590 q 876 510 876 544 l 876 13 q 789 -242 876 -147 q 508 -337 701 -337 m 981 0 q 846 35 906 0 q 752 129 786 69 q 718 265 718 189 l 876 265 q 888 201 876 233 q 922 147 899 168 q 981 126 946 126 l 1007 126 l 1007 0 l 981 0 m 1414 0 q 1279 35 1339 0 q 1185 129 1219 69 q 1151 265 1151 189 l 1310 265 q 1321 201 1310 233 q 1356 147 1332 168 q 1414 126 1379 126 l 1460 126 l 1460 0 l 1414 0 m 1007 0 l 1007 126 l 1047 126 q 1106 147 1083 126 q 1140 201 1129 168 q 1151 265 1151 233 l 1151 544 q 1170 601 1151 578 q 1231 624 1189 624 q 1291 601 1272 624 q 1310 544 1310 578 l 1310 265 q 1276 129 1310 189 q 1183 35 1242 69 q 1047 0 1124 0 l 1007 0 m 1460 0 l 1460 126 l 1497 126 q 1545 140 1525 126 q 1579 176 1565 154 q 1601 228 1593 199 q 1613 290 1610 257 q 1617 354 1617 322 q 1607 454 1617 410 q 1575 536 1597 499 q 1513 606 1553 574 q 1527 631 1515 617 q 1558 656 1539 646 q 1606 667 1578 667 q 1684 639 1651 667 q 1736 565 1717 611 q 1765 464 1756 519 q 1775 351 1775 408 q 1702 94 1775 188 q 1497 0 1629 0 l 1460 0 z "},"ﺲ":{"ha":1910,"x_min":90,"x_max":1938,"o":"m 508 -337 q 284 -294 378 -337 q 140 -169 190 -250 q 90 18 90 -89 q 99 113 90 63 q 128 210 108 164 q 181 285 149 256 q 258 314 213 314 q 307 303 288 314 q 338 279 326 293 q 353 253 350 265 q 292 188 315 224 q 259 110 269 153 q 249 13 249 67 q 317 -156 249 -100 q 510 -211 386 -211 q 670 -160 622 -211 q 718 13 718 -110 l 718 510 q 737 567 718 544 q 797 590 756 590 q 858 567 839 590 q 876 510 876 544 l 876 13 q 789 -242 876 -147 q 508 -337 701 -337 m 981 0 q 846 35 906 0 q 752 129 786 69 q 718 265 718 189 l 876 265 q 888 201 876 233 q 922 148 899 169 q 981 126 946 126 l 1007 126 l 1007 0 l 981 0 m 1414 0 q 1279 35 1339 0 q 1185 129 1219 69 q 1151 265 1151 189 l 1310 265 q 1321 201 1310 233 q 1356 148 1332 169 q 1414 126 1379 126 l 1446 126 l 1446 0 l 1414 0 m 1007 0 l 1007 126 l 1047 126 q 1106 147 1083 126 q 1140 201 1129 168 q 1151 265 1151 233 l 1151 544 q 1170 601 1151 578 q 1231 624 1189 624 q 1291 601 1272 624 q 1310 544 1310 578 l 1310 265 q 1276 129 1310 189 q 1183 35 1242 69 q 1047 0 1124 0 l 1007 0 m 1847 0 q 1713 35 1772 0 q 1619 129 1653 69 q 1585 265 1585 189 l 1743 265 q 1754 201 1743 233 q 1789 147 1765 168 q 1847 126 1813 126 l 1910 126 l 1910 0 l 1847 0 m 1446 0 l 1446 126 l 1481 126 q 1540 147 1517 126 q 1574 201 1563 168 q 1585 265 1585 233 l 1585 588 q 1604 644 1585 621 q 1664 667 1624 667 q 1724 644 1706 667 q 1743 588 1743 621 l 1743 265 q 1709 129 1743 189 q 1616 35 1675 69 q 1481 0 1557 0 l 1446 0 m 1910 0 l 1910 126 q 1932 110 1926 126 q 1938 64 1938 93 q 1932 17 1938 35 q 1910 0 1926 0 z "},"ﺴ":{"ha":1358,"x_min":-28,"x_max":1386,"o":"m 0 0 l 0 126 l 63 126 q 122 147 99 126 q 156 201 144 168 q 167 265 167 233 l 167 511 q 185 567 167 544 q 246 590 204 590 q 306 567 288 590 q 325 511 325 544 l 325 265 q 291 129 325 189 q 198 35 257 69 q 63 0 139 0 l 0 0 m 429 0 q 294 35 354 0 q 201 129 235 69 q 167 265 167 189 l 325 265 q 336 201 325 233 q 371 148 347 169 q 429 126 394 126 l 456 126 l 456 0 l 429 0 m 894 0 l 894 126 l 929 126 q 989 147 965 126 q 1024 201 1013 168 q 1035 265 1035 233 l 1035 588 q 1053 644 1035 621 q 1113 667 1072 667 q 1173 644 1154 667 q 1192 588 1192 621 l 1192 265 q 1158 129 1192 189 q 1065 35 1124 69 q 929 0 1007 0 l 894 0 m 863 0 q 728 35 788 0 q 634 129 668 69 q 600 265 600 189 l 758 265 q 769 200 758 232 q 804 147 781 168 q 863 126 828 126 l 894 126 l 894 0 l 863 0 m 456 0 l 456 126 l 496 126 q 555 147 532 126 q 589 201 578 168 q 600 265 600 233 l 600 544 q 619 601 600 578 q 679 624 639 624 q 740 601 721 624 q 758 544 758 578 l 758 265 q 724 129 758 189 q 631 35 690 69 q 496 0 572 0 l 456 0 m 1297 0 q 1162 35 1221 0 q 1069 129 1103 69 q 1035 265 1035 189 l 1192 265 q 1203 201 1192 233 q 1238 147 1214 168 q 1297 126 1261 126 l 1358 126 l 1358 0 l 1297 0 m 1358 0 l 1358 126 q 1381 110 1375 126 q 1386 64 1386 93 q 1381 17 1386 35 q 1358 0 1375 0 m 0 0 q -22 17 -15 0 q -28 64 -28 35 q -22 110 -28 93 q 0 126 -15 126 l 0 0 z "},"ﺳ":{"ha":1306,"x_min":-28,"x_max":1215,"o":"m 900 0 l 900 126 l 938 126 q 985 140 965 126 q 1019 176 1006 154 q 1042 228 1033 199 q 1053 290 1050 257 q 1057 354 1057 322 q 1047 454 1057 410 q 1015 536 1038 499 q 953 606 993 574 q 967 631 956 617 q 998 656 978 646 q 1046 667 1018 667 q 1124 639 1092 667 q 1176 565 1156 611 q 1206 464 1196 519 q 1215 351 1215 408 q 1142 94 1215 188 q 938 0 1069 0 l 900 0 m 421 0 q 285 35 344 0 q 192 129 226 69 q 158 265 158 189 l 315 265 q 326 201 315 233 q 362 147 338 168 q 421 126 386 126 l 447 126 l 447 0 l 421 0 m 0 0 l 0 126 l 53 126 q 113 147 90 126 q 147 201 136 168 q 158 265 158 233 l 158 511 q 177 567 158 544 q 238 590 196 590 q 297 567 278 590 q 315 511 315 544 l 315 265 q 281 129 315 189 q 189 35 247 69 q 53 0 131 0 l 0 0 m 854 0 q 719 35 779 0 q 626 129 660 69 q 592 265 592 189 l 750 265 q 761 201 750 233 q 796 147 772 168 q 854 126 819 126 l 900 126 l 900 0 l 854 0 m 447 0 l 447 126 l 488 126 q 547 147 524 126 q 581 201 569 168 q 592 265 592 233 l 592 544 q 610 601 592 578 q 671 624 629 624 q 731 601 711 624 q 750 544 750 578 l 750 265 q 716 129 750 189 q 623 35 682 69 q 488 0 564 0 l 447 0 m 0 0 q -22 17 -15 0 q -28 64 -28 35 q -22 110 -28 93 q 0 126 -15 126 l 0 0 z "},"ش":{"ha":1865,"x_min":90,"x_max":1775,"o":"m 508 -337 q 284 -294 378 -337 q 140 -169 190 -250 q 90 18 90 -89 q 99 113 90 63 q 128 210 108 164 q 181 285 149 256 q 258 314 213 314 q 307 303 288 314 q 338 279 326 293 q 353 253 350 265 q 295 191 318 226 q 260 114 272 156 q 249 21 249 72 q 315 -155 249 -99 q 507 -211 382 -211 q 669 -161 621 -211 q 718 13 718 -111 l 718 510 q 737 567 718 544 q 797 590 756 590 q 858 567 839 590 q 876 510 876 544 l 876 13 q 789 -242 876 -147 q 508 -337 701 -337 m 981 0 q 846 35 906 0 q 752 129 786 69 q 718 265 718 189 l 876 265 q 888 201 876 233 q 922 147 899 168 q 981 126 946 126 l 1007 126 l 1007 0 l 981 0 m 1414 0 q 1279 35 1339 0 q 1185 129 1219 69 q 1151 265 1151 189 l 1310 265 q 1321 201 1310 233 q 1356 147 1332 168 q 1414 126 1379 126 l 1460 126 l 1460 0 l 1414 0 m 1007 0 l 1007 126 l 1047 126 q 1106 147 1083 126 q 1140 201 1129 168 q 1151 265 1151 233 l 1151 544 q 1170 601 1151 578 q 1231 624 1189 624 q 1291 601 1272 624 q 1310 544 1310 578 l 1310 265 q 1276 129 1310 189 q 1183 35 1242 69 q 1047 0 1124 0 l 1007 0 m 1460 0 l 1460 126 l 1497 126 q 1545 140 1525 126 q 1579 176 1565 154 q 1601 228 1593 199 q 1613 290 1610 257 q 1617 354 1617 322 q 1607 454 1617 410 q 1575 536 1597 499 q 1513 606 1553 574 q 1527 631 1515 617 q 1558 656 1539 646 q 1606 667 1578 667 q 1684 639 1651 667 q 1736 565 1717 611 q 1765 464 1756 519 q 1775 351 1775 408 q 1702 94 1775 188 q 1497 0 1629 0 l 1460 0 m 1338 757 q 1277 782 1303 757 q 1251 843 1251 807 q 1277 903 1251 878 q 1338 929 1303 929 q 1398 903 1374 929 q 1422 843 1422 878 q 1398 782 1422 807 q 1338 757 1374 757 m 1121 757 q 1062 782 1088 757 q 1036 843 1036 807 q 1061 903 1036 878 q 1121 929 1086 929 q 1182 903 1157 929 q 1207 843 1207 878 q 1182 782 1207 807 q 1121 757 1157 757 m 1229 951 q 1173 975 1196 951 q 1150 1032 1150 999 q 1173 1088 1150 1065 q 1229 1111 1196 1111 q 1285 1088 1263 1111 q 1308 1032 1308 1065 q 1285 975 1308 999 q 1229 951 1263 951 z "},"ﺶ":{"ha":1910,"x_min":90,"x_max":1938,"o":"m 508 -337 q 284 -294 378 -337 q 140 -169 190 -250 q 90 18 90 -89 q 99 113 90 63 q 128 210 108 164 q 181 285 149 256 q 258 314 213 314 q 307 303 288 314 q 338 279 326 293 q 353 253 350 265 q 292 188 315 224 q 259 110 269 153 q 249 13 249 67 q 317 -156 249 -100 q 510 -211 386 -211 q 670 -160 622 -211 q 718 13 718 -110 l 718 510 q 737 567 718 544 q 797 590 756 590 q 858 567 839 590 q 876 510 876 544 l 876 13 q 789 -242 876 -147 q 508 -337 701 -337 m 981 0 q 846 35 906 0 q 752 129 786 69 q 718 265 718 189 l 876 265 q 888 201 876 233 q 922 148 899 169 q 981 126 946 126 l 1007 126 l 1007 0 l 981 0 m 1414 0 q 1279 35 1339 0 q 1185 129 1219 69 q 1151 265 1151 189 l 1310 265 q 1321 201 1310 233 q 1356 148 1332 169 q 1414 126 1379 126 l 1446 126 l 1446 0 l 1414 0 m 1007 0 l 1007 126 l 1047 126 q 1106 147 1083 126 q 1140 201 1129 168 q 1151 265 1151 233 l 1151 544 q 1170 601 1151 578 q 1231 624 1189 624 q 1291 601 1272 624 q 1310 544 1310 578 l 1310 265 q 1276 129 1310 189 q 1183 35 1242 69 q 1047 0 1124 0 l 1007 0 m 1847 0 q 1713 35 1772 0 q 1619 129 1653 69 q 1585 265 1585 189 l 1743 265 q 1754 201 1743 233 q 1789 147 1765 168 q 1847 126 1813 126 l 1910 126 l 1910 0 l 1847 0 m 1446 0 l 1446 126 l 1481 126 q 1540 147 1517 126 q 1574 201 1563 168 q 1585 265 1585 233 l 1585 588 q 1604 644 1585 621 q 1664 667 1624 667 q 1724 644 1706 667 q 1743 588 1743 621 l 1743 265 q 1709 129 1743 189 q 1616 35 1675 69 q 1481 0 1557 0 l 1446 0 m 1910 0 l 1910 126 q 1932 110 1926 126 q 1938 64 1938 93 q 1932 17 1938 35 q 1910 0 1926 0 m 1338 757 q 1277 782 1303 757 q 1251 843 1251 807 q 1277 903 1251 878 q 1338 929 1303 929 q 1398 903 1374 929 q 1422 843 1422 878 q 1398 782 1422 807 q 1338 757 1374 757 m 1121 757 q 1062 782 1088 757 q 1036 843 1036 807 q 1061 903 1036 878 q 1121 929 1086 929 q 1182 903 1157 929 q 1207 843 1207 878 q 1182 782 1207 807 q 1121 757 1157 757 m 1229 951 q 1173 975 1196 951 q 1150 1032 1150 999 q 1173 1088 1150 1065 q 1229 1111 1196 1111 q 1285 1088 1263 1111 q 1308 1032 1308 1065 q 1285 975 1308 999 q 1229 951 1263 951 z "},"ﺸ":{"ha":1358,"x_min":-28,"x_max":1386,"o":"m 0 0 l 0 126 l 63 126 q 122 147 99 126 q 156 201 144 168 q 167 265 167 233 l 167 511 q 185 567 167 544 q 246 590 204 590 q 306 567 288 590 q 325 511 325 544 l 325 265 q 291 129 325 189 q 198 35 257 69 q 63 0 139 0 l 0 0 m 429 0 q 294 35 354 0 q 201 129 235 69 q 167 265 167 189 l 325 265 q 336 201 325 233 q 371 148 347 169 q 429 126 394 126 l 456 126 l 456 0 l 429 0 m 894 0 l 894 126 l 929 126 q 989 147 965 126 q 1024 201 1013 168 q 1035 265 1035 233 l 1035 588 q 1053 644 1035 621 q 1113 667 1072 667 q 1173 644 1154 667 q 1192 588 1192 621 l 1192 265 q 1158 129 1192 189 q 1065 35 1124 69 q 929 0 1007 0 l 894 0 m 863 0 q 728 35 788 0 q 634 129 668 69 q 600 265 600 189 l 758 265 q 769 200 758 232 q 804 147 781 168 q 863 126 828 126 l 894 126 l 894 0 l 863 0 m 456 0 l 456 126 l 496 126 q 555 147 532 126 q 589 201 578 168 q 600 265 600 233 l 600 544 q 619 601 600 578 q 679 624 639 624 q 740 601 721 624 q 758 544 758 578 l 758 265 q 724 129 758 189 q 631 35 690 69 q 496 0 572 0 l 456 0 m 1297 0 q 1162 35 1221 0 q 1069 129 1103 69 q 1035 265 1035 189 l 1192 265 q 1203 201 1192 233 q 1238 147 1214 168 q 1297 126 1261 126 l 1358 126 l 1358 0 l 1297 0 m 1358 0 l 1358 126 q 1381 110 1375 126 q 1386 64 1386 93 q 1381 17 1386 35 q 1358 0 1375 0 m 0 0 q -22 17 -15 0 q -28 64 -28 35 q -22 110 -28 93 q 0 126 -15 126 l 0 0 m 788 757 q 727 782 753 757 q 701 843 701 807 q 727 903 701 878 q 788 929 753 929 q 848 903 824 929 q 872 843 872 878 q 848 782 872 807 q 788 757 824 757 m 571 757 q 512 782 538 757 q 486 843 486 807 q 511 903 486 878 q 571 929 536 929 q 632 903 607 929 q 657 843 657 878 q 632 782 657 807 q 571 757 607 757 m 679 951 q 623 975 646 951 q 600 1032 600 999 q 623 1088 600 1065 q 679 1111 646 1111 q 735 1088 713 1111 q 758 1032 758 1065 q 735 975 758 999 q 679 951 713 951 z "},"ﺷ":{"ha":1306,"x_min":-28,"x_max":1215,"o":"m 900 0 l 900 126 l 938 126 q 985 140 965 126 q 1019 176 1006 154 q 1042 228 1033 199 q 1053 290 1050 257 q 1057 354 1057 322 q 1047 454 1057 410 q 1015 536 1038 499 q 953 606 993 574 q 967 631 956 617 q 998 656 978 646 q 1046 667 1018 667 q 1124 639 1092 667 q 1176 565 1156 611 q 1206 464 1196 519 q 1215 351 1215 408 q 1142 94 1215 188 q 938 0 1069 0 l 900 0 m 421 0 q 285 35 344 0 q 192 129 226 69 q 158 265 158 189 l 315 265 q 326 201 315 233 q 362 147 338 168 q 421 126 386 126 l 447 126 l 447 0 l 421 0 m 0 0 l 0 126 l 53 126 q 113 147 90 126 q 147 201 136 168 q 158 265 158 233 l 158 511 q 177 567 158 544 q 238 590 196 590 q 297 567 278 590 q 315 511 315 544 l 315 265 q 281 129 315 189 q 189 35 247 69 q 53 0 131 0 l 0 0 m 854 0 q 719 35 779 0 q 626 129 660 69 q 592 265 592 189 l 750 265 q 761 201 750 233 q 796 147 772 168 q 854 126 819 126 l 900 126 l 900 0 l 854 0 m 447 0 l 447 126 l 488 126 q 547 147 524 126 q 581 201 569 168 q 592 265 592 233 l 592 544 q 610 601 592 578 q 671 624 629 624 q 731 601 711 624 q 750 544 750 578 l 750 265 q 716 129 750 189 q 623 35 682 69 q 488 0 564 0 l 447 0 m 0 0 q -22 17 -15 0 q -28 64 -28 35 q -22 110 -28 93 q 0 126 -15 126 l 0 0 m 779 757 q 719 782 744 757 q 693 843 693 807 q 719 903 693 878 q 779 929 744 929 q 840 903 815 929 q 864 843 864 878 q 840 782 864 807 q 779 757 815 757 m 563 757 q 503 782 529 757 q 478 843 478 807 q 503 903 478 878 q 563 929 528 929 q 624 903 599 929 q 649 843 649 878 q 624 782 649 807 q 563 757 599 757 m 671 951 q 615 975 638 951 q 592 1032 592 999 q 615 1088 592 1065 q 671 1111 638 1111 q 727 1088 704 1111 q 750 1032 750 1065 q 727 975 750 999 q 671 951 704 951 z "},"ص":{"ha":1682,"x_min":90,"x_max":1592,"o":"m 508 -337 q 284 -294 378 -337 q 140 -169 190 -250 q 90 18 90 -89 q 99 113 90 63 q 128 210 108 164 q 181 285 149 256 q 258 314 213 314 q 307 303 288 314 q 338 279 326 293 q 353 253 350 265 q 295 191 318 226 q 260 114 272 156 q 249 21 249 72 q 315 -155 249 -99 q 507 -211 382 -211 q 669 -161 621 -211 q 718 13 718 -111 l 718 433 q 697 501 718 472 q 654 540 675 529 q 689 577 663 558 q 760 596 715 596 q 814 584 792 596 q 850 552 836 572 q 870 506 864 532 q 876 454 876 481 l 876 13 q 789 -242 876 -147 q 508 -337 701 -337 m 875 0 l 875 126 l 1325 126 q 1404 167 1375 126 q 1433 299 1433 207 q 1374 483 1433 426 q 1210 540 1315 540 q 1070 511 1128 540 q 975 436 1013 482 q 915 338 938 390 q 876 236 892 285 l 800 247 q 840 381 818 318 q 891 497 861 444 q 963 587 921 549 q 1065 646 1006 625 q 1207 667 1125 667 q 1490 569 1388 667 q 1592 300 1592 472 q 1522 80 1592 160 q 1325 0 1451 0 l 875 0 z "},"ﺺ":{"ha":1758,"x_min":90,"x_max":1786,"o":"m 1696 0 q 1561 35 1621 0 q 1467 129 1501 69 q 1433 265 1433 189 l 1592 300 l 1592 265 q 1603 201 1592 233 q 1638 147 1614 168 q 1696 126 1661 126 l 1758 126 l 1758 0 l 1696 0 m 508 -337 q 284 -294 378 -337 q 140 -169 190 -250 q 90 18 90 -89 q 99 113 90 63 q 128 210 108 164 q 181 285 149 256 q 258 314 213 314 q 307 303 288 314 q 338 279 326 293 q 353 253 350 265 q 295 191 318 226 q 260 114 272 156 q 249 21 249 72 q 315 -155 249 -99 q 507 -211 382 -211 q 669 -161 621 -211 q 718 13 718 -111 l 718 433 q 697 501 718 472 q 654 540 675 529 q 689 577 663 558 q 760 596 715 596 q 814 584 792 596 q 850 552 836 572 q 870 506 864 532 q 876 454 876 481 l 876 13 q 789 -242 876 -147 q 508 -337 701 -337 m 875 0 l 875 126 l 1325 126 q 1404 167 1375 126 q 1433 299 1433 207 q 1374 483 1433 426 q 1210 540 1315 540 q 1070 511 1128 540 q 975 436 1013 482 q 915 338 938 390 q 876 236 892 285 l 800 247 q 840 381 818 318 q 891 497 861 444 q 963 587 921 549 q 1065 646 1006 625 q 1207 667 1125 667 q 1490 569 1388 667 q 1592 300 1592 472 q 1522 80 1592 160 q 1325 0 1451 0 l 875 0 m 1758 0 l 1758 126 q 1780 110 1774 126 q 1786 64 1786 93 q 1780 17 1786 35 q 1758 0 1774 0 z "},"ﺼ":{"ha":1163,"x_min":-28,"x_max":1190,"o":"m 1100 0 q 965 35 1025 0 q 872 129 906 69 q 838 265 838 189 l 996 300 l 996 265 q 1007 201 996 233 q 1042 147 1018 168 q 1100 126 1065 126 l 1163 126 l 1163 0 l 1100 0 m 0 0 l 0 126 l 729 126 q 808 167 779 126 q 838 299 838 207 q 778 483 838 426 q 614 540 719 540 q 474 511 532 540 q 379 436 417 482 q 319 338 342 390 q 281 236 296 285 l 204 247 q 244 381 222 318 q 295 497 265 444 q 367 587 325 549 q 469 646 410 625 q 611 667 529 667 q 894 569 792 667 q 996 300 996 472 q 926 80 996 160 q 729 0 856 0 l 0 0 m 122 0 l 122 436 q 101 503 122 475 q 58 543 81 532 q 94 580 68 561 q 164 599 119 599 q 218 587 196 599 q 254 555 240 575 q 274 509 268 535 q 281 457 281 483 l 281 0 l 122 0 m 0 0 q -22 17 -15 0 q -28 64 -28 35 q -22 110 -28 93 q 0 126 -15 126 l 0 0 m 1163 0 l 1163 126 q 1185 110 1179 126 q 1190 64 1190 93 q 1185 17 1190 35 q 1163 0 1179 0 z "},"ﺻ":{"ha":1086,"x_min":-28,"x_max":996,"o":"m 0 0 l 0 126 l 729 126 q 808 167 779 126 q 838 299 838 207 q 778 483 838 426 q 614 540 719 540 q 474 511 532 540 q 379 436 417 482 q 319 338 342 390 q 281 236 296 285 l 204 247 q 244 381 222 318 q 295 497 265 444 q 367 587 325 549 q 469 646 410 625 q 611 667 529 667 q 894 569 792 667 q 996 300 996 472 q 926 80 996 160 q 729 0 856 0 l 0 0 m 122 0 l 122 436 q 101 503 122 475 q 58 543 81 532 q 94 580 68 561 q 164 599 119 599 q 218 587 196 599 q 254 555 240 575 q 274 509 268 535 q 281 457 281 483 l 281 0 l 122 0 m 0 0 q -22 17 -15 0 q -28 64 -28 35 q -22 110 -28 93 q 0 126 -15 126 l 0 0 z "},"ض":{"ha":1682,"x_min":90,"x_max":1592,"o":"m 508 -337 q 284 -294 378 -337 q 140 -169 190 -250 q 90 18 90 -89 q 99 113 90 63 q 128 210 108 164 q 181 285 149 256 q 258 314 213 314 q 307 303 288 314 q 338 279 326 293 q 353 253 350 265 q 295 191 318 226 q 260 114 272 156 q 249 21 249 72 q 315 -155 249 -99 q 507 -211 382 -211 q 669 -161 621 -211 q 718 13 718 -111 l 718 433 q 697 501 718 472 q 654 540 675 529 q 689 577 663 558 q 760 596 715 596 q 814 584 792 596 q 850 552 836 572 q 870 506 864 532 q 876 454 876 481 l 876 13 q 789 -242 876 -147 q 508 -337 701 -337 m 875 0 l 875 126 l 1325 126 q 1404 167 1375 126 q 1433 299 1433 207 q 1374 483 1433 426 q 1210 540 1315 540 q 1070 511 1128 540 q 975 436 1013 482 q 915 338 938 390 q 876 236 892 285 l 800 247 q 840 381 818 318 q 891 497 861 444 q 963 587 921 549 q 1065 646 1006 625 q 1207 667 1125 667 q 1490 569 1388 667 q 1592 300 1592 472 q 1522 80 1592 160 q 1325 0 1451 0 l 875 0 m 1153 757 q 1085 784 1113 757 q 1058 849 1058 811 q 1085 913 1058 886 q 1151 940 1113 940 q 1216 913 1189 940 q 1243 849 1243 886 q 1216 784 1243 811 q 1153 757 1189 757 z "},"ﺾ":{"ha":1758,"x_min":90,"x_max":1786,"o":"m 1696 0 q 1561 35 1621 0 q 1467 129 1501 69 q 1433 265 1433 189 l 1592 300 l 1592 265 q 1603 201 1592 233 q 1638 147 1614 168 q 1696 126 1661 126 l 1758 126 l 1758 0 l 1696 0 m 508 -337 q 284 -294 378 -337 q 140 -169 190 -250 q 90 18 90 -89 q 99 113 90 63 q 128 210 108 164 q 181 285 149 256 q 258 314 213 314 q 307 303 288 314 q 338 279 326 293 q 353 253 350 265 q 295 191 318 226 q 260 114 272 156 q 249 21 249 72 q 315 -155 249 -99 q 507 -211 382 -211 q 669 -161 621 -211 q 718 13 718 -111 l 718 433 q 697 501 718 472 q 654 540 675 529 q 689 577 663 558 q 760 596 715 596 q 814 584 792 596 q 850 552 836 572 q 870 506 864 532 q 876 454 876 481 l 876 13 q 789 -242 876 -147 q 508 -337 701 -337 m 875 0 l 875 126 l 1325 126 q 1404 167 1375 126 q 1433 299 1433 207 q 1374 483 1433 426 q 1210 540 1315 540 q 1070 511 1128 540 q 975 436 1013 482 q 915 338 938 390 q 876 236 892 285 l 800 247 q 840 381 818 318 q 891 497 861 444 q 963 587 921 549 q 1065 646 1006 625 q 1207 667 1125 667 q 1490 569 1388 667 q 1592 300 1592 472 q 1522 80 1592 160 q 1325 0 1451 0 l 875 0 m 1758 0 l 1758 126 q 1780 110 1774 126 q 1786 64 1786 93 q 1780 17 1786 35 q 1758 0 1774 0 m 1153 757 q 1085 784 1113 757 q 1058 849 1058 811 q 1085 913 1058 886 q 1151 940 1113 940 q 1216 913 1189 940 q 1243 849 1243 886 q 1216 784 1243 811 q 1153 757 1189 757 z "},"ﻀ":{"ha":1163,"x_min":-28,"x_max":1190,"o":"m 1100 0 q 965 35 1025 0 q 872 129 906 69 q 838 265 838 189 l 996 300 l 996 265 q 1007 201 996 233 q 1042 147 1018 168 q 1100 126 1065 126 l 1163 126 l 1163 0 l 1100 0 m 0 0 l 0 126 l 729 126 q 808 167 779 126 q 838 299 838 207 q 778 483 838 426 q 614 540 719 540 q 474 511 532 540 q 379 436 417 482 q 319 338 342 390 q 281 236 296 285 l 204 247 q 244 381 222 318 q 295 497 265 444 q 367 587 325 549 q 469 646 410 625 q 611 667 529 667 q 894 569 792 667 q 996 300 996 472 q 926 80 996 160 q 729 0 856 0 l 0 0 m 122 0 l 122 436 q 101 503 122 475 q 58 543 81 532 q 94 580 68 561 q 164 599 119 599 q 218 587 196 599 q 254 555 240 575 q 274 509 268 535 q 281 457 281 483 l 281 0 l 122 0 m 0 0 q -22 17 -15 0 q -28 64 -28 35 q -22 110 -28 93 q 0 126 -15 126 l 0 0 m 1163 0 l 1163 126 q 1185 110 1179 126 q 1190 64 1190 93 q 1185 17 1190 35 q 1163 0 1179 0 m 557 760 q 490 787 517 760 q 463 851 463 814 q 490 916 463 889 q 556 943 517 943 q 620 916 593 943 q 647 851 647 889 q 620 787 647 814 q 557 760 593 760 z "},"ﺿ":{"ha":1086,"x_min":-28,"x_max":996,"o":"m 0 0 l 0 126 l 729 126 q 808 167 779 126 q 838 299 838 207 q 778 483 838 426 q 614 540 719 540 q 474 511 532 540 q 379 436 417 482 q 319 338 342 390 q 281 236 296 285 l 204 247 q 244 381 222 318 q 295 497 265 444 q 367 587 325 549 q 469 646 410 625 q 611 667 529 667 q 894 569 792 667 q 996 300 996 472 q 926 80 996 160 q 729 0 856 0 l 0 0 m 122 0 l 122 436 q 101 503 122 475 q 58 543 81 532 q 94 580 68 561 q 164 599 119 599 q 218 587 196 599 q 254 555 240 575 q 274 509 268 535 q 281 457 281 483 l 281 0 l 122 0 m 0 0 q -22 17 -15 0 q -28 64 -28 35 q -22 110 -28 93 q 0 126 -15 126 l 0 0 m 557 760 q 490 787 517 760 q 463 851 463 814 q 490 916 463 889 q 556 943 517 943 q 620 916 593 943 q 647 851 647 889 q 620 787 647 814 q 557 760 593 760 z "},"ط":{"ha":1147,"x_min":28,"x_max":1057,"o":"m 71 0 q 44 12 54 0 q 31 39 35 24 q 28 64 28 54 q 31 88 28 72 q 44 115 35 103 q 71 126 54 126 l 710 126 q 817 151 775 126 q 879 219 858 176 q 900 314 900 263 q 863 442 900 392 q 770 516 826 492 q 653 540 714 540 q 535 515 588 540 q 442 451 482 490 q 372 369 401 413 q 326 290 343 326 q 303 232 308 253 l 308 404 q 358 492 325 446 q 440 577 392 538 q 550 642 488 617 q 689 667 613 667 q 818 646 753 667 q 938 581 883 625 q 1024 468 992 536 q 1057 304 1057 400 q 1043 194 1057 249 q 996 97 1029 140 q 906 26 963 53 q 765 0 850 0 l 71 0 m 154 86 l 154 713 q 142 787 154 760 q 113 828 129 814 q 85 849 96 842 q 99 874 88 858 q 132 903 110 890 q 188 917 154 917 q 250 899 222 917 q 294 844 278 881 q 311 756 311 808 l 311 86 l 154 86 z "},"ﻂ":{"ha":1224,"x_min":28,"x_max":1251,"o":"m 1163 0 q 1027 35 1086 0 q 934 129 968 69 q 900 265 900 189 l 1057 299 l 1057 265 q 1068 201 1057 233 q 1103 147 1079 168 q 1163 126 1126 126 l 1224 126 l 1224 0 l 1163 0 m 71 0 q 44 12 54 0 q 31 39 35 24 q 28 64 28 54 q 31 88 28 72 q 44 115 35 103 q 71 126 54 126 l 710 126 q 817 151 775 126 q 879 219 858 176 q 900 314 900 263 q 863 442 900 392 q 770 516 826 492 q 653 540 714 540 q 535 515 588 540 q 442 451 482 490 q 372 369 401 413 q 326 290 343 326 q 303 232 308 253 l 308 404 q 358 492 325 446 q 440 577 392 538 q 550 642 488 617 q 689 667 613 667 q 818 646 753 667 q 938 581 883 625 q 1024 468 992 536 q 1057 304 1057 400 q 1043 194 1057 249 q 996 97 1029 140 q 906 26 963 53 q 765 0 850 0 l 71 0 m 154 86 l 154 713 q 142 787 154 760 q 113 828 129 814 q 85 849 96 842 q 99 874 88 858 q 132 903 110 890 q 188 917 154 917 q 250 899 222 917 q 294 844 278 881 q 311 756 311 808 l 311 86 l 154 86 m 1224 0 l 1224 126 q 1246 110 1240 126 q 1251 64 1251 93 q 1246 17 1251 35 q 1224 0 1240 0 z "},"ﻄ":{"ha":1228,"x_min":-28,"x_max":1256,"o":"m 1165 0 q 1031 35 1090 0 q 937 129 971 69 q 903 265 903 189 l 1061 299 l 1061 265 q 1072 201 1061 233 q 1107 147 1083 168 q 1165 126 1131 126 l 1228 126 l 1228 0 l 1165 0 m 0 0 l 0 126 l 714 126 q 820 151 778 126 q 883 219 863 176 q 904 314 904 263 q 867 442 904 392 q 774 516 831 492 q 657 540 718 540 q 539 515 592 540 q 446 451 486 490 q 376 369 406 413 q 330 290 347 326 q 306 232 313 253 l 311 404 q 361 492 328 446 q 443 577 394 538 q 554 642 492 617 q 693 667 617 667 q 822 646 757 667 q 942 581 888 625 q 1028 468 996 536 q 1061 304 1061 400 q 1047 194 1061 249 q 1000 97 1033 140 q 910 26 967 53 q 769 0 854 0 l 0 0 m 157 86 l 157 713 q 145 787 157 760 q 117 828 133 814 q 89 849 100 842 q 102 874 90 858 q 136 903 114 890 q 190 917 158 917 q 254 899 226 917 q 299 844 282 881 q 315 756 315 808 l 315 86 l 157 86 m 0 0 q -22 17 -15 0 q -28 64 -28 35 q -22 110 -28 93 q 0 126 -15 126 l 0 0 m 1228 0 l 1228 126 q 1250 110 1244 126 q 1256 64 1256 93 q 1250 17 1256 35 q 1228 0 1244 0 z "},"ﻃ":{"ha":1151,"x_min":-28,"x_max":1061,"o":"m 0 0 l 0 126 l 714 126 q 820 151 778 126 q 883 219 863 176 q 904 314 904 263 q 867 442 904 392 q 774 516 831 492 q 657 540 718 540 q 539 515 592 540 q 446 451 486 490 q 376 369 406 413 q 330 290 347 326 q 306 232 313 253 l 311 404 q 361 492 328 446 q 443 577 394 538 q 554 642 492 617 q 693 667 617 667 q 822 646 757 667 q 942 581 888 625 q 1028 468 996 536 q 1061 304 1061 400 q 1047 194 1061 249 q 1000 97 1033 140 q 910 26 967 53 q 769 0 854 0 l 0 0 m 157 86 l 157 713 q 145 787 157 760 q 117 828 133 814 q 89 849 100 842 q 102 874 90 858 q 136 903 114 890 q 190 917 158 917 q 254 899 226 917 q 299 844 282 881 q 315 756 315 808 l 315 86 l 157 86 m 0 0 q -22 17 -15 0 q -28 64 -28 35 q -22 110 -28 93 q 0 126 -15 126 l 0 0 z "},"ظ":{"ha":1147,"x_min":28,"x_max":1057,"o":"m 71 0 q 44 12 54 0 q 31 39 35 24 q 28 64 28 54 q 31 88 28 72 q 44 115 35 103 q 71 126 54 126 l 710 126 q 817 151 775 126 q 879 219 858 176 q 900 314 900 263 q 863 442 900 392 q 770 516 826 492 q 653 540 714 540 q 535 515 588 540 q 442 451 482 490 q 372 369 401 413 q 326 290 343 326 q 303 232 308 253 l 308 404 q 358 492 325 446 q 440 577 392 538 q 550 642 488 617 q 689 667 613 667 q 818 646 753 667 q 938 581 883 625 q 1024 468 992 536 q 1057 304 1057 400 q 1043 194 1057 249 q 996 97 1029 140 q 906 26 963 53 q 765 0 850 0 l 71 0 m 154 86 l 154 713 q 142 787 154 760 q 113 828 129 814 q 85 849 96 842 q 99 874 88 858 q 132 903 110 890 q 188 917 154 917 q 250 899 222 917 q 294 844 278 881 q 311 756 311 808 l 311 86 l 154 86 m 582 757 q 515 784 542 757 q 488 849 488 811 q 515 913 488 886 q 581 940 542 940 q 645 913 618 940 q 672 849 672 886 q 645 784 672 811 q 582 757 618 757 z "},"ﻆ":{"ha":1224,"x_min":28,"x_max":1251,"o":"m 1163 0 q 1027 35 1086 0 q 934 129 968 69 q 900 265 900 189 l 1057 299 l 1057 265 q 1068 201 1057 233 q 1103 147 1079 168 q 1163 126 1126 126 l 1224 126 l 1224 0 l 1163 0 m 71 0 q 44 12 54 0 q 31 39 35 24 q 28 64 28 54 q 31 88 28 72 q 44 115 35 103 q 71 126 54 126 l 710 126 q 817 151 775 126 q 879 219 858 176 q 900 314 900 263 q 863 442 900 392 q 770 516 826 492 q 653 540 714 540 q 535 515 588 540 q 442 451 482 490 q 372 369 401 413 q 326 290 343 326 q 303 232 308 253 l 308 404 q 358 492 325 446 q 440 577 392 538 q 550 642 488 617 q 689 667 613 667 q 818 646 753 667 q 938 581 883 625 q 1024 468 992 536 q 1057 304 1057 400 q 1043 194 1057 249 q 996 97 1029 140 q 906 26 963 53 q 765 0 850 0 l 71 0 m 154 86 l 154 713 q 142 787 154 760 q 113 828 129 814 q 85 849 96 842 q 99 874 88 858 q 132 903 110 890 q 188 917 154 917 q 250 899 222 917 q 294 844 278 881 q 311 756 311 808 l 311 86 l 154 86 m 1224 0 l 1224 126 q 1246 110 1240 126 q 1251 64 1251 93 q 1246 17 1251 35 q 1224 0 1240 0 m 582 757 q 515 784 542 757 q 488 849 488 811 q 515 913 488 886 q 581 940 542 940 q 645 913 618 940 q 672 849 672 886 q 645 784 672 811 q 582 757 618 757 z "},"ﻈ":{"ha":1228,"x_min":-28,"x_max":1256,"o":"m 1165 0 q 1031 35 1090 0 q 937 129 971 69 q 903 265 903 189 l 1061 299 l 1061 265 q 1072 201 1061 233 q 1107 147 1083 168 q 1165 126 1131 126 l 1228 126 l 1228 0 l 1165 0 m 0 0 l 0 126 l 714 126 q 820 151 778 126 q 883 219 863 176 q 904 314 904 263 q 867 442 904 392 q 774 516 831 492 q 657 540 718 540 q 539 515 592 540 q 446 451 486 490 q 376 369 406 413 q 330 290 347 326 q 306 232 313 253 l 311 404 q 361 492 328 446 q 443 577 394 538 q 554 642 492 617 q 693 667 617 667 q 822 646 757 667 q 942 581 888 625 q 1028 468 996 536 q 1061 304 1061 400 q 1047 194 1061 249 q 1000 97 1033 140 q 910 26 967 53 q 769 0 854 0 l 0 0 m 157 86 l 157 713 q 145 787 157 760 q 117 828 133 814 q 89 849 100 842 q 102 874 90 858 q 136 903 114 890 q 190 917 158 917 q 254 899 226 917 q 299 844 282 881 q 315 756 315 808 l 315 86 l 157 86 m 0 0 q -22 17 -15 0 q -28 64 -28 35 q -22 110 -28 93 q 0 126 -15 126 l 0 0 m 1228 0 l 1228 126 q 1250 110 1244 126 q 1256 64 1256 93 q 1250 17 1256 35 q 1228 0 1244 0 m 567 757 q 499 784 526 757 q 472 849 472 811 q 499 913 472 886 q 565 940 526 940 q 630 913 603 940 q 657 849 657 886 q 630 784 657 811 q 567 757 603 757 z "},"ﻇ":{"ha":1151,"x_min":-28,"x_max":1061,"o":"m 0 0 l 0 126 l 714 126 q 820 151 778 126 q 883 219 863 176 q 904 314 904 263 q 867 442 904 392 q 774 516 831 492 q 657 540 718 540 q 539 515 592 540 q 446 451 486 490 q 376 369 406 413 q 330 290 347 326 q 306 232 313 253 l 311 404 q 361 492 328 446 q 443 577 394 538 q 554 642 492 617 q 693 667 617 667 q 822 646 757 667 q 942 581 888 625 q 1028 468 996 536 q 1061 304 1061 400 q 1047 194 1061 249 q 1000 97 1033 140 q 910 26 967 53 q 769 0 854 0 l 0 0 m 157 86 l 157 713 q 145 787 157 760 q 117 828 133 814 q 89 849 100 842 q 102 874 90 858 q 136 903 114 890 q 190 917 158 917 q 254 899 226 917 q 299 844 282 881 q 315 756 315 808 l 315 86 l 157 86 m 0 0 q -22 17 -15 0 q -28 64 -28 35 q -22 110 -28 93 q 0 126 -15 126 l 0 0 m 567 757 q 499 784 526 757 q 472 849 472 811 q 499 913 472 886 q 565 940 526 940 q 630 913 603 940 q 657 849 657 886 q 630 784 657 811 q 567 757 603 757 z "}}}
